<svg xmlns="http://www.w3.org/2000/svg" xmlns:xlink="http://www.w3.org/1999/xlink" contentStyleType="text/css" data-diagram-type="DESCRIPTION" height="923px" preserveAspectRatio="none" style="width:1025px;height:923px;background:#FFFFFF;" version="1.1" viewBox="0 0 1025 923" width="1025px" zoomAndPan="magnify"><?plantuml 1.2026.6?><defs/><g><g class="title" data-source-line="1"><text fill="#000000" font-family="sans-serif" font-size="14" font-weight="700" lengthAdjust="spacing" textLength="294.7451" x="361.6653" y="22.9951">Figure 1 &#8212; Verification evidence flow</text></g><!--entity SRS--><g class="entity" data-qualified-name="SRS" data-source-line="8" id="ent0001"><rect fill="#F1F1F1" height="71.8906" rx="2.5" ry="2.5" style="stroke:#181818;stroke-width:0.5;" width="301.7627" x="165.12" y="44.2969"/><polygon fill="#F1F1F1" points="449.8827,49.2969,449.8827,63.2969,461.8827,63.2969,461.8827,55.2969,455.8827,49.2969,449.8827,49.2969" style="stroke:#181818;stroke-width:0.5;stroke-linejoin:miter;stroke-miterlimit:10;"/><line style="stroke:#181818;stroke-width:0.5;" x1="455.8827" x2="455.8827" y1="49.2969" y2="55.2969"/><line style="stroke:#181818;stroke-width:0.5;" x1="461.8827" x2="455.8827" y1="55.2969" y2="55.2969"/><text fill="#000000" font-family="sans-serif" font-size="14" lengthAdjust="spacing" textLength="27.501" x="175.12" y="70.292">SRS</text><text fill="#000000" font-family="sans-serif" font-size="14" lengthAdjust="spacing" textLength="133.1367" x="175.12" y="86.5889">requirements.yaml</text><text fill="#000000" font-family="sans-serif" font-size="14" lengthAdjust="spacing" textLength="271.7627" x="175.12" y="102.8857">requirements / invariants / acceptance</text></g><!--entity SDD--><g class="entity" data-qualified-name="SDD" data-source-line="9" id="ent0002"><rect fill="#F1F1F1" height="71.8906" rx="2.5" ry="2.5" style="stroke:#181818;stroke-width:0.5;" width="220.4971" x="507.75" y="44.2969"/><polygon fill="#F1F1F1" points="711.2471,49.2969,711.2471,63.2969,723.2471,63.2969,723.2471,55.2969,717.2471,49.2969,711.2471,49.2969" style="stroke:#181818;stroke-width:0.5;stroke-linejoin:miter;stroke-miterlimit:10;"/><line style="stroke:#181818;stroke-width:0.5;" x1="717.2471" x2="717.2471" y1="49.2969" y2="55.2969"/><line style="stroke:#181818;stroke-width:0.5;" x1="723.2471" x2="717.2471" y1="55.2969" y2="55.2969"/><text fill="#000000" font-family="sans-serif" font-size="14" lengthAdjust="spacing" textLength="30.4473" x="517.75" y="70.292">SDD</text><text fill="#000000" font-family="sans-serif" font-size="14" lengthAdjust="spacing" textLength="121.4404" x="517.75" y="86.5889">design-map.yaml</text><text fill="#000000" font-family="sans-serif" font-size="14" lengthAdjust="spacing" textLength="190.4971" x="517.75" y="102.8857">controlled design identities</text></g><!--entity VV--><g class="entity" data-qualified-name="VV" data-source-line="10" id="ent0003"><rect fill="#F1F1F1" height="71.8906" rx="2.5" ry="2.5" style="stroke:#181818;stroke-width:0.5;" width="236.917" x="181.54" y="179.1869"/><polygon fill="#F1F1F1" points="401.457,184.1869,401.457,198.1869,413.457,198.1869,413.457,190.1869,407.457,184.1869,401.457,184.1869" style="stroke:#181818;stroke-width:0.5;stroke-linejoin:miter;stroke-miterlimit:10;"/><line style="stroke:#181818;stroke-width:0.5;" x1="407.457" x2="407.457" y1="184.1869" y2="190.1869"/><line style="stroke:#181818;stroke-width:0.5;" x1="413.457" x2="407.457" y1="190.1869" y2="190.1869"/><text fill="#000000" font-family="sans-serif" font-size="14" lengthAdjust="spacing" textLength="30.0713" x="191.54" y="205.182">V&amp;V</text><text fill="#000000" font-family="sans-serif" font-size="14" lengthAdjust="spacing" textLength="117.2979" x="191.54" y="221.4789">verification.yaml</text><text fill="#000000" font-family="sans-serif" font-size="14" lengthAdjust="spacing" textLength="206.917" x="191.54" y="237.7757">stable verification obligations</text></g><!--entity Tests--><g class="entity" data-qualified-name="Tests" data-source-line="11" id="ent0004"><rect fill="#F1F1F1" height="36.2969" rx="2.5" ry="2.5" style="stroke:#181818;stroke-width:0.5;" width="198.3018" x="215.85" y="314.0869"/><text fill="#000000" font-family="sans-serif" font-size="14" lengthAdjust="spacing" textLength="178.3018" x="225.85" y="337.082">Executable tests / checks</text></g><!--entity Harness--><g class="entity" data-qualified-name="Harness" data-source-line="12" id="ent0005"><rect fill="#F1F1F1" height="52.5938" rx="2.5" ry="2.5" style="stroke:#181818;stroke-width:0.5;" width="172.4209" x="384.79" y="413.3769"/><text fill="#000000" font-family="sans-serif" font-size="14" lengthAdjust="spacing" textLength="145.9541" x="394.79" y="436.372">Reusable SpecGraph</text><text fill="#000000" font-family="sans-serif" font-size="14" lengthAdjust="spacing" textLength="152.4209" x="394.79" y="452.6689">traceability validation</text></g><!--entity Evidence--><g class="entity" data-qualified-name="Evidence" data-source-line="13" id="ent0006"><rect fill="#F1F1F1" height="55.5938" rx="2.5" ry="2.5" style="stroke:#181818;stroke-width:0.5;" width="155.46" x="455.27" y="528.9769"/><polygon fill="#F1F1F1" points="593.73,533.9769,593.73,547.9769,605.73,547.9769,605.73,539.9769,599.73,533.9769,593.73,533.9769" style="stroke:#181818;stroke-width:0.5;stroke-linejoin:miter;stroke-miterlimit:10;"/><line style="stroke:#181818;stroke-width:0.5;" x1="599.73" x2="599.73" y1="533.9769" y2="539.9769"/><line style="stroke:#181818;stroke-width:0.5;" x1="605.73" x2="599.73" y1="539.9769" y2="539.9769"/><text fill="#000000" font-family="sans-serif" font-size="14" lengthAdjust="spacing" textLength="125.46" x="465.27" y="554.972">Machine-readable</text><text fill="#000000" font-family="sans-serif" font-size="14" lengthAdjust="spacing" textLength="118.9795" x="465.27" y="571.2689">current evidence</text></g><!--entity Views--><g class="entity" data-qualified-name="Views" data-source-line="14" id="ent0007"><rect fill="#F1F1F1" height="55.5938" rx="2.5" ry="2.5" style="stroke:#181818;stroke-width:0.5;" width="239.6992" x="606.15" y="631.5669"/><polygon fill="#F1F1F1" points="828.8492,636.5669,828.8492,650.5669,840.8492,650.5669,840.8492,642.5669,834.8492,636.5669,828.8492,636.5669" style="stroke:#181818;stroke-width:0.5;stroke-linejoin:miter;stroke-miterlimit:10;"/><line style="stroke:#181818;stroke-width:0.5;" x1="834.8492" x2="834.8492" y1="636.5669" y2="642.5669"/><line style="stroke:#181818;stroke-width:0.5;" x1="840.8492" x2="834.8492" y1="642.5669" y2="642.5669"/><text fill="#000000" font-family="sans-serif" font-size="14" lengthAdjust="spacing" textLength="209.6992" x="616.15" y="657.562">Generated RTM / status views</text><text fill="#000000" font-family="sans-serif" font-size="14" lengthAdjust="spacing" textLength="85.709" x="616.15" y="673.8589">(disposable)</text></g><!--entity Human--><g class="entity" data-qualified-name="Human" data-source-line="15" id="ent0008"><ellipse cx="725.9985" cy="758.6569" fill="#F1F1F1" rx="8" ry="8" style="stroke:#181818;stroke-width:0.5;"/><path d="M725.9985,766.6569 L725.9985,793.6569 M712.9985,774.6569 L738.9985,774.6569 M725.9985,793.6569 L712.9985,808.6569 M725.9985,793.6569 L738.9985,808.6569" fill="none" style="stroke:#181818;stroke-width:0.5;"/><text fill="#000000" font-family="sans-serif" font-size="14" lengthAdjust="spacing" textLength="115.917" x="668.04" y="823.152">Human reviewer</text></g><g class="entity" data-qualified-name="GMN21" data-source-line="31" id="ent0022"><path d="M58.99,639.2269 L58.99,679.4925 A0,0 0 0 0 58.99,679.4925 L571.0193,679.4925 A0,0 0 0 0 571.0193,679.4925 L571.0193,649.2269 L561.0193,639.2269 L361.45,639.2269 L474.01,584.9869 L353.45,639.2269 L58.99,639.2269 A0,0 0 0 0 58.99,639.2269" fill="#FEFFDD" style="stroke:#181818;stroke-width:0.5;"/><path d="M561.0193,639.2269 L561.0193,649.2269 L571.0193,649.2269 L561.0193,639.2269" fill="#FEFFDD" style="stroke:#181818;stroke-width:0.5;"/><text fill="#000000" font-family="sans-serif" font-size="13" lengthAdjust="spacing" textLength="491.0293" x="64.99" y="656.2938">Current pass/fail/coverage state lives in executable or generated evidence,</text><text fill="#000000" font-family="sans-serif" font-size="13" lengthAdjust="spacing" textLength="428.1177" x="64.99" y="671.4266">never as manually copied status inside the durable V&amp;V strategy.</text></g><!--link SRS to VV--><g class="link" data-entity-1="ent0001" data-entity-2="ent0003" data-link-type="dependency" data-source-line="17" id="lnk9"><path d="M311.75,116.5069 C309.44,135.7369 307.1757,154.4925 304.8657,173.7425" fill="none" id="SRS-to-VV" style="stroke:#181818;stroke-width:1;"/><polygon fill="#181818" points="304.27,178.7069,309.3138,170.2476,304.8657,173.7425,301.3708,169.2944,304.27,178.7069" style="stroke:#181818;stroke-width:1;stroke-linejoin:miter;stroke-miterlimit:10;"/><text fill="#000000" font-family="sans-serif" font-size="13" lengthAdjust="spacing" textLength="91.3174" x="309.96" y="152.2538">normative IDs</text></g><!--link SDD to VV--><g class="link" data-entity-1="ent0002" data-entity-2="ent0003" data-link-type="dependency" data-source-line="18" id="lnk10"><path d="M533.2,116.6869 C487.2,135.9069 435.1332,157.6587 389.1732,176.8687" fill="none" id="SDD-to-VV" style="stroke:#181818;stroke-width:1;"/><polygon fill="#181818" points="384.56,178.7969,394.4064,179.0167,389.1732,176.8687,391.3213,171.6355,384.56,178.7969" style="stroke:#181818;stroke-width:1;stroke-linejoin:miter;stroke-miterlimit:10;"/><text fill="#000000" font-family="sans-serif" font-size="13" lengthAdjust="spacing" textLength="67.8755" x="479.04" y="152.2538">design IDs</text></g><!--link VV to Tests--><g class="link" data-entity-1="ent0003" data-entity-2="ent0004" data-link-type="dependency" data-source-line="19" id="lnk11"><path d="M302.82,251.4169 C304.38,270.8569 306,291.0869 306,291.0869 C306,291.0869 307.5959,298.2081 310.0359,309.0881" fill="none" id="VV-to-Tests" style="stroke:#181818;stroke-width:1;"/><polygon fill="#181818" points="311.13,313.9669,313.0636,304.3097,310.0359,309.0881,305.2575,306.0603,311.13,313.9669" style="stroke:#181818;stroke-width:1;stroke-linejoin:miter;stroke-miterlimit:10;"/><text fill="#000000" font-family="sans-serif" font-size="13" lengthAdjust="spacing" textLength="137.5854" x="307" y="287.1538">obligations / markers</text></g><!--link SRS to Harness--><g class="link" data-entity-1="ent0001" data-entity-2="ent0005" data-link-type="dependency" data-source-line="20" id="lnk12"><path d="M373.39,116.6269 C392.96,128.6869 410,139.1869 410,139.1869 C410,139.1869 436,179.1869 436,179.1869 C436,179.1869 449,274.0869 449,274.0869 C449,274.0869 460.7183,361.7108 466.8983,408.0008" fill="none" id="SRS-to-Harness" style="stroke:#181818;stroke-width:1;"/><polygon fill="#181818" points="467.56,412.9569,470.3338,403.5067,466.8983,408.0008,462.4042,404.5654,467.56,412.9569" style="stroke:#181818;stroke-width:1;stroke-linejoin:miter;stroke-miterlimit:10;"/></g><!--link SDD to Harness--><g class="link" data-entity-1="ent0002" data-entity-2="ent0005" data-link-type="dependency" data-source-line="21" id="lnk13"><path d="M604.24,116.4069 C572.52,197.4269 497,390.3769 497,390.3769 C497,390.3769 493.3703,397.1244 487.1303,408.7144" fill="none" id="SDD-to-Harness" style="stroke:#181818;stroke-width:1;"/><polygon fill="#181818" points="484.76,413.1169,492.5485,407.0886,487.1303,408.7144,485.5045,403.2962,484.76,413.1169" style="stroke:#181818;stroke-width:1;stroke-linejoin:miter;stroke-miterlimit:10;"/></g><!--link VV to Harness--><g class="link" data-entity-1="ent0003" data-entity-2="ent0005" data-link-type="dependency" data-source-line="22" id="lnk14"><path d="M263.18,251.4969 C233.96,279.5569 198,314.0869 198,314.0869 C198,314.0869 198,350.3769 198,350.3769 C198,350.3769 300,390.3769 300,390.3769 C300,390.3769 337.2682,400.908 379.6882,412.888" fill="none" id="VV-to-Harness" style="stroke:#181818;stroke-width:1;"/><polygon fill="#181818" points="384.5,414.2469,376.9259,407.9514,379.6882,412.888,374.7516,415.6503,384.5,414.2469" style="stroke:#181818;stroke-width:1;stroke-linejoin:miter;stroke-miterlimit:10;"/></g><!--link Tests to Harness--><g class="link" data-entity-1="ent0004" data-entity-2="ent0005" data-link-type="dependency" data-source-line="23" id="lnk15"><path d="M311.99,350.4869 C310.09,361.3669 308,373.3769 308,373.3769 C308,373.3769 308,390.3769 308,390.3769 C308,390.3769 340.8362,400.1059 379.9362,411.6959" fill="none" id="Tests-to-Harness" style="stroke:#181818;stroke-width:1;"/><polygon fill="#181818" points="384.73,413.1169,377.2379,406.724,379.9362,411.6959,374.9643,414.3942,384.73,413.1169" style="stroke:#181818;stroke-width:1;stroke-linejoin:miter;stroke-miterlimit:10;"/><text fill="#000000" font-family="sans-serif" font-size="13" lengthAdjust="spacing" textLength="135.0718" x="309" y="386.4438">executable evidence</text></g><!--link Harness to Evidence--><g class="link" data-entity-1="ent0005" data-entity-2="ent0006" data-link-type="dependency" data-source-line="24" id="lnk16"><path d="M484.76,466.2169 C494.75,484.7669 505.8698,505.4044 516.0398,524.2944" fill="none" id="Harness-to-Evidence" style="stroke:#181818;stroke-width:1;"/><polygon fill="#181818" points="518.41,528.6969,517.6656,518.8762,516.0398,524.2944,510.6216,522.6685,518.41,528.6969" style="stroke:#181818;stroke-width:1;stroke-linejoin:miter;stroke-miterlimit:10;"/><text fill="#000000" font-family="sans-serif" font-size="13" lengthAdjust="spacing" textLength="180.2227" x="506.71" y="502.0438">deterministic graph / status</text></g><!--link Evidence to Views--><g class="link" data-entity-1="ent0006" data-entity-2="ent0007" data-link-type="dependency" data-source-line="25" id="lnk17"><path d="M585.23,584.9869 C612.69,599.3069 641.8256,614.4969 669.2956,628.8069" fill="none" id="Evidence-to-Views" style="stroke:#181818;stroke-width:1;"/><polygon fill="#181818" points="673.73,631.1169,667.5961,623.4113,669.2956,628.8069,663.9001,630.5064,673.73,631.1169" style="stroke:#181818;stroke-width:1;stroke-linejoin:miter;stroke-miterlimit:10;"/></g><!--link Evidence to Human--><g class="link" data-entity-1="ent0006" data-entity-2="ent0008" data-link-type="dependency" data-source-line="26" id="lnk18"><path d="M611.21,575.2569 C708.79,597.0769 863,631.5669 863,631.5669 C863,631.5669 863,687.1569 863,687.1569 C863,687.1569 862,727.1569 862,727.1569 C862,727.1569 825.6128,743.2546 788.6428,759.6046" fill="none" id="Evidence-to-Human" style="stroke:#181818;stroke-width:1;"/><polygon fill="#181818" points="784.07,761.6269,793.9188,761.6449,788.6428,759.6046,790.6831,754.3285,784.07,761.6269" style="stroke:#181818;stroke-width:1;stroke-linejoin:miter;stroke-miterlimit:10;"/><text fill="#000000" font-family="sans-serif" font-size="13" lengthAdjust="spacing" textLength="145.0757" x="864" y="663.9338">reproducible evidence</text></g><!--link Views to Human--><g class="link" data-entity-1="ent0007" data-entity-2="ent0008" data-link-type="dependency" data-source-line="27" id="lnk19"><path d="M726,687.5969 C726,705.8069 726,725.0069 726,745.0069" fill="none" id="Views-to-Human" style="stroke:#181818;stroke-width:1;"/><polygon fill="#181818" points="726,750.0069,730,741.0069,726,745.0069,722,741.0069,726,750.0069" style="stroke:#181818;stroke-width:1;stroke-linejoin:miter;stroke-miterlimit:10;"/><text fill="#000000" font-family="sans-serif" font-size="13" lengthAdjust="spacing" textLength="126.731" x="727" y="723.2238">readable projection</text></g><!--link Human to VV--><g class="link" data-entity-1="ent0008" data-entity-2="ent0003" data-link-type="dependency" data-source-line="28" id="lnk20"><path d="M667.6,778.7669 C501.95,754.5469 41,687.1569 41,687.1569 C41,687.1569 6,660.3669 6,660.3669 C6,331.2269 6,331.2269 6,331.2269 C6,331.2269 118.7142,287.11 205.1342,253.27" fill="none" id="Human-to-VV" style="stroke:#181818;stroke-width:1;stroke-dasharray:7,7;"/><polygon fill="#181818" points="209.79,251.4469,199.9511,251.0038,205.1342,253.27,202.8681,258.4531,209.79,251.4469" style="stroke:#181818;stroke-width:1;stroke-linejoin:miter;stroke-miterlimit:10;"/><text fill="#000000" font-family="sans-serif" font-size="13" lengthAdjust="spacing" textLength="275.8564" x="7" y="502.0438">semantic adequacy / UX / demo validation</text></g><g class="legend" data-source-line="35"><rect fill="#DDDDDD" height="58.8906" rx="7.5" ry="7.5" style="stroke:#000000;stroke-width:1;" width="431.6133" x="293.2312" y="845.652"/><text fill="#000000" font-family="sans-serif" font-size="14" lengthAdjust="spacing" textLength="372.3467" x="298.2312" y="863.6471">Artifacts = controlled or generated evidence objects.</text><text fill="#000000" font-family="sans-serif" font-size="14" lengthAdjust="spacing" textLength="357.4102" x="298.2312" y="879.944">Components = executable validation mechanisms.</text><text fill="#000000" font-family="sans-serif" font-size="14" lengthAdjust="spacing" textLength="421.6133" x="298.2312" y="896.2409">Arrows show evidence/identity flow, not work-item lifecycle.</text></g><?plantuml-src RLJDRXCn4BxxAKOv892QH0XwgGHIHKhBePUcH1nocNWd6nEllTZU3NlZ8NX2deInlPkuY4kK-Vlscszc75JG19zLtJc2j_3drs_Oa5Dx9J4eQu1wLP6H17jjJoBO5eA5dGt1Db0fHp9c2NzKfaM73KZRjDQG2UimC71CG5DhAbAqCXI6bg2rUeX64JEs8ayjlBikd0xDCJhVNmk1BgWzoW2pzTDwQnpzw9X5mn_qYm4R_T85Ir2cHwSm6oWbjKn8qWpG0qEKWAlLrl3dLMtc3ROZdBGcEAirLP1Z40K9AYZo6MIrAa0shpPRqnSAZZ0-u8xrA2DWTrhLwMz6scp4MJwOtVqasUMgG3xHbmUInvpx75rb-XDrFYMlMvBt3jl3becZ9DmfhS80FMfLfQybW0TqXhmlg3-YFF0qvewmYaZSU-TS19-M81NUZKPHUK-670QMwEdvaNboiw7pq2iw-QrvNIdVsaJkJUup-WLNMWUpXwv1mtiIaybbQj4b14y7vlEFB0lSy6AuXidt15zMNh3cbz0ubkXdExgJE1mf16PM3ReZEN_6dHIOm2Px19dC35Pu69Wkivcq4LCqPauQ9NQ1NAECya59gEDWpWg9Srvg9idomfN5kM5vMcUhJgeNNqm5_-JbqG6dVnzlCySMYr4jJsn6AbZneQ0ScCtNR_nJKMEB9H72s43JgTlzPUu0dyQzQD7xvHwLNahBcuqrfSQ8JxmdpwTN2iN3hizxClLmnMY6k3REdObrgFN0ZqYhE6bS8sKy9qCu45ITIrXyPHoDKFMm46GgY6I5q5H78vDcwDjnHJryWEAG_qk5joLAvXUnmUckOc7HmqKUQ4WUaAVQf89RvopFmX_iwGou71-A8RsTLv4YdAmxpbMW-0hkIGvIK-AVYVy5?></g></svg>