<svg xmlns="http://www.w3.org/2000/svg" xmlns:xlink="http://www.w3.org/1999/xlink" contentStyleType="text/css" data-diagram-type="ACTIVITY" height="1931px" preserveAspectRatio="none" style="width:2509px;height:1931px;background:#FFFFFF;" version="1.1" viewBox="0 0 2509 1931" width="2509px" zoomAndPan="magnify"><?plantuml 1.2026.6?><defs/><g><g class="title" data-source-line="1"><text fill="#000000" font-family="sans-serif" font-size="14" font-weight="700" lengthAdjust="spacing" textLength="504.6494" x="1001.4851" y="32.9951">Figure 7 &#8212; UML Activity diagram &#8212; grounded analysis workflow</text></g><rect fill="none" height="20.9531" style="stroke:none;stroke-width:1;" width="2462.6196" x="20" y="55.042"/><ellipse cx="173.5464" cy="90.9951" fill="#222222" rx="10" ry="10" style="stroke:#222222;stroke-width:1;"/><rect fill="#F7F7F7" height="33.9688" rx="12.5" ry="12.5" style="stroke:#333333;stroke-width:0.5;" width="256.7891" x="45.1519" y="120.9951"/><text fill="#000000" font-family="sans-serif" font-size="12" lengthAdjust="spacing" textLength="236.7891" x="55.1519" y="142.1338">Request analysis for selected customer</text><ellipse cx="79.106" cy="391.8701" fill="none" rx="11" ry="11" style="stroke:#222222;stroke-width:1;"/><ellipse cx="79.106" cy="391.8701" fill="#222222" rx="6" ry="6" style="stroke:#222222;stroke-width:1;"/><rect fill="#F7F7F7" height="33.9688" rx="12.5" ry="12.5" style="stroke:#333333;stroke-width:0.5;" width="127.8594" x="204.0571" y="272.9326"/><text fill="#000000" font-family="sans-serif" font-size="12" lengthAdjust="spacing" textLength="107.8594" x="214.0571" y="294.0713">Attach OperatorId</text><ellipse cx="36" cy="775.6514" fill="none" rx="11" ry="11" style="stroke:#222222;stroke-width:1;"/><ellipse cx="36" cy="775.6514" fill="#222222" rx="6" ry="6" style="stroke:#222222;stroke-width:1;"/><rect fill="#F7F7F7" height="33.9688" rx="12.5" ry="12.5" style="stroke:#333333;stroke-width:0.5;" width="257.9434" x="182.1211" y="602.7451"/><text fill="#000000" font-family="sans-serif" font-size="12" lengthAdjust="spacing" textLength="237.9434" x="192.1211" y="623.8838">Return PolicyEvidence with provenance</text><ellipse cx="51.3369" cy="1091.4951" fill="none" rx="11" ry="11" style="stroke:#222222;stroke-width:1;"/><ellipse cx="51.3369" cy="1091.4951" fill="#222222" rx="6" ry="6" style="stroke:#222222;stroke-width:1;"/><rect fill="#F7F7F7" height="33.9688" rx="12.5" ry="12.5" style="stroke:#333333;stroke-width:0.5;" width="190.1035" x="200.7041" y="918.5889"/><text fill="#000000" font-family="sans-serif" font-size="12" lengthAdjust="spacing" textLength="170.1035" x="210.7041" y="939.7275">Return structured candidate</text><ellipse cx="173.5464" cy="1343.8037" fill="none" rx="11" ry="11" style="stroke:#222222;stroke-width:1;"/><ellipse cx="173.5464" cy="1343.8037" fill="#222222" rx="6" ry="6" style="stroke:#222222;stroke-width:1;"/><ellipse cx="51.1392" cy="1681.6475" fill="none" rx="11" ry="11" style="stroke:#222222;stroke-width:1;"/><ellipse cx="51.1392" cy="1681.6475" fill="#222222" rx="6" ry="6" style="stroke:#222222;stroke-width:1;"/><rect fill="#F7F7F7" height="33.9688" rx="12.5" ry="12.5" style="stroke:#333333;stroke-width:0.5;" width="254.2402" x="168.8335" y="1508.7412"/><text fill="#000000" font-family="sans-serif" font-size="12" lengthAdjust="spacing" textLength="234.2402" x="178.8335" y="1529.8799">Return generated AnalysisHistoryEntry</text><rect fill="#F7F7F7" height="33.9688" rx="12.5" ry="12.5" style="stroke:#333333;stroke-width:0.5;" width="183.2363" x="81.9282" y="1834.5537"/><text fill="#000000" font-family="sans-serif" font-size="12" lengthAdjust="spacing" textLength="163.2363" x="91.9282" y="1855.6924">Review completed analysis</text><ellipse cx="173.5464" cy="1899.5225" fill="none" rx="11" ry="11" style="stroke:#222222;stroke-width:1;"/><ellipse cx="173.5464" cy="1899.5225" fill="#222222" rx="6" ry="6" style="stroke:#222222;stroke-width:1;"/><line style="stroke:#000000;stroke-width:1.5;" x1="20" x2="20" y1="55.042" y2="1910.5225"/><rect fill="#F7F7F7" height="33.9688" rx="12.5" ry="12.5" style="stroke:#333333;stroke-width:0.5;" width="226.7598" x="573.9028" y="174.9639"/><text fill="#000000" font-family="sans-serif" font-size="12" lengthAdjust="spacing" textLength="206.7598" x="583.9028" y="196.1025">Submit protected analysis request</text><rect fill="#F7F7F7" height="33.9688" rx="12.5" ry="12.5" style="stroke:#333333;stroke-width:0.5;" width="209.9023" x="487.8911" y="326.9014"/><text fill="#000000" font-family="sans-serif" font-size="12" lengthAdjust="spacing" textLength="189.9023" x="497.8911" y="348.04">Display authentication required</text><rect fill="#F7F7F7" height="33.9688" rx="12.5" ry="12.5" style="stroke:#333333;stroke-width:0.5;" width="199.3438" x="450.0645" y="710.6826"/><text fill="#000000" font-family="sans-serif" font-size="12" lengthAdjust="spacing" textLength="179.3438" x="460.0645" y="731.8213">Display insufficient grounding</text><rect fill="#F7F7F7" height="33.9688" rx="12.5" ry="12.5" style="stroke:#333333;stroke-width:0.5;" width="158.6152" x="485.7656" y="1026.5264"/><text fill="#000000" font-family="sans-serif" font-size="12" lengthAdjust="spacing" textLength="138.6152" x="495.7656" y="1047.665">Display analysis failure</text><rect fill="#F7F7F7" height="33.9688" rx="12.5" ry="12.5" style="stroke:#333333;stroke-width:0.5;" width="202.625" x="585.9702" y="1278.835"/><text fill="#000000" font-family="sans-serif" font-size="12" lengthAdjust="spacing" textLength="182.625" x="595.9702" y="1299.9736">Display invalid-analysis failure</text><rect fill="#F7F7F7" height="33.9688" rx="12.5" ry="12.5" style="stroke:#333333;stroke-width:0.5;" width="179.4746" x="475.1382" y="1616.6787"/><text fill="#000000" font-family="sans-serif" font-size="12" lengthAdjust="spacing" textLength="159.4746" x="485.1382" y="1637.8174">Display persistence failure</text><rect fill="#F7F7F7" height="47.9375" rx="12.5" ry="12.5" style="stroke:#333333;stroke-width:0.5;" width="229.959" x="572.3032" y="1766.6162"/><text fill="#000000" font-family="sans-serif" font-size="12" lengthAdjust="spacing" textLength="159.9258" x="582.3032" y="1787.7549">Render risk level, findings,</text><text fill="#000000" font-family="sans-serif" font-size="12" lengthAdjust="spacing" textLength="209.959" x="582.3032" y="1801.7236">recommendations and provenance</text><line style="stroke:#000000;stroke-width:1.5;" x1="444.0645" x2="444.0645" y1="55.042" y2="1910.5225"/><polygon fill="#F7F7F7" points="923.0623,228.9326,1006.6418,228.9326,1018.6418,240.9326,1006.6418,252.9326,923.0623,252.9326,911.0623,240.9326,923.0623,228.9326" style="stroke:#333333;stroke-width:0.5;stroke-linejoin:miter;stroke-miterlimit:10;"/><text fill="#000000" font-family="sans-serif" font-size="11" lengthAdjust="spacing" textLength="83.5796" x="923.0623" y="244.7407">Authenticated?</text><text fill="#000000" font-family="sans-serif" font-size="11" lengthAdjust="spacing" textLength="13.7017" x="897.3606" y="238.3384">no</text><text fill="#000000" font-family="sans-serif" font-size="11" lengthAdjust="spacing" textLength="19.0083" x="1018.6418" y="238.3384">yes</text><rect fill="#F7F7F7" height="33.9688" rx="12.5" ry="12.5" style="stroke:#333333;stroke-width:0.5;" width="116.2988" x="812.2622" y="272.9326"/><text fill="#000000" font-family="sans-serif" font-size="12" lengthAdjust="spacing" textLength="96.2988" x="822.2622" y="294.0713">Reject / redirect</text><line style="stroke:#000000;stroke-width:1.5;" x1="806.2622" x2="806.2622" y1="55.042" y2="1910.5225"/><rect fill="#F7F7F7" height="47.9375" rx="12.5" ry="12.5" style="stroke:#333333;stroke-width:0.5;" width="209.8027" x="1207.4163" y="422.8701"/><text fill="#000000" font-family="sans-serif" font-size="12" lengthAdjust="spacing" textLength="189.8027" x="1217.4163" y="444.0088">Load customer context through</text><text fill="#000000" font-family="sans-serif" font-size="12" lengthAdjust="spacing" textLength="127.5938" x="1217.4163" y="457.9775">CustomerActivityPort</text><rect fill="#F7F7F7" height="47.9375" rx="12.5" ry="12.5" style="stroke:#333333;stroke-width:0.5;" width="244.2617" x="1190.1868" y="490.8076"/><text fill="#000000" font-family="sans-serif" font-size="12" lengthAdjust="spacing" textLength="224.2617" x="1200.1868" y="511.9463">Retrieve relevant knowledge through</text><text fill="#000000" font-family="sans-serif" font-size="12" lengthAdjust="spacing" textLength="125.127" x="1200.1868" y="525.915">PolicyKnowledgePort</text><rect fill="#F7F7F7" height="33.9688" rx="12.5" ry="12.5" style="stroke:#333333;stroke-width:0.5;" width="252.2422" x="1048.6501" y="656.7139"/><text fill="#000000" font-family="sans-serif" font-size="12" lengthAdjust="spacing" textLength="232.2422" x="1058.6501" y="677.8525">Create insufficient-grounding outcome</text><rect fill="#F7F7F7" height="47.9375" rx="12.5" ry="12.5" style="stroke:#333333;stroke-width:0.5;" width="232.9941" x="1195.8206" y="806.6514"/><text fill="#000000" font-family="sans-serif" font-size="12" lengthAdjust="spacing" textLength="182.6953" x="1205.8206" y="827.79">Invoke AnalysisModelPort with</text><text fill="#000000" font-family="sans-serif" font-size="12" lengthAdjust="spacing" textLength="212.9941" x="1205.8206" y="841.7588">customer context + PolicyEvidence</text><rect fill="#F7F7F7" height="33.9688" rx="12.5" ry="12.5" style="stroke:#333333;stroke-width:0.5;" width="258.7344" x="1060.741" y="972.5576"/><text fill="#000000" font-family="sans-serif" font-size="12" lengthAdjust="spacing" textLength="238.7344" x="1070.741" y="993.6963">Create explicit analysis-failure outcome</text><rect fill="#F7F7F7" height="33.9688" rx="12.5" ry="12.5" style="stroke:#333333;stroke-width:0.5;" width="213.8164" x="1205.4094" y="1122.4951"/><text fill="#000000" font-family="sans-serif" font-size="12" lengthAdjust="spacing" textLength="193.8164" x="1215.4094" y="1143.6338">Validate AnalysisResult contract</text><rect fill="#F7F7F7" height="33.9688" rx="12.5" ry="12.5" style="stroke:#333333;stroke-width:0.5;" width="269.2285" x="1177.7034" y="1224.8662"/><text fill="#000000" font-family="sans-serif" font-size="12" lengthAdjust="spacing" textLength="249.2285" x="1187.7034" y="1246.0049">Create explicit validation-failure outcome</text><polygon fill="#F7F7F7" points="1247.9692,1176.4639,1376.666,1176.4639,1388.666,1188.4639,1376.666,1200.4639,1247.9692,1200.4639,1235.9692,1188.4639,1247.9692,1176.4639" style="stroke:#333333;stroke-width:0.5;stroke-linejoin:miter;stroke-miterlimit:10;"/><text fill="#000000" font-family="sans-serif" font-size="11" lengthAdjust="spacing" textLength="13.7017" x="1316.3176" y="1210.6743">no</text><text fill="#000000" font-family="sans-serif" font-size="11" lengthAdjust="spacing" textLength="128.6968" x="1247.9692" y="1192.272">Valid structured result?</text><text fill="#000000" font-family="sans-serif" font-size="11" lengthAdjust="spacing" textLength="19.0083" x="1388.666" y="1185.8696">yes</text><rect fill="#F7F7F7" height="33.9688" rx="12.5" ry="12.5" style="stroke:#333333;stroke-width:0.5;" width="195.3887" x="1092.2161" y="1562.71"/><text fill="#000000" font-family="sans-serif" font-size="12" lengthAdjust="spacing" textLength="175.3887" x="1102.2161" y="1583.8486">Do not claim retained history</text><rect fill="#F7F7F7" height="33.9688" rx="12.5" ry="12.5" style="stroke:#333333;stroke-width:0.5;" width="241.9883" x="1191.3235" y="1712.6475"/><text fill="#000000" font-family="sans-serif" font-size="12" lengthAdjust="spacing" textLength="221.9883" x="1201.3235" y="1733.7861">Return completed grounded analysis</text><line style="stroke:#000000;stroke-width:1.5;" x1="1042.6501" x2="1042.6501" y1="55.042" y2="1910.5225"/><polygon fill="#F7F7F7" points="1636.5745,558.7451,1797.6965,558.7451,1809.6965,570.7451,1797.6965,582.7451,1636.5745,582.7451,1624.5745,570.7451,1636.5745,558.7451" style="stroke:#333333;stroke-width:0.5;stroke-linejoin:miter;stroke-miterlimit:10;"/><text fill="#000000" font-family="sans-serif" font-size="11" lengthAdjust="spacing" textLength="161.1221" x="1636.5745" y="574.5532">Relevant evidence available?</text><text fill="#000000" font-family="sans-serif" font-size="11" lengthAdjust="spacing" textLength="13.7017" x="1610.8728" y="568.1509">no</text><text fill="#000000" font-family="sans-serif" font-size="11" lengthAdjust="spacing" textLength="19.0083" x="1809.6965" y="568.1509">yes</text><rect fill="#F7F7F7" height="33.9688" rx="12.5" ry="12.5" style="stroke:#333333;stroke-width:0.5;" width="223.3145" x="1467.9319" y="602.7451"/><text fill="#000000" font-family="sans-serif" font-size="12" lengthAdjust="spacing" textLength="203.3145" x="1477.9319" y="623.8838">Return explicit no-evidence result</text><line style="stroke:#000000;stroke-width:1.5;" x1="1461.9319" x2="1461.9319" y1="55.042" y2="1910.5225"/><polygon fill="#F7F7F7" points="1951.541,874.5889,2116.02,874.5889,2128.02,886.5889,2116.02,898.5889,1951.541,898.5889,1939.541,886.5889,1951.541,874.5889" style="stroke:#333333;stroke-width:0.5;stroke-linejoin:miter;stroke-miterlimit:10;"/><text fill="#000000" font-family="sans-serif" font-size="11" lengthAdjust="spacing" textLength="164.479" x="1951.541" y="890.397">Execution/provider succeeds?</text><text fill="#000000" font-family="sans-serif" font-size="11" lengthAdjust="spacing" textLength="13.7017" x="1925.8394" y="883.9946">no</text><text fill="#000000" font-family="sans-serif" font-size="11" lengthAdjust="spacing" textLength="19.0083" x="2128.02" y="883.9946">yes</text><rect fill="#F7F7F7" height="33.9688" rx="12.5" ry="12.5" style="stroke:#333333;stroke-width:0.5;" width="143.7324" x="1839.7048" y="918.5889"/><text fill="#000000" font-family="sans-serif" font-size="12" lengthAdjust="spacing" textLength="123.7324" x="1849.7048" y="939.7275">Return model failure</text><line style="stroke:#000000;stroke-width:1.5;" x1="1833.7048" x2="1833.7048" y1="55.042" y2="1910.5225"/><rect fill="#F7F7F7" height="47.9375" rx="12.5" ry="12.5" style="stroke:#333333;stroke-width:0.5;" width="216.834" x="2259.9248" y="1396.8037"/><text fill="#000000" font-family="sans-serif" font-size="12" lengthAdjust="spacing" textLength="196.834" x="2269.9248" y="1417.9424">Persist completed result through</text><text fill="#000000" font-family="sans-serif" font-size="12" lengthAdjust="spacing" textLength="116.3496" x="2269.9248" y="1431.9111">AnalysisHistoryPort</text><polygon fill="#F7F7F7" points="2306.4963,1464.7412,2430.1873,1464.7412,2442.1873,1476.7412,2430.1873,1488.7412,2306.4963,1488.7412,2294.4963,1476.7412,2306.4963,1464.7412" style="stroke:#333333;stroke-width:0.5;stroke-linejoin:miter;stroke-miterlimit:10;"/><text fill="#000000" font-family="sans-serif" font-size="11" lengthAdjust="spacing" textLength="123.6909" x="2306.4963" y="1480.5493">Persistence succeeds?</text><text fill="#000000" font-family="sans-serif" font-size="11" lengthAdjust="spacing" textLength="13.7017" x="2280.7947" y="1474.147">no</text><text fill="#000000" font-family="sans-serif" font-size="11" lengthAdjust="spacing" textLength="19.0083" x="2442.1873" y="1474.147">yes</text><rect fill="#F7F7F7" height="33.9688" rx="12.5" ry="12.5" style="stroke:#333333;stroke-width:0.5;" width="175.8125" x="2158.0283" y="1508.7412"/><text fill="#000000" font-family="sans-serif" font-size="12" lengthAdjust="spacing" textLength="155.8125" x="2168.0283" y="1529.8799">Return persistence failure</text><line style="stroke:#000000;stroke-width:1.5;" x1="2152.0283" x2="2152.0283" y1="55.042" y2="1910.5225"/><line style="stroke:#000000;stroke-width:1.5;" x1="2480.7588" x2="2480.7588" y1="55.042" y2="1910.5225"/><line style="stroke:#181818;stroke-width:1;" x1="173.5464" x2="173.5464" y1="100.9951" y2="120.9951"/><polygon fill="#181818" points="169.5464,110.9951,173.5464,120.9951,177.5464,110.9951,173.5464,114.9951" style="stroke:#181818;stroke-width:1;stroke-linejoin:miter;stroke-miterlimit:10;"/><line style="stroke:#181818;stroke-width:1;" x1="173.5464" x2="173.5464" y1="1868.5225" y2="1888.5225"/><polygon fill="#181818" points="169.5464,1878.5225,173.5464,1888.5225,177.5464,1878.5225,173.5464,1882.5225" style="stroke:#181818;stroke-width:1;stroke-linejoin:miter;stroke-miterlimit:10;"/><line style="stroke:#181818;stroke-width:1;" x1="911.0623" x2="870.4116" y1="240.9326" y2="240.9326"/><line style="stroke:#181818;stroke-width:1;" x1="870.4116" x2="870.4116" y1="240.9326" y2="272.9326"/><polygon fill="#181818" points="866.4116,262.9326,870.4116,272.9326,874.4116,262.9326,870.4116,266.9326" style="stroke:#181818;stroke-width:1;stroke-linejoin:miter;stroke-miterlimit:10;"/><line style="stroke:#181818;stroke-width:1;" x1="1312.3176" x2="1312.3176" y1="470.8076" y2="490.8076"/><polygon fill="#181818" points="1308.3176,480.8076,1312.3176,490.8076,1316.3176,480.8076,1312.3176,484.8076" style="stroke:#181818;stroke-width:1;stroke-linejoin:miter;stroke-miterlimit:10;"/><line style="stroke:#181818;stroke-width:1;" x1="1312.3176" x2="1312.3176" y1="1200.4639" y2="1224.8662"/><polygon fill="#181818" points="1308.3176,1214.8662,1312.3176,1224.8662,1316.3176,1214.8662,1312.3176,1218.8662" style="stroke:#181818;stroke-width:1;stroke-linejoin:miter;stroke-miterlimit:10;"/><line style="stroke:#181818;stroke-width:1;" x1="1388.666" x2="2368.3418" y1="1188.4639" y2="1188.4639"/><polygon fill="#181818" points="2364.3418,1294.335,2368.3418,1304.335,2372.3418,1294.335,2368.3418,1298.335" style="stroke:#181818;stroke-width:1;stroke-linejoin:miter;stroke-miterlimit:10;"/><line style="stroke:#181818;stroke-width:1;" x1="2368.3418" x2="2368.3418" y1="1188.4639" y2="1396.8037"/><polygon fill="#181818" points="2364.3418,1386.8037,2368.3418,1396.8037,2372.3418,1386.8037,2368.3418,1390.8037" style="stroke:#181818;stroke-width:1;stroke-linejoin:miter;stroke-miterlimit:10;"/><line style="stroke:#181818;stroke-width:1;" x1="1312.3176" x2="1312.3176" y1="1156.4639" y2="1176.4639"/><polygon fill="#181818" points="1308.3176,1166.4639,1312.3176,1176.4639,1316.3176,1166.4639,1312.3176,1170.4639" style="stroke:#181818;stroke-width:1;stroke-linejoin:miter;stroke-miterlimit:10;"/><line style="stroke:#181818;stroke-width:1;" x1="1624.5745" x2="1579.5891" y1="570.7451" y2="570.7451"/><line style="stroke:#181818;stroke-width:1;" x1="1579.5891" x2="1579.5891" y1="570.7451" y2="602.7451"/><polygon fill="#181818" points="1575.5891,592.7451,1579.5891,602.7451,1583.5891,592.7451,1579.5891,596.7451" style="stroke:#181818;stroke-width:1;stroke-linejoin:miter;stroke-miterlimit:10;"/><line style="stroke:#181818;stroke-width:1;" x1="1939.541" x2="1911.571" y1="886.5889" y2="886.5889"/><line style="stroke:#181818;stroke-width:1;" x1="1911.571" x2="1911.571" y1="886.5889" y2="918.5889"/><polygon fill="#181818" points="1907.571,908.5889,1911.571,918.5889,1915.571,908.5889,1911.571,912.5889" style="stroke:#181818;stroke-width:1;stroke-linejoin:miter;stroke-miterlimit:10;"/><line style="stroke:#181818;stroke-width:1;" x1="2294.4963" x2="2245.9346" y1="1476.7412" y2="1476.7412"/><line style="stroke:#181818;stroke-width:1;" x1="2245.9346" x2="2245.9346" y1="1476.7412" y2="1508.7412"/><polygon fill="#181818" points="2241.9346,1498.7412,2245.9346,1508.7412,2249.9346,1498.7412,2245.9346,1502.7412" style="stroke:#181818;stroke-width:1;stroke-linejoin:miter;stroke-miterlimit:10;"/><line style="stroke:#181818;stroke-width:1;" x1="2368.3418" x2="2368.3418" y1="1444.7412" y2="1464.7412"/><polygon fill="#181818" points="2364.3418,1454.7412,2368.3418,1464.7412,2372.3418,1454.7412,2368.3418,1458.7412" style="stroke:#181818;stroke-width:1;stroke-linejoin:miter;stroke-miterlimit:10;"/><line style="stroke:#181818;stroke-width:1;" x1="173.5464" x2="173.5464" y1="154.9639" y2="159.9639"/><line style="stroke:#181818;stroke-width:1;" x1="173.5464" x2="687.2827" y1="159.9639" y2="159.9639"/><line style="stroke:#181818;stroke-width:1;" x1="687.2827" x2="687.2827" y1="159.9639" y2="174.9639"/><polygon fill="#181818" points="683.2827,164.9639,687.2827,174.9639,691.2827,164.9639,687.2827,168.9639" style="stroke:#181818;stroke-width:1;stroke-linejoin:miter;stroke-miterlimit:10;"/><line style="stroke:#181818;stroke-width:1;" x1="870.4116" x2="870.4116" y1="306.9014" y2="311.9014"/><line style="stroke:#181818;stroke-width:1;" x1="870.4116" x2="592.8423" y1="311.9014" y2="311.9014"/><line style="stroke:#181818;stroke-width:1;" x1="592.8423" x2="592.8423" y1="311.9014" y2="326.9014"/><polygon fill="#181818" points="588.8423,316.9014,592.8423,326.9014,596.8423,316.9014,592.8423,320.9014" style="stroke:#181818;stroke-width:1;stroke-linejoin:miter;stroke-miterlimit:10;"/><line style="stroke:#181818;stroke-width:1;" x1="592.8423" x2="592.8423" y1="360.8701" y2="365.8701"/><line style="stroke:#181818;stroke-width:1;" x1="592.8423" x2="79.106" y1="365.8701" y2="365.8701"/><line style="stroke:#181818;stroke-width:1;" x1="79.106" x2="79.106" y1="365.8701" y2="380.8701"/><polygon fill="#181818" points="75.106,370.8701,79.106,380.8701,83.106,370.8701,79.106,374.8701" style="stroke:#181818;stroke-width:1;stroke-linejoin:miter;stroke-miterlimit:10;"/><line style="stroke:#181818;stroke-width:1;" x1="1018.6418" x2="1030.6418" y1="240.9326" y2="240.9326"/><line style="stroke:#181818;stroke-width:1;" x1="1030.6418" x2="1030.6418" y1="240.9326" y2="258.9326"/><line style="stroke:#181818;stroke-width:1;" x1="1030.6418" x2="267.9868" y1="258.9326" y2="258.9326"/><line style="stroke:#181818;stroke-width:1;" x1="267.9868" x2="267.9868" y1="258.9326" y2="272.9326"/><polygon fill="#181818" points="263.9868,262.9326,267.9868,272.9326,271.9868,262.9326,267.9868,266.9326" style="stroke:#181818;stroke-width:1;stroke-linejoin:miter;stroke-miterlimit:10;"/><line style="stroke:#181818;stroke-width:1;" x1="267.9868" x2="267.9868" y1="306.9014" y2="407.8701"/><line style="stroke:#181818;stroke-width:1;" x1="267.9868" x2="1312.3176" y1="407.8701" y2="407.8701"/><line style="stroke:#181818;stroke-width:1;" x1="1312.3176" x2="1312.3176" y1="407.8701" y2="422.8701"/><polygon fill="#181818" points="1308.3176,412.8701,1312.3176,422.8701,1316.3176,412.8701,1312.3176,416.8701" style="stroke:#181818;stroke-width:1;stroke-linejoin:miter;stroke-miterlimit:10;"/><line style="stroke:#181818;stroke-width:1;" x1="687.2827" x2="687.2827" y1="208.9326" y2="213.9326"/><line style="stroke:#181818;stroke-width:1;" x1="687.2827" x2="964.8521" y1="213.9326" y2="213.9326"/><line style="stroke:#181818;stroke-width:1;" x1="964.8521" x2="964.8521" y1="213.9326" y2="228.9326"/><polygon fill="#181818" points="960.8521,218.9326,964.8521,228.9326,968.8521,218.9326,964.8521,222.9326" style="stroke:#181818;stroke-width:1;stroke-linejoin:miter;stroke-miterlimit:10;"/><line style="stroke:#181818;stroke-width:1;" x1="1579.5891" x2="1579.5891" y1="636.7139" y2="641.7139"/><line style="stroke:#181818;stroke-width:1;" x1="1579.5891" x2="1174.7712" y1="641.7139" y2="641.7139"/><line style="stroke:#181818;stroke-width:1;" x1="1174.7712" x2="1174.7712" y1="641.7139" y2="656.7139"/><polygon fill="#181818" points="1170.7712,646.7139,1174.7712,656.7139,1178.7712,646.7139,1174.7712,650.7139" style="stroke:#181818;stroke-width:1;stroke-linejoin:miter;stroke-miterlimit:10;"/><line style="stroke:#181818;stroke-width:1;" x1="1174.7712" x2="1174.7712" y1="690.6826" y2="695.6826"/><line style="stroke:#181818;stroke-width:1;" x1="1174.7712" x2="549.7363" y1="695.6826" y2="695.6826"/><line style="stroke:#181818;stroke-width:1;" x1="549.7363" x2="549.7363" y1="695.6826" y2="710.6826"/><polygon fill="#181818" points="545.7363,700.6826,549.7363,710.6826,553.7363,700.6826,549.7363,704.6826" style="stroke:#181818;stroke-width:1;stroke-linejoin:miter;stroke-miterlimit:10;"/><line style="stroke:#181818;stroke-width:1;" x1="549.7363" x2="549.7363" y1="744.6514" y2="749.6514"/><line style="stroke:#181818;stroke-width:1;" x1="549.7363" x2="36" y1="749.6514" y2="749.6514"/><line style="stroke:#181818;stroke-width:1;" x1="36" x2="36" y1="749.6514" y2="764.6514"/><polygon fill="#181818" points="32,754.6514,36,764.6514,40,754.6514,36,758.6514" style="stroke:#181818;stroke-width:1;stroke-linejoin:miter;stroke-miterlimit:10;"/><line style="stroke:#181818;stroke-width:1;" x1="1809.6965" x2="1821.6965" y1="570.7451" y2="570.7451"/><line style="stroke:#181818;stroke-width:1;" x1="1821.6965" x2="1821.6965" y1="570.7451" y2="588.7451"/><line style="stroke:#181818;stroke-width:1;" x1="1821.6965" x2="311.0928" y1="588.7451" y2="588.7451"/><line style="stroke:#181818;stroke-width:1;" x1="311.0928" x2="311.0928" y1="588.7451" y2="602.7451"/><polygon fill="#181818" points="307.0928,592.7451,311.0928,602.7451,315.0928,592.7451,311.0928,596.7451" style="stroke:#181818;stroke-width:1;stroke-linejoin:miter;stroke-miterlimit:10;"/><line style="stroke:#181818;stroke-width:1;" x1="311.0928" x2="311.0928" y1="636.7139" y2="791.6514"/><line style="stroke:#181818;stroke-width:1;" x1="311.0928" x2="1312.3176" y1="791.6514" y2="791.6514"/><line style="stroke:#181818;stroke-width:1;" x1="1312.3176" x2="1312.3176" y1="791.6514" y2="806.6514"/><polygon fill="#181818" points="1308.3176,796.6514,1312.3176,806.6514,1316.3176,796.6514,1312.3176,800.6514" style="stroke:#181818;stroke-width:1;stroke-linejoin:miter;stroke-miterlimit:10;"/><line style="stroke:#181818;stroke-width:1;" x1="1312.3176" x2="1312.3176" y1="538.7451" y2="543.7451"/><line style="stroke:#181818;stroke-width:1;" x1="1312.3176" x2="1717.1355" y1="543.7451" y2="543.7451"/><line style="stroke:#181818;stroke-width:1;" x1="1717.1355" x2="1717.1355" y1="543.7451" y2="558.7451"/><polygon fill="#181818" points="1713.1355,548.7451,1717.1355,558.7451,1721.1355,548.7451,1717.1355,552.7451" style="stroke:#181818;stroke-width:1;stroke-linejoin:miter;stroke-miterlimit:10;"/><line style="stroke:#181818;stroke-width:1;" x1="1911.571" x2="1911.571" y1="952.5576" y2="957.5576"/><line style="stroke:#181818;stroke-width:1;" x1="1911.571" x2="1190.1082" y1="957.5576" y2="957.5576"/><line style="stroke:#181818;stroke-width:1;" x1="1190.1082" x2="1190.1082" y1="957.5576" y2="972.5576"/><polygon fill="#181818" points="1186.1082,962.5576,1190.1082,972.5576,1194.1082,962.5576,1190.1082,966.5576" style="stroke:#181818;stroke-width:1;stroke-linejoin:miter;stroke-miterlimit:10;"/><line style="stroke:#181818;stroke-width:1;" x1="1190.1082" x2="1190.1082" y1="1006.5264" y2="1011.5264"/><line style="stroke:#181818;stroke-width:1;" x1="1190.1082" x2="565.0732" y1="1011.5264" y2="1011.5264"/><line style="stroke:#181818;stroke-width:1;" x1="565.0732" x2="565.0732" y1="1011.5264" y2="1026.5264"/><polygon fill="#181818" points="561.0732,1016.5264,565.0732,1026.5264,569.0732,1016.5264,565.0732,1020.5264" style="stroke:#181818;stroke-width:1;stroke-linejoin:miter;stroke-miterlimit:10;"/><line style="stroke:#181818;stroke-width:1;" x1="565.0732" x2="565.0732" y1="1060.4951" y2="1065.4951"/><line style="stroke:#181818;stroke-width:1;" x1="565.0732" x2="51.3369" y1="1065.4951" y2="1065.4951"/><line style="stroke:#181818;stroke-width:1;" x1="51.3369" x2="51.3369" y1="1065.4951" y2="1080.4951"/><polygon fill="#181818" points="47.3369,1070.4951,51.3369,1080.4951,55.3369,1070.4951,51.3369,1074.4951" style="stroke:#181818;stroke-width:1;stroke-linejoin:miter;stroke-miterlimit:10;"/><line style="stroke:#181818;stroke-width:1;" x1="2128.02" x2="2140.02" y1="886.5889" y2="886.5889"/><line style="stroke:#181818;stroke-width:1;" x1="2140.02" x2="2140.02" y1="886.5889" y2="904.5889"/><line style="stroke:#181818;stroke-width:1;" x1="2140.02" x2="295.7559" y1="904.5889" y2="904.5889"/><line style="stroke:#181818;stroke-width:1;" x1="295.7559" x2="295.7559" y1="904.5889" y2="918.5889"/><polygon fill="#181818" points="291.7559,908.5889,295.7559,918.5889,299.7559,908.5889,295.7559,912.5889" style="stroke:#181818;stroke-width:1;stroke-linejoin:miter;stroke-miterlimit:10;"/><line style="stroke:#181818;stroke-width:1;" x1="295.7559" x2="295.7559" y1="952.5576" y2="1107.4951"/><line style="stroke:#181818;stroke-width:1;" x1="295.7559" x2="1312.3176" y1="1107.4951" y2="1107.4951"/><line style="stroke:#181818;stroke-width:1;" x1="1312.3176" x2="1312.3176" y1="1107.4951" y2="1122.4951"/><polygon fill="#181818" points="1308.3176,1112.4951,1312.3176,1122.4951,1316.3176,1112.4951,1312.3176,1116.4951" style="stroke:#181818;stroke-width:1;stroke-linejoin:miter;stroke-miterlimit:10;"/><line style="stroke:#181818;stroke-width:1;" x1="1312.3176" x2="1312.3176" y1="854.5889" y2="859.5889"/><line style="stroke:#181818;stroke-width:1;" x1="1312.3176" x2="2033.7805" y1="859.5889" y2="859.5889"/><line style="stroke:#181818;stroke-width:1;" x1="2033.7805" x2="2033.7805" y1="859.5889" y2="874.5889"/><polygon fill="#181818" points="2029.7805,864.5889,2033.7805,874.5889,2037.7805,864.5889,2033.7805,868.5889" style="stroke:#181818;stroke-width:1;stroke-linejoin:miter;stroke-miterlimit:10;"/><line style="stroke:#181818;stroke-width:1;" x1="1312.3176" x2="1312.3176" y1="1258.835" y2="1263.835"/><line style="stroke:#181818;stroke-width:1;" x1="1312.3176" x2="687.2827" y1="1263.835" y2="1263.835"/><line style="stroke:#181818;stroke-width:1;" x1="687.2827" x2="687.2827" y1="1263.835" y2="1278.835"/><polygon fill="#181818" points="683.2827,1268.835,687.2827,1278.835,691.2827,1268.835,687.2827,1272.835" style="stroke:#181818;stroke-width:1;stroke-linejoin:miter;stroke-miterlimit:10;"/><line style="stroke:#181818;stroke-width:1;" x1="687.2827" x2="687.2827" y1="1312.8037" y2="1317.8037"/><line style="stroke:#181818;stroke-width:1;" x1="687.2827" x2="173.5464" y1="1317.8037" y2="1317.8037"/><line style="stroke:#181818;stroke-width:1;" x1="173.5464" x2="173.5464" y1="1317.8037" y2="1332.8037"/><polygon fill="#181818" points="169.5464,1322.8037,173.5464,1332.8037,177.5464,1322.8037,173.5464,1326.8037" style="stroke:#181818;stroke-width:1;stroke-linejoin:miter;stroke-miterlimit:10;"/><line style="stroke:#181818;stroke-width:1;" x1="2245.9346" x2="2245.9346" y1="1542.71" y2="1547.71"/><line style="stroke:#181818;stroke-width:1;" x1="2245.9346" x2="1189.9104" y1="1547.71" y2="1547.71"/><line style="stroke:#181818;stroke-width:1;" x1="1189.9104" x2="1189.9104" y1="1547.71" y2="1562.71"/><polygon fill="#181818" points="1185.9104,1552.71,1189.9104,1562.71,1193.9104,1552.71,1189.9104,1556.71" style="stroke:#181818;stroke-width:1;stroke-linejoin:miter;stroke-miterlimit:10;"/><line style="stroke:#181818;stroke-width:1;" x1="1189.9104" x2="1189.9104" y1="1596.6787" y2="1601.6787"/><line style="stroke:#181818;stroke-width:1;" x1="1189.9104" x2="564.8755" y1="1601.6787" y2="1601.6787"/><line style="stroke:#181818;stroke-width:1;" x1="564.8755" x2="564.8755" y1="1601.6787" y2="1616.6787"/><polygon fill="#181818" points="560.8755,1606.6787,564.8755,1616.6787,568.8755,1606.6787,564.8755,1610.6787" style="stroke:#181818;stroke-width:1;stroke-linejoin:miter;stroke-miterlimit:10;"/><line style="stroke:#181818;stroke-width:1;" x1="564.8755" x2="564.8755" y1="1650.6475" y2="1655.6475"/><line style="stroke:#181818;stroke-width:1;" x1="564.8755" x2="51.1392" y1="1655.6475" y2="1655.6475"/><line style="stroke:#181818;stroke-width:1;" x1="51.1392" x2="51.1392" y1="1655.6475" y2="1670.6475"/><polygon fill="#181818" points="47.1392,1660.6475,51.1392,1670.6475,55.1392,1660.6475,51.1392,1664.6475" style="stroke:#181818;stroke-width:1;stroke-linejoin:miter;stroke-miterlimit:10;"/><line style="stroke:#181818;stroke-width:1;" x1="2442.1873" x2="2454.1873" y1="1476.7412" y2="1476.7412"/><line style="stroke:#181818;stroke-width:1;" x1="2454.1873" x2="2454.1873" y1="1476.7412" y2="1494.7412"/><line style="stroke:#181818;stroke-width:1;" x1="2454.1873" x2="295.9536" y1="1494.7412" y2="1494.7412"/><line style="stroke:#181818;stroke-width:1;" x1="295.9536" x2="295.9536" y1="1494.7412" y2="1508.7412"/><polygon fill="#181818" points="291.9536,1498.7412,295.9536,1508.7412,299.9536,1498.7412,295.9536,1502.7412" style="stroke:#181818;stroke-width:1;stroke-linejoin:miter;stroke-miterlimit:10;"/><line style="stroke:#181818;stroke-width:1;" x1="295.9536" x2="295.9536" y1="1542.71" y2="1697.6475"/><line style="stroke:#181818;stroke-width:1;" x1="295.9536" x2="1312.3176" y1="1697.6475" y2="1697.6475"/><line style="stroke:#181818;stroke-width:1;" x1="1312.3176" x2="1312.3176" y1="1697.6475" y2="1712.6475"/><polygon fill="#181818" points="1308.3176,1702.6475,1312.3176,1712.6475,1316.3176,1702.6475,1312.3176,1706.6475" style="stroke:#181818;stroke-width:1;stroke-linejoin:miter;stroke-miterlimit:10;"/><line style="stroke:#181818;stroke-width:1;" x1="1312.3176" x2="1312.3176" y1="1746.6162" y2="1751.6162"/><line style="stroke:#181818;stroke-width:1;" x1="1312.3176" x2="687.2827" y1="1751.6162" y2="1751.6162"/><line style="stroke:#181818;stroke-width:1;" x1="687.2827" x2="687.2827" y1="1751.6162" y2="1766.6162"/><polygon fill="#181818" points="683.2827,1756.6162,687.2827,1766.6162,691.2827,1756.6162,687.2827,1760.6162" style="stroke:#181818;stroke-width:1;stroke-linejoin:miter;stroke-miterlimit:10;"/><line style="stroke:#181818;stroke-width:1;" x1="687.2827" x2="687.2827" y1="1814.5537" y2="1819.5537"/><line style="stroke:#181818;stroke-width:1;" x1="687.2827" x2="173.5464" y1="1819.5537" y2="1819.5537"/><line style="stroke:#181818;stroke-width:1;" x1="173.5464" x2="173.5464" y1="1819.5537" y2="1834.5537"/><polygon fill="#181818" points="169.5464,1824.5537,173.5464,1834.5537,177.5464,1824.5537,173.5464,1828.5537" style="stroke:#181818;stroke-width:1;stroke-linejoin:miter;stroke-miterlimit:10;"/><text fill="#000000" font-family="sans-serif" font-size="18" lengthAdjust="spacing" textLength="221.5195" x="121.2725" y="71.75">Customer Care Operator</text><text fill="#000000" font-family="sans-serif" font-size="18" lengthAdjust="spacing" textLength="158.9063" x="545.7102" y="71.75">React operator UI</text><text fill="#000000" font-family="sans-serif" font-size="18" lengthAdjust="spacing" textLength="213.9697" x="817.4713" y="71.75">Security / HTTP adapter</text><text fill="#000000" font-family="sans-serif" font-size="18" lengthAdjust="spacing" textLength="179.1738" x="1162.7041" y="71.75">Analysis application</text><text fill="#000000" font-family="sans-serif" font-size="18" lengthAdjust="spacing" textLength="128.584" x="1583.5264" y="71.75">Policy adapter</text><text fill="#000000" font-family="sans-serif" font-size="18" lengthAdjust="spacing" textLength="130.21" x="1927.7616" y="71.75">Model adapter</text><text fill="#000000" font-family="sans-serif" font-size="18" lengthAdjust="spacing" textLength="140.2031" x="2246.292" y="71.75">History adapter</text><?plantuml-src fLLDJzj04BtxLupK2wX477f0WaEL1X2ee4O1UkAoUCVEDkjTTtVjO3ML-YFw2_abdLr_4eWIA5nYxxmtRzwCPvrm4k5Sf8L1E8AdFt_XxleAnh4JfN0LSC5Imx9ma1fTA8uSc6AoiiB2Kfj58lKoiWkXSkO3fL3egXmXrxBo3uCprhB-YW2-i7XHCqwqr0O-d1_vVt-Y3KVJlFqK_gBVKRIQ5DRf30rC68dzbgDXJfjLP1qpBZgUuSy2hUlL9OItA35sf3bkm2T4D4DI0heXWBlBLNHyKpnama5kjAi17OsfUJtm1kF2-08EuUBsTWgCizmXIH09x8qBDqVbHCm8_daV_1FiARrF9P6u7qHBE8DS6FfvGczV4qAnfyBcabN0UaAXLT11K1wGcxm0eFTvXD8Yx5LeG_AnSooUTr6NH86AYuGg6hTLiZoNJIPouqgptZA8jNBuwAWYwbSwlrTjzdPCfjfGGLIaCm9B9AaIIwOSB9HUIkGfzjYffZpLr_QWXaQh-lLpHsSj3PQ2eueHMCc4P0yIN_hh2gC07tqLr4UbHnt8e2raRVZhvH9-Of3Q1aBP8ac8WNmVrTCfL0gwS37LkqFFXWJG4RozPKqzjIjdRILBuUP-H4jKZ9wtjl5IbNg1q9vUQuxI6nw8xjMB1dzSI-WR4q3F-tBsID-1Jt7ejL0eVMT572Dokw4lMI19g7cqPtRgHDV9zZiSDUWtDAFV18F4xsc3TQQ8wPVV8umivwHmg_dVcGo1dVspC8V1RCFy1l1UXgXXWdfQrtrSTwMioIdJEtmHAi17_-bFM_-5e1Cp-7QFfsY8rfUQvH9TLrM_1LfF6coz1RmV3JIC-vQXoWUXEutMgQQzGAea4nafSeok9mxpMi8ElcrA-9wHIb7vCCg_PiKPJKUrTRWQbjxW5vVpfejkHimarGYx05glA0yW4M5BsODxHLUJpZ8A2Oaeg-BF5ixcMvY8Iu7BWQHUYRVX7m00?></g></svg>