<svg xmlns="http://www.w3.org/2000/svg" xmlns:xlink="http://www.w3.org/1999/xlink" contentStyleType="text/css" data-diagram-type="DESCRIPTION" height="1141px" preserveAspectRatio="none" style="width:1537px;height:1141px;background:#FFFFFF;" version="1.1" viewBox="0 0 1537 1141" width="1537px" zoomAndPan="magnify"><?plantuml 1.2026.6?><defs/><g><g class="title" data-source-line="1"><text fill="#000000" font-family="sans-serif" font-size="14" font-weight="700" lengthAdjust="spacing" textLength="620.3887" x="454.9807" y="22.9951">Figure 3 &#8212; UML Component diagram &#8212; application components and interfaces</text></g><!--cluster Web client--><g class="cluster" data-qualified-name="Web client" data-source-line="12" id="ent0003"><rect fill="none" height="119.89" rx="2.5" ry="2.5" style="stroke:#181818;stroke-width:1;" width="196" x="1214.35" y="175.3969"/><text fill="#000000" font-family="sans-serif" font-size="14" font-weight="700" lengthAdjust="spacing" textLength="83.8838" x="1270.4081" y="190.392">Web client</text></g><!--cluster Backend--><g class="cluster" data-qualified-name="Backend" data-source-line="16" id="ent0005"><rect fill="none" height="472.88" rx="2.5" ry="2.5" style="stroke:#181818;stroke-width:1;" width="566" x="628.35" y="352.2869"/><text fill="#000000" font-family="sans-serif" font-size="14" font-weight="700" lengthAdjust="spacing" textLength="238.4102" x="792.1449" y="367.282">Spring Boot modular monolith</text></g><!--cluster Adapters--><g class="cluster" data-qualified-name="Adapters" data-source-line="38" id="ent0022"><rect fill="none" height="119.89" rx="2.5" ry="2.5" style="stroke:#181818;stroke-width:1;" width="1297" x="226.35" y="866.1669"/><text fill="#000000" font-family="sans-serif" font-size="14" font-weight="700" lengthAdjust="spacing" textLength="171.3359" x="789.182" y="881.162">Replaceable adapters</text></g><!--entity UI--><g class="entity" data-qualified-name="Web client.UI" data-source-line="13" id="ent0004"><rect fill="#F1F1F1" height="68.8906" rx="2.5" ry="2.5" style="stroke:#181818;stroke-width:0.5;" width="163.3154" x="1230.7" y="210.3969"/><text fill="#000000" font-family="sans-serif" font-size="14" lengthAdjust="spacing" textLength="143.3154" x="1240.7" y="233.392">Operator Dashboard</text><text fill="#000000" font-family="sans-serif" font-size="14" lengthAdjust="spacing" textLength="81.498" x="1240.7" y="249.6889">CMP-UI-001</text><text fill="#000000" font-family="sans-serif" font-size="14" lengthAdjust="spacing" textLength="128.666" x="1240.7" y="265.9857">React / TypeScript</text></g><!--entity Auth--><g class="entity" data-qualified-name="Backend.Auth" data-source-line="17" id="ent0006"><rect fill="#F1F1F1" height="52.5938" rx="2.5" ry="2.5" style="stroke:#181818;stroke-width:0.5;" width="198.9922" x="865.86" y="395.2869"/><text fill="#000000" font-family="sans-serif" font-size="14" lengthAdjust="spacing" textLength="178.9922" x="875.86" y="418.282">Spring Security Boundary</text><text fill="#000000" font-family="sans-serif" font-size="14" lengthAdjust="spacing" textLength="162.0869" x="875.86" y="434.5789">ADP-AUTH-SPRING-001</text></g><!--entity Http--><g class="entity" data-qualified-name="Backend.Http" data-source-line="18" id="ent0007"><rect fill="#F1F1F1" height="52.5938" rx="2.5" ry="2.5" style="stroke:#181818;stroke-width:0.5;" width="121.6982" x="964.5" y="514.9869"/><text fill="#000000" font-family="sans-serif" font-size="14" lengthAdjust="spacing" textLength="96.3115" x="974.5" y="537.982">HTTP Adapter</text><text fill="#000000" font-family="sans-serif" font-size="14" lengthAdjust="spacing" textLength="101.6982" x="974.5" y="554.2789">ADP-HTTP-001</text></g><!--entity Identity--><g class="entity" data-qualified-name="Backend.Identity" data-source-line="20" id="ent0008"><rect fill="#F1F1F1" height="52.5938" rx="2.5" ry="2.5" style="stroke:#181818;stroke-width:0.5;" width="154.7158" x="856" y="591.9769"/><text fill="#000000" font-family="sans-serif" font-size="14" lengthAdjust="spacing" textLength="109.0127" x="866" y="614.972">Identity Module</text><text fill="#000000" font-family="sans-serif" font-size="14" lengthAdjust="spacing" textLength="134.7158" x="866" y="631.2689">MOD-IDENTITY-001</text></g><!--entity Customer--><g class="entity" data-qualified-name="Backend.Customer" data-source-line="21" id="ent0009"><rect fill="#F1F1F1" height="52.5938" rx="2.5" ry="2.5" style="stroke:#181818;stroke-width:0.5;" width="169.8369" x="848.43" y="667.5769"/><text fill="#000000" font-family="sans-serif" font-size="14" lengthAdjust="spacing" textLength="123.3613" x="858.43" y="690.572">Customer Module</text><text fill="#000000" font-family="sans-serif" font-size="14" lengthAdjust="spacing" textLength="149.8369" x="858.43" y="706.8689">MOD-CUSTOMER-001</text></g><!--entity Risk--><g class="entity" data-qualified-name="Backend.Risk" data-source-line="22" id="ent0010"><rect fill="#F1F1F1" height="52.5938" rx="2.5" ry="2.5" style="stroke:#181818;stroke-width:0.5;" width="122.6279" x="1048.04" y="667.5769"/><text fill="#000000" font-family="sans-serif" font-size="14" lengthAdjust="spacing" textLength="84.376" x="1058.04" y="690.572">Risk Module</text><text fill="#000000" font-family="sans-serif" font-size="14" lengthAdjust="spacing" textLength="102.6279" x="1058.04" y="706.8689">MOD-RISK-001</text></g><!--entity Analysis--><g class="entity" data-qualified-name="Backend.Analysis" data-source-line="23" id="ent0011"><rect fill="#F1F1F1" height="52.5938" rx="2.5" ry="2.5" style="stroke:#181818;stroke-width:0.5;" width="158.585" x="660.06" y="667.5769"/><text fill="#000000" font-family="sans-serif" font-size="14" lengthAdjust="spacing" textLength="113.0391" x="670.06" y="690.572">Analysis Module</text><text fill="#000000" font-family="sans-serif" font-size="14" lengthAdjust="spacing" textLength="138.585" x="670.06" y="706.8689">MOD-ANALYSIS-001</text></g><!--entity ActivityPort--><g class="entity" data-qualified-name="Backend.ActivityPort" data-source-line="25" id="ent0012"><ellipse cx="987.35" cy="792.1669" fill="#F1F1F1" rx="8" ry="8" style="stroke:#181818;stroke-width:0.5;"/><text fill="#000000" font-family="sans-serif" font-size="14" lengthAdjust="spacing" textLength="148.8594" x="912.9203" y="822.162">CustomerActivityPort</text><text fill="#000000" font-family="sans-serif" font-size="14" lengthAdjust="spacing" textLength="126.3896" x="912.9203" y="838.4589">PRT-ACTIVITY-001</text></g><!--entity PolicyPort--><g class="entity" data-qualified-name="Backend.PolicyPort" data-source-line="26" id="ent0013"><ellipse cx="899.35" cy="792.1669" fill="#F1F1F1" rx="8" ry="8" style="stroke:#181818;stroke-width:0.5;"/><text fill="#000000" font-family="sans-serif" font-size="14" lengthAdjust="spacing" textLength="145.9814" x="826.3593" y="822.162">PolicyKnowledgePort</text><text fill="#000000" font-family="sans-serif" font-size="14" lengthAdjust="spacing" textLength="113.2646" x="826.3593" y="838.4589">PRT-POLICY-001</text></g><!--entity ModelPort--><g class="entity" data-qualified-name="Backend.ModelPort" data-source-line="27" id="ent0014"><ellipse cx="676.35" cy="792.1669" fill="#F1F1F1" rx="8" ry="8" style="stroke:#181818;stroke-width:0.5;"/><text fill="#000000" font-family="sans-serif" font-size="14" lengthAdjust="spacing" textLength="127.9688" x="612.3656" y="822.162">AnalysisModelPort</text><text fill="#000000" font-family="sans-serif" font-size="14" lengthAdjust="spacing" textLength="114.0713" x="612.3656" y="838.4589">PRT-MODEL-001</text></g><!--entity HistoryPort--><g class="entity" data-qualified-name="Backend.HistoryPort" data-source-line="28" id="ent0015"><ellipse cx="724.35" cy="792.1669" fill="#F1F1F1" rx="8" ry="8" style="stroke:#181818;stroke-width:0.5;"/><text fill="#000000" font-family="sans-serif" font-size="14" lengthAdjust="spacing" textLength="135.7412" x="656.4794" y="822.162">AnalysisHistoryPort</text><text fill="#000000" font-family="sans-serif" font-size="14" lengthAdjust="spacing" textLength="124.9404" x="656.4794" y="838.4589">PRT-HISTORY-001</text></g><!--entity ActivitySynthetic--><g class="entity" data-qualified-name="Adapters.ActivitySynthetic" data-source-line="39" id="ent0023"><rect fill="#F1F1F1" height="68.8906" rx="2.5" ry="2.5" style="stroke:#181818;stroke-width:0.5;" width="146.4922" x="1190.11" y="901.1669"/><text fill="#000000" font-family="sans-serif" font-size="14" lengthAdjust="spacing" textLength="123.1494" x="1200.11" y="924.162">Synthetic Activity</text><text fill="#000000" font-family="sans-serif" font-size="14" lengthAdjust="spacing" textLength="126.4922" x="1200.11" y="940.4589">ADP-ACT-SYN-001</text><text fill="#000000" font-family="sans-serif" font-size="14" lengthAdjust="spacing" textLength="41.9863" x="1200.11" y="956.7557">R0/R1</text></g><!--entity ActivityJpa--><g class="entity" data-qualified-name="Adapters.ActivityJpa" data-source-line="40" id="ent0024"><rect fill="#F1F1F1" height="68.8906" rx="2.5" ry="2.5" style="stroke:#181818;stroke-width:0.5;" width="140.7295" x="1366.99" y="901.1669"/><text fill="#000000" font-family="sans-serif" font-size="14" lengthAdjust="spacing" textLength="79.2012" x="1376.99" y="924.162">JPA Activity</text><text fill="#000000" font-family="sans-serif" font-size="14" lengthAdjust="spacing" textLength="120.7295" x="1376.99" y="940.4589">ADP-ACT-JPA-001</text><text fill="#000000" font-family="sans-serif" font-size="14" lengthAdjust="spacing" textLength="18.6348" x="1376.99" y="956.7557">R2</text></g><!--entity PolicyStatic--><g class="entity" data-qualified-name="Adapters.PolicyStatic" data-source-line="41" id="ent0025"><rect fill="#F1F1F1" height="68.8906" rx="2.5" ry="2.5" style="stroke:#181818;stroke-width:0.5;" width="167.4102" x="815.65" y="901.1669"/><text fill="#000000" font-family="sans-serif" font-size="14" lengthAdjust="spacing" textLength="85.251" x="825.65" y="924.162">Static Policy</text><text fill="#000000" font-family="sans-serif" font-size="14" lengthAdjust="spacing" textLength="147.4102" x="825.65" y="940.4589">ADP-POL-STATIC-001</text><text fill="#000000" font-family="sans-serif" font-size="14" lengthAdjust="spacing" textLength="18.6348" x="825.65" y="956.7557">R0</text></g><!--entity PolicyPg--><g class="entity" data-qualified-name="Adapters.PolicyPg" data-source-line="42" id="ent0026"><rect fill="#F1F1F1" height="68.8906" rx="2.5" ry="2.5" style="stroke:#181818;stroke-width:0.5;" width="146.8066" x="1012.95" y="901.1669"/><text fill="#000000" font-family="sans-serif" font-size="14" lengthAdjust="spacing" textLength="107.3994" x="1022.95" y="924.162">pgvector Policy</text><text fill="#000000" font-family="sans-serif" font-size="14" lengthAdjust="spacing" textLength="126.8066" x="1022.95" y="940.4589">ADP-POL-PGV-001</text><text fill="#000000" font-family="sans-serif" font-size="14" lengthAdjust="spacing" textLength="18.6348" x="1022.95" y="956.7557">R4</text></g><!--entity ModelDet--><g class="entity" data-qualified-name="Adapters.ModelDet" data-source-line="43" id="ent0027"><rect fill="#F1F1F1" height="68.8906" rx="2.5" ry="2.5" style="stroke:#181818;stroke-width:0.5;" width="169.3789" x="242.66" y="901.1669"/><text fill="#000000" font-family="sans-serif" font-size="14" lengthAdjust="spacing" textLength="140.3965" x="252.66" y="924.162">Deterministic Model</text><text fill="#000000" font-family="sans-serif" font-size="14" lengthAdjust="spacing" textLength="149.3789" x="252.66" y="940.4589">ADP-MODEL-DET-001</text><text fill="#000000" font-family="sans-serif" font-size="14" lengthAdjust="spacing" textLength="41.9863" x="252.66" y="956.7557">R0/R3</text></g><!--entity ModelAi--><g class="entity" data-qualified-name="Adapters.ModelAi" data-source-line="44" id="ent0028"><rect fill="#F1F1F1" height="68.8906" rx="2.5" ry="2.5" style="stroke:#181818;stroke-width:0.5;" width="154.9072" x="441.9" y="901.1669"/><text fill="#000000" font-family="sans-serif" font-size="14" lengthAdjust="spacing" textLength="109.8193" x="451.9" y="924.162">Spring AI Model</text><text fill="#000000" font-family="sans-serif" font-size="14" lengthAdjust="spacing" textLength="134.9072" x="451.9" y="940.4589">ADP-MODEL-AI-001</text><text fill="#000000" font-family="sans-serif" font-size="14" lengthAdjust="spacing" textLength="79.8232" x="451.9" y="956.7557">R4 optional</text></g><!--entity HistoryJpa--><g class="entity" data-qualified-name="Adapters.HistoryJpa" data-source-line="45" id="ent0029"><rect fill="#F1F1F1" height="68.8906" rx="2.5" ry="2.5" style="stroke:#181818;stroke-width:0.5;" width="158.5371" x="627.08" y="901.1669"/><text fill="#000000" font-family="sans-serif" font-size="14" lengthAdjust="spacing" textLength="138.5371" x="637.08" y="924.162">JPA Analysis History</text><text fill="#000000" font-family="sans-serif" font-size="14" lengthAdjust="spacing" textLength="124.9199" x="637.08" y="940.4589">ADP-HIST-JPA-001</text><text fill="#000000" font-family="sans-serif" font-size="14" lengthAdjust="spacing" textLength="18.6348" x="637.08" y="956.7557">R3</text></g><!--entity Operator--><g class="entity" data-qualified-name="Operator" data-source-line="9" id="ent0001"><ellipse cx="1312.3489" cy="51.2969" fill="#F1F1F1" rx="8" ry="8" style="stroke:#181818;stroke-width:0.5;"/><path d="M1312.3489,59.2969 L1312.3489,86.2969 M1299.3489,67.2969 L1325.3489,67.2969 M1312.3489,86.2969 L1299.3489,101.2969 M1312.3489,86.2969 L1325.3489,101.2969" fill="none" style="stroke:#181818;stroke-width:0.5;"/><text fill="#000000" font-family="sans-serif" font-size="14" lengthAdjust="spacing" textLength="105.1777" x="1259.76" y="115.792">Customer Care</text><text fill="#000000" font-family="sans-serif" font-size="14" lengthAdjust="spacing" textLength="62.665" x="1259.76" y="132.0889">Operator</text></g><!--entity WebApi--><g class="entity" data-qualified-name="WebApi" data-source-line="10" id="ent0002"><ellipse cx="1312.35" cy="421.5869" fill="#F1F1F1" rx="8" ry="8" style="stroke:#181818;stroke-width:0.5;"/><text fill="#000000" font-family="sans-serif" font-size="14" lengthAdjust="spacing" textLength="173.8994" x="1225.4003" y="451.582">Protected HTTP/JSON API</text></g><!--entity Db--><g class="entity" data-qualified-name="Db" data-source-line="54" id="ent0035"><rect fill="#F1F1F1" height="85.1875" rx="2.5" ry="2.5" style="stroke:#181818;stroke-width:0.5;" width="183.5635" x="994.57" y="1042.0569"/><text fill="#000000" font-family="sans-serif" font-size="14" font-style="italic" lengthAdjust="spacing" textLength="82.1885" x="1045.2575" y="1065.052">&#171;database&#187;</text><text fill="#000000" font-family="sans-serif" font-size="14" lengthAdjust="spacing" textLength="163.5635" x="1004.57" y="1081.3489">PostgreSQL + pgvector</text><text fill="#000000" font-family="sans-serif" font-size="14" lengthAdjust="spacing" textLength="79.8643" x="1004.57" y="1097.6457">INF-DB-001</text><text fill="#000000" font-family="sans-serif" font-size="14" lengthAdjust="spacing" textLength="30.3652" x="1004.57" y="1113.9426">R2+</text></g><!--entity Provider--><g class="entity" data-qualified-name="Provider" data-source-line="55" id="ent0036"><rect fill="#F1F1F1" height="52.5938" rx="2.5" ry="2.5" style="stroke:#181818;stroke-width:0.5;" width="159.5762" x="439.57" y="1058.3569"/><text fill="#000000" font-family="sans-serif" font-size="14" font-style="italic" lengthAdjust="spacing" textLength="75.3799" x="481.6681" y="1081.352">&#171;external&#187;</text><text fill="#000000" font-family="sans-serif" font-size="14" lengthAdjust="spacing" textLength="139.5762" x="449.57" y="1097.6489">External AI provider</text></g><g class="entity" data-qualified-name="GMN62" data-source-line="87" id="ent0063"><path d="M6,513.5869 L6,568.9853 L604.7065,568.9853 L604.7065,523.5869 L594.7065,513.5869 L6,513.5869" fill="#FEFFDD" style="stroke:#181818;stroke-width:0.5;"/><path d="M594.7065,513.5869 L594.7065,523.5869 L604.7065,523.5869 L594.7065,513.5869" fill="#FEFFDD" style="stroke:#181818;stroke-width:1;"/><text fill="#000000" font-family="sans-serif" font-size="13" lengthAdjust="spacing" textLength="577.7065" x="12" y="530.6538">UML Component diagram: components and provided/required interfaces show structural</text><text fill="#000000" font-family="sans-serif" font-size="13" lengthAdjust="spacing" textLength="536.6182" x="12" y="545.7866">dependencies. Transport is annotated only where a relationship crosses a runtime</text><text fill="#000000" font-family="sans-serif" font-size="13" lengthAdjust="spacing" textLength="368.6655" x="12" y="560.9194">boundary; the internal application seams are in-process.</text></g><!--link Identity to Customer--><!--link Customer to Risk--><!--link Risk to Analysis--><!--link ActivityPort to PolicyPort--><!--link PolicyPort to ModelPort--><!--link ModelPort to HistoryPort--><!--link ActivitySynthetic to ActivityJpa--><!--link ActivityJpa to PolicyStatic--><!--link PolicyStatic to PolicyPg--><!--link ModelDet to ModelAi--><!--link ModelAi to HistoryJpa--><!--link Operator to UI--><g class="link" data-entity-1="ent0001" data-entity-2="ent0004" data-link-type="dependency" data-source-line="57" id="lnk37"><path d="M1312.35,135.8069 C1312.35,159.7069 1312.35,183.4469 1312.35,205.2669" fill="none" id="Operator-to-UI" style="stroke:#181818;stroke-width:1;"/><polygon fill="#181818" points="1312.35,210.2669,1316.35,201.2669,1312.35,205.2669,1308.35,201.2669,1312.35,210.2669" style="stroke:#181818;stroke-width:1;stroke-linejoin:miter;stroke-miterlimit:10;"/></g><!--link UI to WebApi--><g class="link" data-entity-1="ent0004" data-entity-2="ent0002" data-link-type="dependency" data-source-line="58" id="lnk38"><path d="M1312.35,279.5369 C1312.35,321.1869 1312.35,384.4169 1312.35,407.5869" fill="none" id="UI-to-WebApi" style="stroke:#181818;stroke-width:1;"/><polygon fill="#181818" points="1312.35,412.5869,1316.35,403.5869,1312.35,407.5869,1308.35,403.5869,1312.35,412.5869" style="stroke:#181818;stroke-width:1;stroke-linejoin:miter;stroke-miterlimit:10;"/><text fill="#000000" font-family="sans-serif" font-size="13" lengthAdjust="spacing" textLength="69.9194" x="1313.35" y="324.3538">HTTP/JSON</text></g><!--link WebApi to Http--><g class="link" data-entity-1="ent0002" data-entity-2="ent0007" data-link-type="dependency" data-source-line="59" id="lnk39"><path d="M1303.45,426.2369 C1271.14,439.4869 1162.8362,483.9 1091.2062,513.27" fill="none" id="WebApi-to-Http" style="stroke:#181818;stroke-width:1;"/><polygon fill="#181818" points="1086.58,515.1669,1096.4247,515.4535,1091.2062,513.27,1093.3897,508.0515,1086.58,515.1669" style="stroke:#181818;stroke-width:1;stroke-linejoin:miter;stroke-miterlimit:10;"/><text fill="#000000" font-family="sans-serif" font-size="13" lengthAdjust="spacing" textLength="77.4351" x="1187.04" y="486.6538">provided by</text></g><!--link Auth to Http--><g class="link" data-entity-1="ent0006" data-entity-2="ent0007" data-link-type="dependency" data-source-line="60" id="lnk40"><path d="M978.37,448.1169 C988.44,467.8669 1000.0288,490.6125 1010.0888,510.3425" fill="none" id="Auth-to-Http" style="stroke:#181818;stroke-width:1;"/><polygon fill="#181818" points="1012.36,514.7969,1011.8353,504.962,1010.0888,510.3425,1004.7083,508.596,1012.36,514.7969" style="stroke:#181818;stroke-width:1;stroke-linejoin:miter;stroke-miterlimit:10;"/><text fill="#000000" font-family="sans-serif" font-size="13" lengthAdjust="spacing" textLength="109.2686" x="999.95" y="486.6538">operator context</text></g><!--link Auth to Identity--><g class="link" data-entity-1="ent0006" data-entity-2="ent0008" data-link-type="dependency" data-source-line="61" id="lnk41"><path d="M960.9,447.9269 C956.16,474.8569 949.35,513.5869 949.35,513.5869 C949.35,513.5869 942.8127,555.9954 938.0727,586.7054" fill="none" id="Auth-to-Identity" style="stroke:#181818;stroke-width:1;"/><polygon fill="#181818" points="937.31,591.6469,942.6361,583.3624,938.0727,586.7054,934.7297,582.142,937.31,591.6469" style="stroke:#181818;stroke-width:1;stroke-linejoin:miter;stroke-miterlimit:10;"/></g><!--link Http to Customer--><g class="link" data-entity-1="ent0007" data-entity-2="ent0009" data-link-type="dependency" data-source-line="62" id="lnk42"><path d="M1024.1,567.8269 C1022.62,598.1269 1020.35,644.5769 1020.35,644.5769 C1020.35,644.5769 1004.8016,653.2101 984.0316,664.7401" fill="none" id="Http-to-Customer" style="stroke:#181818;stroke-width:1;"/><polygon fill="#181818" points="979.66,667.1669,989.4703,666.2959,984.0316,664.7401,985.5874,659.3014,979.66,667.1669" style="stroke:#181818;stroke-width:1;stroke-linejoin:miter;stroke-miterlimit:10;"/></g><!--link Http to Risk--><g class="link" data-entity-1="ent0007" data-entity-2="ent0010" data-link-type="dependency" data-source-line="63" id="lnk43"><path d="M1039.6,567.8269 C1055.05,595.5169 1077.1247,635.09 1092.5947,662.83" fill="none" id="Http-to-Risk" style="stroke:#181818;stroke-width:1;"/><polygon fill="#181818" points="1095.03,667.1969,1094.1399,657.3883,1092.5947,662.83,1087.153,661.2848,1095.03,667.1969" style="stroke:#181818;stroke-width:1;stroke-linejoin:miter;stroke-miterlimit:10;"/></g><!--link Http to Analysis--><g class="link" data-entity-1="ent0007" data-entity-2="ent0011" data-link-type="dependency" data-source-line="64" id="lnk44"><path d="M1022.11,567.8269 C1018.26,598.1269 1012.35,644.5769 1012.35,644.5769 C1012.35,644.5769 833.35,667.5769 833.35,667.5769 C833.35,667.5769 832.4881,667.807 823.9081,670.117" fill="none" id="Http-to-Analysis" style="stroke:#181818;stroke-width:1;"/><polygon fill="#181818" points="819.08,671.4169,828.8104,672.9396,823.9081,670.117,826.7306,665.2147,819.08,671.4169" style="stroke:#181818;stroke-width:1;stroke-linejoin:miter;stroke-miterlimit:10;"/></g><!--link Customer to ActivityPort--><g class="link" data-entity-1="ent0009" data-entity-2="ent0012" data-link-type="dependency" data-source-line="66" id="lnk45"><path d="M947.68,720.4269 C959.31,741.1569 972.5356,764.7451 980.2356,778.4851" fill="none" id="Customer-to-ActivityPort" style="stroke:#181818;stroke-width:1;"/><polygon fill="#181818" points="982.68,782.8469,981.7696,773.0402,980.2356,778.4851,974.7907,776.9512,982.68,782.8469" style="stroke:#181818;stroke-width:1;stroke-linejoin:miter;stroke-miterlimit:10;"/></g><!--link Risk to ActivityPort--><g class="link" data-entity-1="ent0010" data-entity-2="ent0012" data-link-type="dependency" data-source-line="67" id="lnk46"><path d="M1076.98,720.4269 C1050.15,741.5969 1017.705,767.2094 1000.725,780.6094" fill="none" id="Risk-to-ActivityPort" style="stroke:#181818;stroke-width:1;"/><polygon fill="#181818" points="996.8,783.7069,1006.343,781.2714,1000.725,780.6094,1001.387,774.9914,996.8,783.7069" style="stroke:#181818;stroke-width:1;stroke-linejoin:miter;stroke-miterlimit:10;"/></g><!--link Analysis to ActivityPort--><g class="link" data-entity-1="ent0011" data-entity-2="ent0012" data-link-type="dependency" data-source-line="68" id="lnk47"><path d="M778.59,720.4869 C806.6,738.7869 839.35,760.1669 839.35,760.1669 C839.35,760.1669 940.7959,781.4231 973.2059,788.2031" fill="none" id="Analysis-to-ActivityPort" style="stroke:#181818;stroke-width:1;"/><polygon fill="#181818" points="978.1,789.2269,970.1097,783.4688,973.2059,788.2031,968.4716,791.2993,978.1,789.2269" style="stroke:#181818;stroke-width:1;stroke-linejoin:miter;stroke-miterlimit:10;"/><text fill="#000000" font-family="sans-serif" font-size="13" lengthAdjust="spacing" textLength="114.5752" x="840.35" y="756.2338">customer context</text></g><!--link Analysis to PolicyPort--><g class="link" data-entity-1="ent0011" data-entity-2="ent0013" data-link-type="dependency" data-source-line="69" id="lnk48"><path d="M760,720.3069 C774.88,738.6369 792.35,760.1669 792.35,760.1669 C792.35,760.1669 858.8676,779.4351 885.0576,787.0251" fill="none" id="Analysis-to-PolicyPort" style="stroke:#181818;stroke-width:1;"/><polygon fill="#181818" points="889.86,788.4169,882.3291,782.0698,885.0576,787.0251,880.1023,789.7536,889.86,788.4169" style="stroke:#181818;stroke-width:1;stroke-linejoin:miter;stroke-miterlimit:10;"/></g><!--link Analysis to ModelPort--><g class="link" data-entity-1="ent0011" data-entity-2="ent0014" data-link-type="dependency" data-source-line="70" id="lnk49"><path d="M722.64,720.4269 C709.08,741.1569 693.5276,764.9229 684.5376,778.6629" fill="none" id="Analysis-to-ModelPort" style="stroke:#181818;stroke-width:1;"/><polygon fill="#181818" points="681.8,782.8469,690.0748,777.5057,684.5376,778.6629,683.3804,773.1256,681.8,782.8469" style="stroke:#181818;stroke-width:1;stroke-linejoin:miter;stroke-miterlimit:10;"/></g><!--link Analysis to HistoryPort--><g class="link" data-entity-1="ent0011" data-entity-2="ent0015" data-link-type="dependency" data-source-line="71" id="lnk50"><path d="M735.37,720.4269 C732.14,741.1569 728.5595,764.1664 726.4195,777.9064" fill="none" id="Analysis-to-HistoryPort" style="stroke:#181818;stroke-width:1;"/><polygon fill="#181818" points="725.65,782.8469,730.9874,774.5697,726.4195,777.9064,723.0827,773.3385,725.65,782.8469" style="stroke:#181818;stroke-width:1;stroke-linejoin:miter;stroke-miterlimit:10;"/></g><!--link ActivityPort to ActivitySynthetic--><g class="link" data-entity-1="ent0012" data-entity-2="ent0023" data-link-type="dependency" data-source-line="73" id="lnk51"><path d="M996.63,796.3969 C1034.36,809.5069 1174.35,858.1669 1174.35,858.1669 C1174.35,858.1669 1196.4265,877.1296 1220.2665,897.5996" fill="none" id="ActivityPort-to-ActivitySynthetic" style="stroke:#181818;stroke-width:1;"/><polygon fill="#181818" points="1224.06,900.8569,1219.8375,891.9591,1220.2665,897.5996,1214.626,898.0286,1224.06,900.8569" style="stroke:#181818;stroke-width:1;stroke-linejoin:miter;stroke-miterlimit:10;"/></g><!--link ActivityPort to ActivityJpa--><g class="link" data-entity-1="ent0012" data-entity-2="ent0024" data-link-type="dependency" data-source-line="74" id="lnk52"><path d="M996.72,794.8369 C1053.69,805.0169 1351.35,858.1669 1351.35,858.1669 C1351.35,858.1669 1372.6021,877.066 1395.6421,897.536" fill="none" id="ActivityPort-to-ActivityJpa" style="stroke:#181818;stroke-width:1;stroke-dasharray:7,7;"/><polygon fill="#181818" points="1399.38,900.8569,1395.3086,891.889,1395.6421,897.536,1389.9951,897.8695,1399.38,900.8569" style="stroke:#181818;stroke-width:1;stroke-linejoin:miter;stroke-miterlimit:10;"/></g><!--link PolicyPort to PolicyStatic--><g class="link" data-entity-1="ent0013" data-entity-2="ent0025" data-link-type="dependency" data-source-line="75" id="lnk53"><path d="M899.35,801.5969 C899.35,820.6869 899.35,863.1269 899.35,895.8569" fill="none" id="PolicyPort-to-PolicyStatic" style="stroke:#181818;stroke-width:1;"/><polygon fill="#181818" points="899.35,900.8569,903.35,891.8569,899.35,895.8569,895.35,891.8569,899.35,900.8569" style="stroke:#181818;stroke-width:1;stroke-linejoin:miter;stroke-miterlimit:10;"/></g><!--link PolicyPort to PolicyPg--><g class="link" data-entity-1="ent0013" data-entity-2="ent0026" data-link-type="dependency" data-source-line="76" id="lnk54"><path d="M908.8,800.2469 C926.6,813.6069 963.35,841.1669 963.35,841.1669 C963.35,841.1669 998.35,858.1669 998.35,858.1669 C998.35,858.1669 1020.1549,877.1083 1043.7249,897.5783" fill="none" id="PolicyPort-to-PolicyPg" style="stroke:#181818;stroke-width:1;stroke-dasharray:7,7;"/><polygon fill="#181818" points="1047.5,900.8569,1043.3277,891.9354,1043.7249,897.5783,1038.082,897.9755,1047.5,900.8569" style="stroke:#181818;stroke-width:1;stroke-linejoin:miter;stroke-miterlimit:10;"/></g><!--link ModelPort to ModelDet--><g class="link" data-entity-1="ent0014" data-entity-2="ent0027" data-link-type="dependency" data-source-line="77" id="lnk55"><path d="M666.9,795.6369 C621.41,807.5069 427.35,858.1669 427.35,858.1669 C427.35,858.1669 402.2624,877.3505 375.4824,897.8205" fill="none" id="ModelPort-to-ModelDet" style="stroke:#181818;stroke-width:1;"/><polygon fill="#181818" points="371.51,900.8569,381.0895,898.5692,375.4824,897.8205,376.2312,892.2134,371.51,900.8569" style="stroke:#181818;stroke-width:1;stroke-linejoin:miter;stroke-miterlimit:10;"/></g><!--link ModelPort to ModelAi--><g class="link" data-entity-1="ent0014" data-entity-2="ent0028" data-link-type="dependency" data-source-line="78" id="lnk56"><path d="M667,801.5969 C645.81,820.6869 596.8753,864.7807 560.5353,897.5107" fill="none" id="ModelPort-to-ModelAi" style="stroke:#181818;stroke-width:1;stroke-dasharray:7,7;"/><polygon fill="#181818" points="556.82,900.8569,566.1844,897.806,560.5353,897.5107,560.8305,891.8616,556.82,900.8569" style="stroke:#181818;stroke-width:1;stroke-linejoin:miter;stroke-miterlimit:10;"/></g><!--link HistoryPort to HistoryJpa--><g class="link" data-entity-1="ent0015" data-entity-2="ent0029" data-link-type="dependency" data-source-line="79" id="lnk57"><path d="M723.28,801.5969 C720.85,820.6869 715.4404,863.1668 711.2804,895.8968" fill="none" id="HistoryPort-to-HistoryJpa" style="stroke:#181818;stroke-width:1;stroke-dasharray:7,7;"/><polygon fill="#181818" points="710.65,900.8569,715.7529,892.433,711.2804,895.8968,707.8167,891.4244,710.65,900.8569" style="stroke:#181818;stroke-width:1;stroke-linejoin:miter;stroke-miterlimit:10;"/></g><!--link ActivityJpa to Db--><g class="link" data-entity-1="ent0024" data-entity-2="ent0035" data-link-type="dependency" data-source-line="81" id="lnk58"><path d="M1386.83,970.3669 C1368.11,982.8669 1351.35,994.0569 1351.35,994.0569 C1351.35,994.0569 1259.5668,1025.0959 1183.0268,1050.9659" fill="none" id="ActivityJpa-to-Db" style="stroke:#181818;stroke-width:1;"/><polygon fill="#181818" points="1178.29,1052.5669,1188.0969,1053.4745,1183.0268,1050.9659,1185.5354,1045.8957,1178.29,1052.5669" style="stroke:#181818;stroke-width:1;stroke-linejoin:miter;stroke-miterlimit:10;"/><text fill="#000000" font-family="sans-serif" font-size="13" lengthAdjust="spacing" textLength="31.8398" x="1324.79" y="1015.1238">JDBC</text></g><!--link PolicyPg to Db--><g class="link" data-entity-1="ent0026" data-entity-2="ent0035" data-link-type="dependency" data-source-line="82" id="lnk59"><path d="M1086.35,970.3469 C1086.35,991.5469 1086.35,1014.0569 1086.35,1036.6569" fill="none" id="PolicyPg-to-Db" style="stroke:#181818;stroke-width:1;"/><polygon fill="#181818" points="1086.35,1041.6569,1090.35,1032.6569,1086.35,1036.6569,1082.35,1032.6569,1086.35,1041.6569" style="stroke:#181818;stroke-width:1;stroke-linejoin:miter;stroke-miterlimit:10;"/><text fill="#000000" font-family="sans-serif" font-size="13" lengthAdjust="spacing" textLength="102.2227" x="1087.35" y="1015.1238">JDBC / pgvector</text></g><!--link HistoryJpa to Db--><g class="link" data-entity-1="ent0029" data-entity-2="ent0035" data-link-type="dependency" data-source-line="83" id="lnk60"><path d="M761.85,970.5269 C782.2,982.9669 800.35,994.0569 800.35,994.0569 C800.35,994.0569 905.9088,1027.1218 989.5188,1053.3218" fill="none" id="HistoryJpa-to-Db" style="stroke:#181818;stroke-width:1;"/><polygon fill="#181818" points="994.29,1054.8169,986.8979,1048.3087,989.5188,1053.3218,984.5057,1055.9427,994.29,1054.8169" style="stroke:#181818;stroke-width:1;stroke-linejoin:miter;stroke-miterlimit:10;"/><text fill="#000000" font-family="sans-serif" font-size="13" lengthAdjust="spacing" textLength="31.8398" x="878.06" y="1015.1238">JDBC</text></g><!--link ModelAi to Provider--><g class="link" data-entity-1="ent0028" data-entity-2="ent0036" data-link-type="dependency" data-source-line="84" id="lnk61"><path d="M519.35,970.3469 C519.35,996.9669 519.35,1028.5569 519.35,1052.8669" fill="none" id="ModelAi-to-Provider" style="stroke:#181818;stroke-width:1;stroke-dasharray:7,7;"/><polygon fill="#181818" points="519.35,1057.8669,523.35,1048.8669,519.35,1052.8669,515.35,1048.8669,519.35,1057.8669" style="stroke:#181818;stroke-width:1;stroke-linejoin:miter;stroke-miterlimit:10;"/><text fill="#000000" font-family="sans-serif" font-size="13" lengthAdjust="spacing" textLength="41.7485" x="520.35" y="1015.1238">HTTPS</text></g><!--link Backend to GMN62--><g class="link" data-entity-1="ent0005" data-entity-2="ent0063" data-link-type="association" data-source-line="87" id="lnk64"><path d="M628.3029,425.4466 C623.5507,427.1363 616.8448,429.5206 608.5939,432.4544 C592.0922,438.3219 569.4106,446.3869 543.8188,455.4869 C492.635,473.6869 429.81,496.0269 381.5,513.2069" fill="none" id="Backend-GMN62" style="stroke:#181818;stroke-width:1;stroke-dasharray:7,7;"/></g><?plantuml-src TLRDRkCs4BxhAGQ-BfIaJNf95m4KExjHDd5KIzuYg7kW9QvCH2PPYaxMM1JeG_G9-oGTIY95sib9ud3cu_ny78vckg7mYTKxHU4S_lldNrW-tCDKRANWb6ke6AaLsNOxHCg6bKGpmQ6q6YqGNW7ZcgflfAHjf8K4BM0jj1PRj5UqD1PH-you90RBsUPwZwSR1SBhXdegafJFfARlApICKxsN5AHezcRXxN5HqPPAE3_pX8hmPoEy-2MAIAc5WibqrwABLC6KABhYZv8gWXiJ82tOHUGYWqccX4PNQ0MtHP6TtkMFSqYojDF_dQuJoQ9eS1mcA82oOHZb17v4C0OD4uiDCz9kreAeQiMd3rcyJEEpivzMV47HGJY50kFBIyMaxevOfj7VtW6vL8pNS2s4XgseTWrH-EMYONhJwL-Z9iNQ79m-sEMqt2cczmYmunLH-nLFPbcSB8lRECyMwVopSQO3IdPw4sAO-26fYCJSz7P6uWnkjPPHQ95M-377FHXNCTiFZxCudTtCYxHuSePMAxHrTV9jfykyU7ouMJXRgnNQBbZx7DWjqloBip6xeNx2IRDlMHlO9FFa_YbFyp4ZWvO9qYE8TI51nhzW69bGUiMpHH4dqoBzwaVgguGW6LQmt7_XuhMXLKr7ZEpnFfsE2BtUiRtr3GEWpMYDSTpSEsEt-RRjBSD0bEV_ROhPNeo7Umec1wwwyHyRLk7YJyNgZOwl_AguCXuf3MNeQdMqwN8DGTAE5OE4Z8jZHJzuzt-iviVeNxm5bGrcYwonDP7-3hHzJOV5qOtRSxsXcfKkWE6kJOiuVveFb_xiT15Imvc5Q7TPyWOEIWUSdmEGEqaEdD74UDBdfxT7OiLvaHJfrBhY4QpN3p5a_KAx5dg8adt-Ea1S-1ojG_CPnInj6SVyeYTT1Ng8dgEpcs9CoVb8LpHxivCbwJ56Oblf1GXfdX_IZ409UoEZzjuFLH-w6jBUI-svptsJMO-JOv6F6HpKmbkzns6NSt_vBk5hIsDCq3jaxo8U_jubkd4FUUub9XEjhXNDVxk73s2BlkBf_5CykxPq-z0bPRQ6ZnyheicQjFJgoaUv-OxbnlIQGaabNbX5-pSs6nPeIGSTj8pSynYZR_ZeBTFkhtzXuN9yVAD1P7RDauDx0tu5wtradYr_JrZSKc37-wv71VViT9gntxQSfEjHRZK-06DNyohTzOo-dHrA7T4ETz33qc8v3trbhxy5yh6T1UAWHOUTqpjvR3A1oib9I5k_dHxIrDipPewLNckrNfehF8gDjgMdvsqdzozPS6CG2hbs2NUpwwazkWx5E3fPiaOZpe6flGsTovQ8FRdoAE8uwTaHLdopenHUeZUduyl3STZIy5JHltOu0Vi3ChGRyGgjLhjIxnHf4BIY4j4fBnbjJw30KRML9X7CeA4hnCoSWZTxUDrG7DG9ZiHDDuUt6oQXLA9j4HZ5E-JnbYBaUfZgVWKiRt-wkOB-2DzIiaKZPRPZz1XzQqyYCp6QwFy7?></g></svg>