<svg xmlns="http://www.w3.org/2000/svg" xmlns:xlink="http://www.w3.org/1999/xlink" contentStyleType="text/css" data-diagram-type="DESCRIPTION" height="790px" preserveAspectRatio="none" style="width:1799px;height:790px;background:#FFFFFF;" version="1.1" viewBox="0 0 1799 790" width="1799px" zoomAndPan="magnify"><?plantuml 1.2026.6?><defs/><g><!--cluster Web client--><g class="cluster" data-qualified-name="Web client" data-source-line="9" id="ent0003"><rect fill="none" height="119" rx="2.5" ry="2.5" style="stroke:#181818;stroke-width:1;" width="195.31" x="589.2" y="657.7"/><text fill="#000000" font-family="sans-serif" font-size="14" font-weight="700" lengthAdjust="spacing" textLength="83.8838" x="644.9131" y="672.6951">Web client</text></g><!--cluster Backend--><g class="cluster" data-qualified-name="Backend" data-source-line="13" id="ent0005"><rect fill="none" height="540" rx="2.5" ry="2.5" style="stroke:#181818;stroke-width:1;" width="1112.41" x="152.1" y="85.7"/><text fill="#000000" font-family="sans-serif" font-size="14" font-weight="700" lengthAdjust="spacing" textLength="238.4102" x="589.0999" y="100.6951">Spring Boot modular monolith</text></g><!--cluster customer--><g class="cluster" data-qualified-name="Backend.customer" data-source-line="17" id="ent0008"><rect fill="none" height="103" rx="2.5" ry="2.5" style="stroke:#181818;stroke-width:1;" width="201.84" x="821.59" y="490.7"/><text fill="#000000" font-family="sans-serif" font-size="14" font-weight="700" lengthAdjust="spacing" textLength="73.8965" x="885.5618" y="505.6951">customer</text></g><!--cluster risk--><g class="cluster" data-qualified-name="Backend.risk" data-source-line="20" id="ent0010"><rect fill="none" height="103" rx="2.5" ry="2.5" style="stroke:#181818;stroke-width:1;" width="154.63" x="845.2" y="363.7"/><text fill="#000000" font-family="sans-serif" font-size="14" font-weight="700" lengthAdjust="spacing" textLength="29.3467" x="907.8417" y="378.6951">risk</text></g><!--cluster analysis--><g class="cluster" data-qualified-name="Backend.analysis" data-source-line="23" id="ent0012"><rect fill="none" height="103" rx="2.5" ry="2.5" style="stroke:#181818;stroke-width:1;" width="190.59" x="827.22" y="236.7"/><text fill="#000000" font-family="sans-serif" font-size="14" font-weight="700" lengthAdjust="spacing" textLength="64.251" x="890.3895" y="251.6951">analysis</text></g><!--cluster identity--><g class="cluster" data-qualified-name="Backend.identity" data-source-line="26" id="ent0014"><rect fill="none" height="103" rx="2.5" ry="2.5" style="stroke:#181818;stroke-width:1;" width="186.71" x="593.5" y="339.7"/><text fill="#000000" font-family="sans-serif" font-size="14" font-weight="700" lengthAdjust="spacing" textLength="61.5918" x="656.0591" y="354.6951">identity</text></g><!--cluster Replaceable adapters--><g class="cluster" data-qualified-name="Replaceable adapters" data-source-line="36" id="ent0020"><rect fill="none" height="743" rx="2.5" ry="2.5" style="stroke:#181818;stroke-width:1;" width="249.99" x="1296.51" y="29.7"/><text fill="#000000" font-family="sans-serif" font-size="14" font-weight="700" lengthAdjust="spacing" textLength="171.3359" x="1335.837" y="44.6951">Replaceable adapters</text></g><!--entity UI--><g class="entity" data-qualified-name="Web client.UI" data-source-line="10" id="ent0004"><rect fill="#F1F1F1" height="68.8906" rx="2.5" ry="2.5" style="stroke:#181818;stroke-width:0.5;" width="163.3154" x="605.2" y="692.25"/><text fill="#000000" font-family="sans-serif" font-size="14" lengthAdjust="spacing" textLength="143.3154" x="615.2" y="715.2451">Operator Dashboard</text><text fill="#000000" font-family="sans-serif" font-size="14" lengthAdjust="spacing" textLength="81.498" x="615.2" y="731.542">CMP-UI-001</text><text fill="#000000" font-family="sans-serif" font-size="14" lengthAdjust="spacing" textLength="128.666" x="615.2" y="747.8389">React / TypeScript</text></g><!--entity Http--><g class="entity" data-qualified-name="Backend.Http" data-source-line="14" id="ent0006"><rect fill="#F1F1F1" height="52.5938" rx="2.5" ry="2.5" style="stroke:#181818;stroke-width:0.5;" width="121.6982" x="626.01" y="462.4"/><text fill="#000000" font-family="sans-serif" font-size="14" lengthAdjust="spacing" textLength="96.3115" x="636.01" y="485.3951">HTTP Adapter</text><text fill="#000000" font-family="sans-serif" font-size="14" lengthAdjust="spacing" textLength="101.6982" x="636.01" y="501.692">ADP-HTTP-001</text></g><!--entity Auth--><g class="entity" data-qualified-name="Backend.Auth" data-source-line="15" id="ent0007"><rect fill="#F1F1F1" height="52.5938" rx="2.5" ry="2.5" style="stroke:#181818;stroke-width:0.5;" width="198.9922" x="176.1" y="418.4"/><text fill="#000000" font-family="sans-serif" font-size="14" lengthAdjust="spacing" textLength="178.9922" x="186.1" y="441.3951">Spring Security Boundary</text><text fill="#000000" font-family="sans-serif" font-size="14" lengthAdjust="spacing" textLength="162.0869" x="186.1" y="457.692">ADP-AUTH-SPRING-001</text></g><!--entity ActivityPort--><g class="entity" data-qualified-name="Backend.ActivityPort" data-source-line="30" id="ent0016"><ellipse cx="1158.51" cy="556.7" fill="#F1F1F1" rx="8" ry="8" style="stroke:#181818;stroke-width:0.5;"/><text fill="#000000" font-family="sans-serif" font-size="14" lengthAdjust="spacing" textLength="148.8594" x="1084.0803" y="586.6951">CustomerActivityPort</text><text fill="#000000" font-family="sans-serif" font-size="14" lengthAdjust="spacing" textLength="126.3896" x="1084.0803" y="602.992">PRT-ACTIVITY-001</text></g><!--entity ModelPort--><g class="entity" data-qualified-name="Backend.ModelPort" data-source-line="31" id="ent0017"><ellipse cx="1158.51" cy="431.7" fill="#F1F1F1" rx="8" ry="8" style="stroke:#181818;stroke-width:0.5;"/><text fill="#000000" font-family="sans-serif" font-size="14" lengthAdjust="spacing" textLength="127.9688" x="1094.5256" y="461.6951">AnalysisModelPort</text><text fill="#000000" font-family="sans-serif" font-size="14" lengthAdjust="spacing" textLength="114.0713" x="1094.5256" y="477.992">PRT-MODEL-001</text></g><!--entity PolicyPort--><g class="entity" data-qualified-name="Backend.PolicyPort" data-source-line="32" id="ent0018"><ellipse cx="1158.51" cy="306.7" fill="#F1F1F1" rx="8" ry="8" style="stroke:#181818;stroke-width:0.5;"/><text fill="#000000" font-family="sans-serif" font-size="14" lengthAdjust="spacing" textLength="145.9814" x="1085.5193" y="336.6951">PolicyKnowledgePort</text><text fill="#000000" font-family="sans-serif" font-size="14" lengthAdjust="spacing" textLength="113.2646" x="1085.5193" y="352.992">PRT-POLICY-001</text></g><!--entity HistoryPort--><g class="entity" data-qualified-name="Backend.HistoryPort" data-source-line="33" id="ent0019"><ellipse cx="1158.51" cy="181.7" fill="#F1F1F1" rx="8" ry="8" style="stroke:#181818;stroke-width:0.5;"/><text fill="#000000" font-family="sans-serif" font-size="14" lengthAdjust="spacing" textLength="135.7412" x="1090.6394" y="211.6951">AnalysisHistoryPort</text><text fill="#000000" font-family="sans-serif" font-size="14" lengthAdjust="spacing" textLength="124.9404" x="1090.6394" y="227.992">PRT-HISTORY-001</text></g><!--entity Customer--><g class="entity" data-qualified-name="Backend.customer.Customer" data-source-line="18" id="ent0009"><rect fill="#F1F1F1" height="52.5938" rx="2.5" ry="2.5" style="stroke:#181818;stroke-width:0.5;" width="169.8369" x="837.59" y="525.4"/><text fill="#000000" font-family="sans-serif" font-size="14" lengthAdjust="spacing" textLength="123.3613" x="847.59" y="548.3951">Customer Module</text><text fill="#000000" font-family="sans-serif" font-size="14" lengthAdjust="spacing" textLength="149.8369" x="847.59" y="564.692">MOD-CUSTOMER-001</text></g><!--entity Risk--><g class="entity" data-qualified-name="Backend.risk.Risk" data-source-line="21" id="ent0011"><rect fill="#F1F1F1" height="52.5938" rx="2.5" ry="2.5" style="stroke:#181818;stroke-width:0.5;" width="122.6279" x="861.2" y="398.4"/><text fill="#000000" font-family="sans-serif" font-size="14" lengthAdjust="spacing" textLength="84.376" x="871.2" y="421.3951">Risk Module</text><text fill="#000000" font-family="sans-serif" font-size="14" lengthAdjust="spacing" textLength="102.6279" x="871.2" y="437.692">MOD-RISK-001</text></g><!--entity Analysis--><g class="entity" data-qualified-name="Backend.analysis.Analysis" data-source-line="24" id="ent0013"><rect fill="#F1F1F1" height="52.5938" rx="2.5" ry="2.5" style="stroke:#181818;stroke-width:0.5;" width="158.585" x="843.22" y="271.4"/><text fill="#000000" font-family="sans-serif" font-size="14" lengthAdjust="spacing" textLength="113.0391" x="853.22" y="294.3951">Analysis Module</text><text fill="#000000" font-family="sans-serif" font-size="14" lengthAdjust="spacing" textLength="138.585" x="853.22" y="310.692">MOD-ANALYSIS-001</text></g><!--entity Identity--><g class="entity" data-qualified-name="Backend.identity.Identity" data-source-line="27" id="ent0015"><rect fill="#F1F1F1" height="52.5938" rx="2.5" ry="2.5" style="stroke:#181818;stroke-width:0.5;" width="154.7158" x="609.5" y="374.4"/><text fill="#000000" font-family="sans-serif" font-size="14" lengthAdjust="spacing" textLength="109.0127" x="619.5" y="397.3951">Identity Module</text><text fill="#000000" font-family="sans-serif" font-size="14" lengthAdjust="spacing" textLength="134.7158" x="619.5" y="413.692">MOD-IDENTITY-001</text></g><!--entity ActivitySynthetic--><g class="entity" data-qualified-name="Replaceable adapters.ActivitySynthetic" data-source-line="37" id="ent0021"><rect fill="#F1F1F1" height="68.8906" rx="2.5" ry="2.5" style="stroke:#181818;stroke-width:0.5;" width="194.4873" x="1324.26" y="688.25"/><text fill="#000000" font-family="sans-serif" font-size="14" lengthAdjust="spacing" textLength="174.4873" x="1334.26" y="711.2451">SyntheticActivityAdapter</text><text fill="#000000" font-family="sans-serif" font-size="14" lengthAdjust="spacing" textLength="126.4922" x="1334.26" y="727.542">ADP-ACT-SYN-001</text><text fill="#000000" font-family="sans-serif" font-size="14" lengthAdjust="spacing" textLength="41.9863" x="1334.26" y="743.8389">R0/R1</text></g><!--entity ActivityJpa--><g class="entity" data-qualified-name="Replaceable adapters.ActivityJpa" data-source-line="38" id="ent0022"><rect fill="#F1F1F1" height="68.8906" rx="2.5" ry="2.5" style="stroke:#181818;stroke-width:0.5;" width="217.9893" x="1312.51" y="584.25"/><text fill="#000000" font-family="sans-serif" font-size="14" lengthAdjust="spacing" textLength="197.9893" x="1322.51" y="607.2451">JpaCustomerActivityAdapter</text><text fill="#000000" font-family="sans-serif" font-size="14" lengthAdjust="spacing" textLength="120.7295" x="1322.51" y="623.542">ADP-ACT-JPA-001</text><text fill="#000000" font-family="sans-serif" font-size="14" lengthAdjust="spacing" textLength="18.6348" x="1322.51" y="639.8389">R2</text></g><!--entity ModelDet--><g class="entity" data-qualified-name="Replaceable adapters.ModelDet" data-source-line="39" id="ent0023"><rect fill="#F1F1F1" height="68.8906" rx="2.5" ry="2.5" style="stroke:#181818;stroke-width:0.5;" width="203.7295" x="1319.64" y="480.25"/><text fill="#000000" font-family="sans-serif" font-size="14" lengthAdjust="spacing" textLength="183.7295" x="1329.64" y="503.2451">DeterministicAnalysisStub</text><text fill="#000000" font-family="sans-serif" font-size="14" lengthAdjust="spacing" textLength="149.3789" x="1329.64" y="519.542">ADP-MODEL-DET-001</text><text fill="#000000" font-family="sans-serif" font-size="14" lengthAdjust="spacing" textLength="151.2725" x="1329.64" y="535.8389">R0 boundary / R3 use</text></g><!--entity ModelAi--><g class="entity" data-qualified-name="Replaceable adapters.ModelAi" data-source-line="40" id="ent0024"><rect fill="#F1F1F1" height="68.8906" rx="2.5" ry="2.5" style="stroke:#181818;stroke-width:0.5;" width="192.1152" x="1325.45" y="376.25"/><text fill="#000000" font-family="sans-serif" font-size="14" lengthAdjust="spacing" textLength="172.1152" x="1335.45" y="399.2451">SpringAiAnalysisAdapter</text><text fill="#000000" font-family="sans-serif" font-size="14" lengthAdjust="spacing" textLength="134.9072" x="1335.45" y="415.542">ADP-MODEL-AI-001</text><text fill="#000000" font-family="sans-serif" font-size="14" lengthAdjust="spacing" textLength="79.8232" x="1335.45" y="431.8389">R4 optional</text></g><!--entity PolicyStatic--><g class="entity" data-qualified-name="Replaceable adapters.PolicyStatic" data-source-line="41" id="ent0025"><rect fill="#F1F1F1" height="68.8906" rx="2.5" ry="2.5" style="stroke:#181818;stroke-width:0.5;" width="167.4102" x="1337.8" y="272.25"/><text fill="#000000" font-family="sans-serif" font-size="14" lengthAdjust="spacing" textLength="136.5889" x="1347.8" y="295.2451">StaticPolicyAdapter</text><text fill="#000000" font-family="sans-serif" font-size="14" lengthAdjust="spacing" textLength="147.4102" x="1347.8" y="311.542">ADP-POL-STATIC-001</text><text fill="#000000" font-family="sans-serif" font-size="14" lengthAdjust="spacing" textLength="89.79" x="1347.8" y="327.8389">R0 boundary</text></g><!--entity PolicyPg--><g class="entity" data-qualified-name="Replaceable adapters.PolicyPg" data-source-line="42" id="ent0026"><rect fill="#F1F1F1" height="68.8906" rx="2.5" ry="2.5" style="stroke:#181818;stroke-width:0.5;" width="179.585" x="1331.71" y="168.25"/><text fill="#000000" font-family="sans-serif" font-size="14" lengthAdjust="spacing" textLength="159.585" x="1341.71" y="191.2451">PgVectorPolicyAdapter</text><text fill="#000000" font-family="sans-serif" font-size="14" lengthAdjust="spacing" textLength="126.8066" x="1341.71" y="207.542">ADP-POL-PGV-001</text><text fill="#000000" font-family="sans-serif" font-size="14" lengthAdjust="spacing" textLength="18.6348" x="1341.71" y="223.8389">R4</text></g><!--entity HistoryJpa--><g class="entity" data-qualified-name="Replaceable adapters.HistoryJpa" data-source-line="43" id="ent0027"><rect fill="#F1F1F1" height="68.8906" rx="2.5" ry="2.5" style="stroke:#181818;stroke-width:0.5;" width="204.8711" x="1319.07" y="64.25"/><text fill="#000000" font-family="sans-serif" font-size="14" lengthAdjust="spacing" textLength="184.8711" x="1329.07" y="87.2451">JpaAnalysisHistoryAdapter</text><text fill="#000000" font-family="sans-serif" font-size="14" lengthAdjust="spacing" textLength="124.9199" x="1329.07" y="103.542">ADP-HIST-JPA-001</text><text fill="#000000" font-family="sans-serif" font-size="14" lengthAdjust="spacing" textLength="18.6348" x="1329.07" y="119.8389">R3</text></g><!--entity Operator--><g class="entity" data-qualified-name="Operator" data-source-line="6" id="ent0001"><ellipse cx="275.5965" cy="697.05" fill="#F1F1F1" rx="8" ry="8" style="stroke:#181818;stroke-width:0.5;"/><path d="M275.5965,705.05 L275.5965,732.05 M262.5965,713.05 L288.5965,713.05 M275.5965,732.05 L262.5965,747.05 M275.5965,732.05 L288.5965,747.05" fill="none" style="stroke:#181818;stroke-width:0.5;"/><text fill="#000000" font-family="sans-serif" font-size="14" lengthAdjust="spacing" textLength="172.293" x="189.45" y="761.5451">Customer Care Operator</text></g><!--entity WebApi--><g class="entity" data-qualified-name="WebApi" data-source-line="7" id="ent0002"><ellipse cx="922.51" cy="702.7" fill="#F1F1F1" rx="8" ry="8" style="stroke:#181818;stroke-width:0.5;"/><text fill="#000000" font-family="sans-serif" font-size="14" lengthAdjust="spacing" textLength="173.8994" x="835.5603" y="732.6951">Protected HTTP/JSON API</text></g><!--entity Db--><g class="entity" data-qualified-name="Db" data-source-line="46" id="ent0028"><path d="M1590.5,173.75 C1590.5,163.75 1682.2817,163.75 1682.2817,163.75 C1682.2817,163.75 1774.0635,163.75 1774.0635,173.75 L1774.0635,231.6406 C1774.0635,241.6406 1682.2817,241.6406 1682.2817,241.6406 C1682.2817,241.6406 1590.5,241.6406 1590.5,231.6406 L1590.5,173.75" fill="#F1F1F1" style="stroke:#181818;stroke-width:0.5;"/><path d="M1590.5,173.75 C1590.5,183.75 1682.2817,183.75 1682.2817,183.75 C1682.2817,183.75 1774.0635,183.75 1774.0635,173.75" fill="none" style="stroke:#181818;stroke-width:0.5;"/><text fill="#000000" font-family="sans-serif" font-size="14" lengthAdjust="spacing" textLength="163.5635" x="1600.5" y="200.7451">PostgreSQL + pgvector</text><text fill="#000000" font-family="sans-serif" font-size="14" lengthAdjust="spacing" textLength="79.8643" x="1600.5" y="217.042">INF-DB-001</text><text fill="#000000" font-family="sans-serif" font-size="14" lengthAdjust="spacing" textLength="30.3652" x="1600.5" y="233.3389">R2+</text></g><g class="entity" data-qualified-name="GMN53" data-source-line="76" id="ent0054"><path d="M6,6 L6,61.3984 L545.1973,61.3984 L545.1973,16 L535.1973,6 L6,6" fill="#FEFFDD" style="stroke:#181818;stroke-width:0.5;"/><path d="M535.1973,6 L535.1973,16 L545.1973,16 L535.1973,6" fill="#FEFFDD" style="stroke:#181818;stroke-width:1;"/><text fill="#000000" font-family="sans-serif" font-size="13" lengthAdjust="spacing" textLength="393.104" x="12" y="23.0669">Project-owned ports make required/provided seams explicit.</text><text fill="#000000" font-family="sans-serif" font-size="13" lengthAdjust="spacing" textLength="518.1973" x="12" y="38.1997">The analysis application reads customer context through CustomerActivityPort;</text><text fill="#000000" font-family="sans-serif" font-size="13" lengthAdjust="spacing" textLength="460.6748" x="12" y="53.3325">Spring/JPA/provider types remain adapter-side implementation details.</text></g><!--link Operator to UI--><g class="link" data-entity-1="ent0001" data-entity-2="ent0004" data-link-type="dependency" data-source-line="48" id="lnk29"><path d="M362.06,726.7 C433.57,726.7 529.42,726.7 599.71,726.7" fill="none" id="Operator-to-UI" style="stroke:#181818;stroke-width:1;"/><polygon fill="#181818" points="604.71,726.7,595.71,722.7,599.71,726.7,595.71,730.7,604.71,726.7" style="stroke:#181818;stroke-width:1;stroke-linejoin:miter;stroke-miterlimit:10;"/></g><!--link UI to WebApi--><g class="link" data-entity-1="ent0004" data-entity-2="ent0002" data-link-type="dependency" data-source-line="49" id="lnk30"><path d="M768.95,711.98 C835.89,711.98 914.84,711.98 917.45,711.98" fill="none" id="UI-to-WebApi" style="stroke:#181818;stroke-width:1;"/><polygon fill="#181818" points="922.45,711.98,913.45,707.98,917.45,711.98,913.45,715.98,922.45,711.98" style="stroke:#181818;stroke-width:1;stroke-linejoin:miter;stroke-miterlimit:10;"/><text fill="#000000" font-family="sans-serif" font-size="13" lengthAdjust="spacing" textLength="127.6133" x="717.7" y="725.0469">requires HTTP/JSON</text></g><!--link Http to WebApi--><g class="link" data-entity-1="ent0006" data-entity-2="ent0002" data-link-type="association" data-source-line="50" id="lnk31"><path d="M748.01,503.84 C788.08,503.84 833.07,503.84 833.07,503.84 C833.07,503.84 833.07,696.53 833.07,702.56" fill="none" id="Http-WebApi" style="stroke:#181818;stroke-width:1;"/><text fill="#000000" font-family="sans-serif" font-size="13" lengthAdjust="spacing" textLength="55.8784" x="777.07" y="573.7369">provides</text></g><!--link Auth to Http--><g class="link" data-entity-1="ent0007" data-entity-2="ent0006" data-link-type="dependency" data-source-line="51" id="lnk32"><path d="M375.41,466.7 C453.51,466.7 554.6,466.7 620.61,466.7" fill="none" id="Auth-to-Http" style="stroke:#181818;stroke-width:1;"/><polygon fill="#181818" points="625.61,466.7,616.61,462.7,620.61,466.7,616.61,470.7,625.61,466.7" style="stroke:#181818;stroke-width:1;stroke-linejoin:miter;stroke-miterlimit:10;"/><text fill="#000000" font-family="sans-serif" font-size="13" lengthAdjust="spacing" textLength="186.7798" x="501.51" y="462.7669">authenticated context (R1+)</text></g><!--link Auth to Identity--><g class="link" data-entity-1="ent0007" data-entity-2="ent0015" data-link-type="dependency" data-source-line="52" id="lnk33"><path d="M375.41,422.7 C447.33,422.7 537.98,422.7 604.22,422.7" fill="none" id="Auth-to-Identity" style="stroke:#181818;stroke-width:1;"/><polygon fill="#181818" points="609.22,422.7,600.22,418.7,604.22,422.7,600.22,426.7,609.22,422.7" style="stroke:#181818;stroke-width:1;stroke-linejoin:miter;stroke-miterlimit:10;"/></g><!--link Http to Customer--><g class="link" data-entity-1="ent0006" data-entity-2="ent0009" data-link-type="dependency" data-source-line="53" id="lnk34"><path d="M748.06,488.12 C796.15,488.12 855.07,488.12 855.07,488.12 C855.07,488.12 855.07,502.68 855.07,520.1" fill="none" id="Http-to-Customer" style="stroke:#181818;stroke-width:1;"/><polygon fill="#181818" points="855.07,525.1,859.07,516.1,855.07,520.1,851.07,516.1,855.07,525.1" style="stroke:#181818;stroke-width:1;stroke-linejoin:miter;stroke-miterlimit:10;"/><text fill="#000000" font-family="sans-serif" font-size="13" lengthAdjust="spacing" textLength="66.7837" x="753.06" y="501.1869">in-process</text></g><!--link Http to Risk--><g class="link" data-entity-1="ent0006" data-entity-2="ent0011" data-link-type="dependency" data-source-line="54" id="lnk35"><path d="M748.04,471.93 C817.73,471.93 922.07,471.93 922.07,471.93 C922.07,471.93 922.07,467.07 922.07,456.35" fill="none" id="Http-to-Risk" style="stroke:#181818;stroke-width:1;"/><polygon fill="#181818" points="922.07,451.35,918.07,460.35,922.07,456.35,926.07,460.35,922.07,451.35" style="stroke:#181818;stroke-width:1;stroke-linejoin:miter;stroke-miterlimit:10;"/><text fill="#000000" font-family="sans-serif" font-size="13" lengthAdjust="spacing" textLength="66.7837" x="846.34" y="484.9969">in-process</text></g><!--link Http to Analysis--><g class="link" data-entity-1="ent0006" data-entity-2="ent0013" data-link-type="dependency" data-source-line="55" id="lnk36"><path d="M748.18,467.17 C794.12,467.17 849.07,467.17 849.07,467.17 C849.07,467.17 849.07,376.84 849.07,329.18" fill="none" id="Http-to-Analysis" style="stroke:#181818;stroke-width:1;"/><polygon fill="#181818" points="849.07,324.18,845.07,333.18,849.07,329.18,853.07,333.18,849.07,324.18" style="stroke:#181818;stroke-width:1;stroke-linejoin:miter;stroke-miterlimit:10;"/><text fill="#000000" font-family="sans-serif" font-size="13" lengthAdjust="spacing" textLength="66.7837" x="782.07" y="459.1869">in-process</text></g><!--link Customer to ActivityPort--><g class="link" data-entity-1="ent0009" data-entity-2="ent0016" data-link-type="dependency" data-source-line="56" id="lnk37"><path d="M1007.71,551.7 C1062.11,551.7 1121.61,551.7 1144.73,551.7" fill="none" id="Customer-to-ActivityPort" style="stroke:#181818;stroke-width:1;"/><polygon fill="#181818" points="1149.73,551.7,1140.73,547.7,1144.73,551.7,1140.73,555.7,1149.73,551.7" style="stroke:#181818;stroke-width:1;stroke-linejoin:miter;stroke-miterlimit:10;"/><text fill="#000000" font-family="sans-serif" font-size="13" lengthAdjust="spacing" textLength="53.5615" x="1024.72" y="564.7669">requires</text></g><!--link Risk to ActivityPort--><g class="link" data-entity-1="ent0011" data-entity-2="ent0016" data-link-type="dependency" data-source-line="57" id="lnk38"><path d="M984.13,424.7 C1029.4,424.7 1083.07,424.7 1083.07,424.7 C1083.07,424.7 1083.07,547.61 1083.07,551.6" fill="none" id="Risk-to-ActivityPort" style="stroke:#181818;stroke-width:1;"/><polygon fill="#181818" points="1083.07,556.6,1087.07,547.6,1083.07,551.6,1079.07,547.6,1083.07,556.6" style="stroke:#181818;stroke-width:1;stroke-linejoin:miter;stroke-miterlimit:10;"/><text fill="#000000" font-family="sans-serif" font-size="13" lengthAdjust="spacing" textLength="53.5615" x="1029.07" y="454.2469">requires</text></g><!--link Analysis to ActivityPort--><g class="link" data-entity-1="ent0013" data-entity-2="ent0016" data-link-type="dependency" data-source-line="58" id="lnk39"><path d="M990.07,324.1 C990.07,383.04 990.07,520.2 990.07,520.2 C990.07,520.2 1148.29,520.2 1153.39,520.2" fill="none" id="Analysis-to-ActivityPort" style="stroke:#181818;stroke-width:1;"/><polygon fill="#181818" points="1158.39,520.2,1149.39,516.2,1153.39,520.2,1149.39,524.2,1158.39,520.2" style="stroke:#181818;stroke-width:1;stroke-linejoin:miter;stroke-miterlimit:10;"/><text fill="#000000" font-family="sans-serif" font-size="13" lengthAdjust="spacing" textLength="172.269" x="817.07" y="519.3769">requires customer context</text></g><!--link Analysis to ModelPort--><g class="link" data-entity-1="ent0013" data-entity-2="ent0017" data-link-type="dependency" data-source-line="59" id="lnk40"><path d="M996.07,324.37 C996.07,352.43 996.07,392.55 996.07,392.55 C996.07,392.55 1148.48,392.55 1153.39,392.55" fill="none" id="Analysis-to-ModelPort" style="stroke:#181818;stroke-width:1;"/><polygon fill="#181818" points="1158.39,392.55,1149.39,388.55,1153.39,392.55,1149.39,396.55,1158.39,392.55" style="stroke:#181818;stroke-width:1;stroke-linejoin:miter;stroke-miterlimit:10;"/><text fill="#000000" font-family="sans-serif" font-size="13" lengthAdjust="spacing" textLength="53.5615" x="989.14" y="405.6169">requires</text></g><!--link Analysis to PolicyPort--><g class="link" data-entity-1="ent0013" data-entity-2="ent0018" data-link-type="dependency" data-source-line="60" id="lnk41"><path d="M1002.08,297.7 C1057.48,297.7 1120.57,297.7 1144.6,297.7" fill="none" id="Analysis-to-PolicyPort" style="stroke:#181818;stroke-width:1;"/><polygon fill="#181818" points="1149.6,297.7,1140.6,293.7,1144.6,297.7,1140.6,301.7,1149.6,297.7" style="stroke:#181818;stroke-width:1;stroke-linejoin:miter;stroke-miterlimit:10;"/><text fill="#000000" font-family="sans-serif" font-size="13" lengthAdjust="spacing" textLength="53.5615" x="1021.84" y="310.7669">requires</text></g><!--link Analysis to HistoryPort--><g class="link" data-entity-1="ent0013" data-entity-2="ent0019" data-link-type="dependency" data-source-line="61" id="lnk42"><path d="M922.07,271.09 C922.07,236.84 922.07,181.7 922.07,181.7 C922.07,181.7 1101.34,181.7 1144.53,181.7" fill="none" id="Analysis-to-HistoryPort" style="stroke:#181818;stroke-width:1;"/><polygon fill="#181818" points="1149.53,181.7,1140.53,177.7,1144.53,181.7,1140.53,185.7,1149.53,181.7" style="stroke:#181818;stroke-width:1;stroke-linejoin:miter;stroke-miterlimit:10;"/><text fill="#000000" font-family="sans-serif" font-size="13" lengthAdjust="spacing" textLength="53.5615" x="937.11" y="194.7669">requires</text></g><!--link ActivityPort to ActivitySynthetic--><g class="link" data-entity-1="ent0016" data-entity-2="ent0021" data-link-type="dependency" data-source-line="63" id="lnk43"><path d="M1158.07,565.38 C1158.07,597.8 1158.07,709.98 1158.07,709.98 C1158.07,709.98 1243.81,709.98 1318.79,709.98" fill="none" id="ActivityPort-to-ActivitySynthetic" style="stroke:#181818;stroke-width:1;"/><polygon fill="#181818" points="1323.79,709.98,1314.79,705.98,1318.79,709.98,1314.79,713.98,1323.79,709.98" style="stroke:#181818;stroke-width:1;stroke-linejoin:miter;stroke-miterlimit:10;"/></g><!--link ActivityPort to ActivityJpa--><g class="link" data-entity-1="ent0016" data-entity-2="ent0022" data-link-type="dependency" data-source-line="64" id="lnk44"><path d="M1158.56,592.98 C1160.8,592.98 1235.9,592.98 1307.1,592.98" fill="none" id="ActivityPort-to-ActivityJpa" style="stroke:#181818;stroke-width:1;stroke-dasharray:7,7;"/><polygon fill="#181818" points="1312.1,592.98,1303.1,588.98,1307.1,592.98,1303.1,596.98,1312.1,592.98" style="stroke:#181818;stroke-width:1;stroke-linejoin:miter;stroke-miterlimit:10;"/></g><!--link ModelPort to ModelDet--><g class="link" data-entity-1="ent0017" data-entity-2="ent0023" data-link-type="dependency" data-source-line="65" id="lnk45"><path d="M1158.07,440.64 C1158.07,458.3 1158.07,495.98 1158.07,495.98 C1158.07,495.98 1240.23,495.98 1314.28,495.98" fill="none" id="ModelPort-to-ModelDet" style="stroke:#181818;stroke-width:1;"/><polygon fill="#181818" points="1319.28,495.98,1310.28,491.98,1314.28,495.98,1310.28,499.98,1319.28,495.98" style="stroke:#181818;stroke-width:1;stroke-linejoin:miter;stroke-miterlimit:10;"/></g><!--link ModelPort to ModelAi--><g class="link" data-entity-1="ent0017" data-entity-2="ent0024" data-link-type="dependency" data-source-line="66" id="lnk46"><path d="M1158.56,415.92 C1160.93,415.92 1246.1,415.92 1320.18,415.92" fill="none" id="ModelPort-to-ModelAi" style="stroke:#181818;stroke-width:1;stroke-dasharray:7,7;"/><polygon fill="#181818" points="1325.18,415.92,1316.18,411.92,1320.18,415.92,1316.18,419.92,1325.18,415.92" style="stroke:#181818;stroke-width:1;stroke-linejoin:miter;stroke-miterlimit:10;"/></g><!--link PolicyPort to PolicyStatic--><g class="link" data-entity-1="ent0018" data-entity-2="ent0025" data-link-type="dependency" data-source-line="67" id="lnk47"><path d="M1167.26,306.7 C1193.56,306.7 1268.95,306.7 1332.38,306.7" fill="none" id="PolicyPort-to-PolicyStatic" style="stroke:#181818;stroke-width:1;"/><polygon fill="#181818" points="1337.38,306.7,1328.38,302.7,1332.38,306.7,1328.38,310.7,1337.38,306.7" style="stroke:#181818;stroke-width:1;stroke-linejoin:miter;stroke-miterlimit:10;"/></g><!--link PolicyPort to PolicyPg--><g class="link" data-entity-1="ent0018" data-entity-2="ent0026" data-link-type="dependency" data-source-line="68" id="lnk48"><path d="M1158.07,297.83 C1158.07,278.02 1158.07,231.92 1158.07,231.92 C1158.07,231.92 1250.27,231.92 1326.58,231.92" fill="none" id="PolicyPort-to-PolicyPg" style="stroke:#181818;stroke-width:1;stroke-dasharray:7,7;"/><polygon fill="#181818" points="1331.58,231.92,1322.58,227.92,1326.58,231.92,1322.58,235.92,1331.58,231.92" style="stroke:#181818;stroke-width:1;stroke-linejoin:miter;stroke-miterlimit:10;"/></g><!--link HistoryPort to HistoryJpa--><g class="link" data-entity-1="ent0019" data-entity-2="ent0027" data-link-type="dependency" data-source-line="69" id="lnk49"><path d="M1158.07,173.1 C1158.07,156.89 1158.07,123.42 1158.07,123.42 C1158.07,123.42 1239.93,123.42 1313.9,123.42" fill="none" id="HistoryPort-to-HistoryJpa" style="stroke:#181818;stroke-width:1;stroke-dasharray:7,7;"/><polygon fill="#181818" points="1318.9,123.42,1309.9,119.42,1313.9,123.42,1309.9,127.42,1318.9,123.42" style="stroke:#181818;stroke-width:1;stroke-linejoin:miter;stroke-miterlimit:10;"/></g><!--link ActivityJpa to Db--><g class="link" data-entity-1="ent0022" data-entity-2="ent0028" data-link-type="dependency" data-source-line="71" id="lnk50"><path d="M1530.87,618.7 C1602.18,618.7 1682.07,618.7 1682.07,618.7 C1682.07,618.7 1682.07,350.39 1682.07,246.84" fill="none" id="ActivityJpa-to-Db" style="stroke:#181818;stroke-width:1;"/><polygon fill="#181818" points="1682.07,241.84,1678.07,250.84,1682.07,246.84,1686.07,250.84,1682.07,241.84" style="stroke:#181818;stroke-width:1;stroke-linejoin:miter;stroke-miterlimit:10;"/><text fill="#000000" font-family="sans-serif" font-size="13" lengthAdjust="spacing" textLength="31.8398" x="1650.07" y="518.9269">JDBC</text></g><!--link PolicyPg to Db--><g class="link" data-entity-1="ent0026" data-entity-2="ent0028" data-link-type="dependency" data-source-line="72" id="lnk51"><path d="M1511.62,202.7 C1537.09,202.7 1559.83,202.7 1585.4,202.7" fill="none" id="PolicyPg-to-Db" style="stroke:#181818;stroke-width:1;"/><polygon fill="#181818" points="1590.4,202.7,1581.4,198.7,1585.4,202.7,1581.4,206.7,1590.4,202.7" style="stroke:#181818;stroke-width:1;stroke-linejoin:miter;stroke-miterlimit:10;"/><text fill="#000000" font-family="sans-serif" font-size="13" lengthAdjust="spacing" textLength="102.2227" x="1448.01" y="215.7669">JDBC / pgvector</text></g><!--link HistoryJpa to Db--><g class="link" data-entity-1="ent0027" data-entity-2="ent0028" data-link-type="dependency" data-source-line="73" id="lnk52"><path d="M1524.11,98.7 C1597.03,98.7 1682.07,98.7 1682.07,98.7 C1682.07,98.7 1682.07,128.93 1682.07,158.38" fill="none" id="HistoryJpa-to-Db" style="stroke:#181818;stroke-width:1;"/><polygon fill="#181818" points="1682.07,163.38,1686.07,154.38,1682.07,158.38,1678.07,154.38,1682.07,163.38" style="stroke:#181818;stroke-width:1;stroke-linejoin:miter;stroke-miterlimit:10;"/><text fill="#000000" font-family="sans-serif" font-size="13" lengthAdjust="spacing" textLength="31.8398" x="1603.43" y="111.7669">JDBC</text></g><!--link Backend to GMN53--><g class="link" data-entity-1="ent0005" data-entity-2="ent0054" data-link-type="association" data-source-line="76" id="lnk55"><path d="M276.07,85.6415 C276.07,85.5604 276.07,85.4791 276.07,85.3978 C276.07,85.2352 276.07,85.0722 276.07,84.909 C276.07,84.5825 276.07,84.2549 276.07,83.9262 C276.07,83.2688 276.07,82.6071 276.07,81.9419 C276.07,80.6116 276.07,79.2673 276.07,77.9156 C276.07,72.5088 276.07,66.9825 276.07,61.75" fill="none" id="Backend-GMN53" style="stroke:#181818;stroke-width:1;stroke-dasharray:7,7;"/></g><?plantuml-src VPPDRziu48Rl-XK3dtOHA4ctU-e20HGxsoXDR5MIimZW2oqnCZSIgINfjCQY_xr3IPH8n-ab7-JCmvVap4lLz5c35Y1PjTDGCaaBpGGFr0lZBP6aWK8qhU2KwqmVQWecWF2gfav8IueNKj7t0sh6gJwq58JKEn44fD12mco-LreqLCASI0ghbag2upCWQlmdO5nJ-KmA2hD42ermMi9jdYSNTzbg2L4IT_7_q6tKiY0OfC0C1w2e6UgUmVy1JDk0cMN3WgZTLX1PRlZy8GdNSNXv-M73Kuhwu09oL9mLahMwMs8T1p-S1R9MCbx1jH0Q6b7kQoBnDnSrqxik_XeZAI-FLpVQ8If9Y_lQy6YHX6R4hDnbtMhT-Wd3GXajzfBf0wwuvoMHXpuvMkUtOPQayVBpo8ZsUXSWPDHQ30VT7uL77-_WmUo1RlZ3QX7Errc-UhX9HwADmkmVBbWozN82ckAm1qpZxCi8CxF78C99VL1CdO15mvG7Z9RH_LCMPzEUXwXZC2iHWiTs0XmFKnuuNjmiypX_6i4sgWFZ3wSWxQb4s3El699WUMzuakPXDC_ZHvVYXlWGAnn5q7eYe9QR-p5zdFHp4wosul25YsyrBIiwPIUh-tW-hTx7lR_sBSEDI4V_ROm5a4u09y1hWfIsDPB85XkVz3MjtlHRTk1wHpKhx25urOz75MPFow7rBYzI_y36P9zvrvBZqtz3lKkYWVg7XyHS7xQWcDSmZfj4aSEPP7g_xLdzLInkSgiHjaCBeaca7s6lw7H9o3hLlX6pN4zcZuwiyVm9eZNsI-e96B4ZdYQeihzHZuLt7cPvbCVpDpgT8kZJVMHIFLBZoEz0ay-FLfzRJTMR6pag9z_aiAAS6_debfMv4AogacYo9QghQwKhIRElzt06RVNQgTlmUFbtkBYsTthM8HRR81WDFGolZ4slu-wl_as0J_Wa_RV7bqrDxqPWR1Q3ffXMYbVq2XKOy-pIkv1FGF1_um05CIzF8R1xlcluBVrmzliKEvh4mBqQ7HC9Z8T8BwXIqtJdaAUdHh_pfaTU5-AuYRE_eAF-Ac1a_o88x6jXD-jdZLRqBdToctT373znOm9FagjniW4lvFpyoclhITmerJJaD6mIR5ivEYVPGtyuSoPbB7bNk9bmAZXmX7J0nHRtThUudbjQvG-ZUzZQ3YREKMh0yQC76rdZbO1ujbyLs7luEVGl9eVY6yV2R56HWeQyK7kSvSLGqoKeIXe5z7kBCfW-n-HyXuPjRuIqPe8Ovy5aKhuj0T0xAVRL3auzUNyXhtUv2snmkwe4yyMd4DWGnkth42gS0jQqDMsmPVerIwe9gzLvO3wNp7v_0W00?></g></svg>