<svg xmlns="http://www.w3.org/2000/svg" xmlns:xlink="http://www.w3.org/1999/xlink" contentStyleType="text/css" data-diagram-type="DESCRIPTION" height="1258px" preserveAspectRatio="none" style="width:1308px;height:1258px;background:#FFFFFF;" version="1.1" viewBox="0 0 1308 1258" width="1308px" zoomAndPan="magnify"><?plantuml 1.2026.6?><defs/><g><g class="title" data-source-line="1"><text fill="#000000" font-family="sans-serif" font-size="14" font-weight="700" lengthAdjust="spacing" textLength="465.2334" x="418.3033" y="22.9951">Figure 3 &#8212; Component topology and application interfaces</text></g><!--cluster Web client--><g class="cluster" data-qualified-name="Web client" data-source-line="12" id="ent0003"><rect fill="none" height="119.89" rx="2.5" ry="2.5" style="stroke:#181818;stroke-width:1;" width="196" x="1098.84" y="175.3869"/><text fill="#000000" font-family="sans-serif" font-size="14" font-weight="700" lengthAdjust="spacing" textLength="83.8838" x="1154.8981" y="190.382">Web client</text></g><!--cluster Backend--><g class="cluster" data-qualified-name="Backend" data-source-line="16" id="ent0005"><rect fill="none" height="470.08" rx="2.5" ry="2.5" style="stroke:#181818;stroke-width:1;" width="567" x="511.84" y="352.2769"/><text fill="#000000" font-family="sans-serif" font-size="14" font-weight="700" lengthAdjust="spacing" textLength="238.4102" x="676.1349" y="367.272">Spring Boot modular monolith</text></g><!--cluster Adapters--><g class="cluster" data-qualified-name="Adapters" data-source-line="38" id="ent0022"><rect fill="none" height="235.78" rx="2.5" ry="2.5" style="stroke:#181818;stroke-width:1;" width="723" x="269.84" y="863.3569"/><text fill="#000000" font-family="sans-serif" font-size="14" font-weight="700" lengthAdjust="spacing" textLength="171.3359" x="545.672" y="878.352">Replaceable adapters</text></g><!--entity UI--><g class="entity" data-qualified-name="Web client.UI" data-source-line="13" id="ent0004"><rect fill="#F1F1F1" height="68.8906" rx="2.5" ry="2.5" style="stroke:#181818;stroke-width:0.5;" width="163.3154" x="1115.18" y="210.3869"/><text fill="#000000" font-family="sans-serif" font-size="14" lengthAdjust="spacing" textLength="143.3154" x="1125.18" y="233.382">Operator Dashboard</text><text fill="#000000" font-family="sans-serif" font-size="14" lengthAdjust="spacing" textLength="81.498" x="1125.18" y="249.6789">CMP-UI-001</text><text fill="#000000" font-family="sans-serif" font-size="14" lengthAdjust="spacing" textLength="128.666" x="1125.18" y="265.9757">React / TypeScript</text></g><!--entity Auth--><g class="entity" data-qualified-name="Backend.Auth" data-source-line="17" id="ent0006"><rect fill="#F1F1F1" height="52.5938" rx="2.5" ry="2.5" style="stroke:#181818;stroke-width:0.5;" width="198.9922" x="627.34" y="395.2769"/><text fill="#000000" font-family="sans-serif" font-size="14" lengthAdjust="spacing" textLength="178.9922" x="637.34" y="418.272">Spring Security Boundary</text><text fill="#000000" font-family="sans-serif" font-size="14" lengthAdjust="spacing" textLength="162.0869" x="637.34" y="434.5689">ADP-AUTH-SPRING-001</text></g><!--entity Http--><g class="entity" data-qualified-name="Backend.Http" data-source-line="18" id="ent0007"><rect fill="#F1F1F1" height="52.5938" rx="2.5" ry="2.5" style="stroke:#181818;stroke-width:0.5;" width="121.6982" x="743.99" y="513.5769"/><text fill="#000000" font-family="sans-serif" font-size="14" lengthAdjust="spacing" textLength="96.3115" x="753.99" y="536.572">HTTP Adapter</text><text fill="#000000" font-family="sans-serif" font-size="14" lengthAdjust="spacing" textLength="101.6982" x="753.99" y="552.8689">ADP-HTTP-001</text></g><!--entity Identity--><g class="entity" data-qualified-name="Backend.Identity" data-source-line="20" id="ent0008"><rect fill="#F1F1F1" height="52.5938" rx="2.5" ry="2.5" style="stroke:#181818;stroke-width:0.5;" width="154.7158" x="572.48" y="589.1669"/><text fill="#000000" font-family="sans-serif" font-size="14" lengthAdjust="spacing" textLength="109.0127" x="582.48" y="612.162">Identity Module</text><text fill="#000000" font-family="sans-serif" font-size="14" lengthAdjust="spacing" textLength="134.7158" x="582.48" y="628.4589">MOD-IDENTITY-001</text></g><!--entity Customer--><g class="entity" data-qualified-name="Backend.Customer" data-source-line="21" id="ent0009"><rect fill="#F1F1F1" height="52.5938" rx="2.5" ry="2.5" style="stroke:#181818;stroke-width:0.5;" width="169.8369" x="543.92" y="664.7569"/><text fill="#000000" font-family="sans-serif" font-size="14" lengthAdjust="spacing" textLength="123.3613" x="553.92" y="687.752">Customer Module</text><text fill="#000000" font-family="sans-serif" font-size="14" lengthAdjust="spacing" textLength="149.8369" x="553.92" y="704.0489">MOD-CUSTOMER-001</text></g><!--entity Risk--><g class="entity" data-qualified-name="Backend.Risk" data-source-line="22" id="ent0010"><rect fill="#F1F1F1" height="52.5938" rx="2.5" ry="2.5" style="stroke:#181818;stroke-width:0.5;" width="122.6279" x="743.52" y="664.7569"/><text fill="#000000" font-family="sans-serif" font-size="14" lengthAdjust="spacing" textLength="84.376" x="753.52" y="687.752">Risk Module</text><text fill="#000000" font-family="sans-serif" font-size="14" lengthAdjust="spacing" textLength="102.6279" x="753.52" y="704.0489">MOD-RISK-001</text></g><!--entity Analysis--><g class="entity" data-qualified-name="Backend.Analysis" data-source-line="23" id="ent0011"><rect fill="#F1F1F1" height="52.5938" rx="2.5" ry="2.5" style="stroke:#181818;stroke-width:0.5;" width="158.585" x="896.54" y="664.7569"/><text fill="#000000" font-family="sans-serif" font-size="14" lengthAdjust="spacing" textLength="113.0391" x="906.54" y="687.752">Analysis Module</text><text fill="#000000" font-family="sans-serif" font-size="14" lengthAdjust="spacing" textLength="138.585" x="906.54" y="704.0489">MOD-ANALYSIS-001</text></g><!--entity ActivityPort--><g class="entity" data-qualified-name="Backend.ActivityPort" data-source-line="25" id="ent0012"><ellipse cx="672.84" cy="789.3569" fill="#F1F1F1" rx="8" ry="8" style="stroke:#181818;stroke-width:0.5;"/><text fill="#000000" font-family="sans-serif" font-size="14" lengthAdjust="spacing" textLength="148.8594" x="598.4103" y="819.352">CustomerActivityPort</text><text fill="#000000" font-family="sans-serif" font-size="14" lengthAdjust="spacing" textLength="126.3896" x="598.4103" y="835.6489">PRT-ACTIVITY-001</text></g><!--entity PolicyPort--><g class="entity" data-qualified-name="Backend.PolicyPort" data-source-line="26" id="ent0013"><ellipse cx="903.84" cy="789.3569" fill="#F1F1F1" rx="8" ry="8" style="stroke:#181818;stroke-width:0.5;"/><text fill="#000000" font-family="sans-serif" font-size="14" lengthAdjust="spacing" textLength="145.9814" x="830.8493" y="819.352">PolicyKnowledgePort</text><text fill="#000000" font-family="sans-serif" font-size="14" lengthAdjust="spacing" textLength="113.2646" x="830.8493" y="835.6489">PRT-POLICY-001</text></g><!--entity ModelPort--><g class="entity" data-qualified-name="Backend.ModelPort" data-source-line="27" id="ent0014"><ellipse cx="986.84" cy="789.3569" fill="#F1F1F1" rx="8" ry="8" style="stroke:#181818;stroke-width:0.5;"/><text fill="#000000" font-family="sans-serif" font-size="14" lengthAdjust="spacing" textLength="127.9688" x="922.8556" y="819.352">AnalysisModelPort</text><text fill="#000000" font-family="sans-serif" font-size="14" lengthAdjust="spacing" textLength="114.0713" x="922.8556" y="835.6489">PRT-MODEL-001</text></g><!--entity HistoryPort--><g class="entity" data-qualified-name="Backend.HistoryPort" data-source-line="28" id="ent0015"><ellipse cx="1034.84" cy="789.3569" fill="#F1F1F1" rx="8" ry="8" style="stroke:#181818;stroke-width:0.5;"/><text fill="#000000" font-family="sans-serif" font-size="14" lengthAdjust="spacing" textLength="135.7412" x="966.9694" y="819.352">AnalysisHistoryPort</text><text fill="#000000" font-family="sans-serif" font-size="14" lengthAdjust="spacing" textLength="124.9404" x="966.9694" y="835.6489">PRT-HISTORY-001</text></g><!--entity ActivitySynthetic--><g class="entity" data-qualified-name="Adapters.ActivitySynthetic" data-source-line="39" id="ent0023"><rect fill="#F1F1F1" height="68.8906" rx="2.5" ry="2.5" style="stroke:#181818;stroke-width:0.5;" width="146.4922" x="285.59" y="898.3569"/><text fill="#000000" font-family="sans-serif" font-size="14" lengthAdjust="spacing" textLength="123.1494" x="295.59" y="921.352">Synthetic Activity</text><text fill="#000000" font-family="sans-serif" font-size="14" lengthAdjust="spacing" textLength="126.4922" x="295.59" y="937.6489">ADP-ACT-SYN-001</text><text fill="#000000" font-family="sans-serif" font-size="14" lengthAdjust="spacing" textLength="41.9863" x="295.59" y="953.9457">R0/R1</text></g><!--entity ActivityJpa--><g class="entity" data-qualified-name="Adapters.ActivityJpa" data-source-line="40" id="ent0024"><rect fill="#F1F1F1" height="68.8906" rx="2.5" ry="2.5" style="stroke:#181818;stroke-width:0.5;" width="140.7295" x="462.47" y="898.3569"/><text fill="#000000" font-family="sans-serif" font-size="14" lengthAdjust="spacing" textLength="79.2012" x="472.47" y="921.352">JPA Activity</text><text fill="#000000" font-family="sans-serif" font-size="14" lengthAdjust="spacing" textLength="120.7295" x="472.47" y="937.6489">ADP-ACT-JPA-001</text><text fill="#000000" font-family="sans-serif" font-size="14" lengthAdjust="spacing" textLength="18.6348" x="472.47" y="953.9457">R2</text></g><!--entity PolicyStatic--><g class="entity" data-qualified-name="Adapters.PolicyStatic" data-source-line="41" id="ent0025"><rect fill="#F1F1F1" height="68.8906" rx="2.5" ry="2.5" style="stroke:#181818;stroke-width:0.5;" width="167.4102" x="633.13" y="898.3569"/><text fill="#000000" font-family="sans-serif" font-size="14" lengthAdjust="spacing" textLength="85.251" x="643.13" y="921.352">Static Policy</text><text fill="#000000" font-family="sans-serif" font-size="14" lengthAdjust="spacing" textLength="147.4102" x="643.13" y="937.6489">ADP-POL-STATIC-001</text><text fill="#000000" font-family="sans-serif" font-size="14" lengthAdjust="spacing" textLength="18.6348" x="643.13" y="953.9457">R0</text></g><!--entity PolicyPg--><g class="entity" data-qualified-name="Adapters.PolicyPg" data-source-line="42" id="ent0026"><rect fill="#F1F1F1" height="68.8906" rx="2.5" ry="2.5" style="stroke:#181818;stroke-width:0.5;" width="146.8066" x="830.43" y="898.3569"/><text fill="#000000" font-family="sans-serif" font-size="14" lengthAdjust="spacing" textLength="107.3994" x="840.43" y="921.352">pgvector Policy</text><text fill="#000000" font-family="sans-serif" font-size="14" lengthAdjust="spacing" textLength="126.8066" x="840.43" y="937.6489">ADP-POL-PGV-001</text><text fill="#000000" font-family="sans-serif" font-size="14" lengthAdjust="spacing" textLength="18.6348" x="840.43" y="953.9457">R4</text></g><!--entity ModelDet--><g class="entity" data-qualified-name="Adapters.ModelDet" data-source-line="43" id="ent0027"><rect fill="#F1F1F1" height="68.8906" rx="2.5" ry="2.5" style="stroke:#181818;stroke-width:0.5;" width="169.3789" x="434.15" y="1014.2469"/><text fill="#000000" font-family="sans-serif" font-size="14" lengthAdjust="spacing" textLength="140.3965" x="444.15" y="1037.242">Deterministic Model</text><text fill="#000000" font-family="sans-serif" font-size="14" lengthAdjust="spacing" textLength="149.3789" x="444.15" y="1053.5389">ADP-MODEL-DET-001</text><text fill="#000000" font-family="sans-serif" font-size="14" lengthAdjust="spacing" textLength="41.9863" x="444.15" y="1069.8357">R0/R3</text></g><!--entity ModelAi--><g class="entity" data-qualified-name="Adapters.ModelAi" data-source-line="44" id="ent0028"><rect fill="#F1F1F1" height="68.8906" rx="2.5" ry="2.5" style="stroke:#181818;stroke-width:0.5;" width="154.9072" x="633.38" y="1014.2469"/><text fill="#000000" font-family="sans-serif" font-size="14" lengthAdjust="spacing" textLength="109.8193" x="643.38" y="1037.242">Spring AI Model</text><text fill="#000000" font-family="sans-serif" font-size="14" lengthAdjust="spacing" textLength="134.9072" x="643.38" y="1053.5389">ADP-MODEL-AI-001</text><text fill="#000000" font-family="sans-serif" font-size="14" lengthAdjust="spacing" textLength="79.8232" x="643.38" y="1069.8357">R4 optional</text></g><!--entity HistoryJpa--><g class="entity" data-qualified-name="Adapters.HistoryJpa" data-source-line="45" id="ent0029"><rect fill="#F1F1F1" height="68.8906" rx="2.5" ry="2.5" style="stroke:#181818;stroke-width:0.5;" width="158.5371" x="818.57" y="1014.2469"/><text fill="#000000" font-family="sans-serif" font-size="14" lengthAdjust="spacing" textLength="138.5371" x="828.57" y="1037.242">JPA Analysis History</text><text fill="#000000" font-family="sans-serif" font-size="14" lengthAdjust="spacing" textLength="124.9199" x="828.57" y="1053.5389">ADP-HIST-JPA-001</text><text fill="#000000" font-family="sans-serif" font-size="14" lengthAdjust="spacing" textLength="18.6348" x="828.57" y="1069.8357">R3</text></g><!--entity Operator--><g class="entity" data-qualified-name="Operator" data-source-line="9" id="ent0001"><ellipse cx="1196.8389" cy="51.2969" fill="#F1F1F1" rx="8" ry="8" style="stroke:#181818;stroke-width:0.5;"/><path d="M1196.8389,59.2969 L1196.8389,86.2969 M1183.8389,67.2969 L1209.8389,67.2969 M1196.8389,86.2969 L1183.8389,101.2969 M1196.8389,86.2969 L1209.8389,101.2969" fill="none" style="stroke:#181818;stroke-width:0.5;"/><text fill="#000000" font-family="sans-serif" font-size="14" lengthAdjust="spacing" textLength="105.1777" x="1144.25" y="115.792">Customer Care</text><text fill="#000000" font-family="sans-serif" font-size="14" lengthAdjust="spacing" textLength="62.665" x="1144.25" y="132.0889">Operator</text></g><!--entity WebApi--><g class="entity" data-qualified-name="WebApi" data-source-line="10" id="ent0002"><ellipse cx="1196.84" cy="421.5769" fill="#F1F1F1" rx="8" ry="8" style="stroke:#181818;stroke-width:0.5;"/><text fill="#000000" font-family="sans-serif" font-size="14" lengthAdjust="spacing" textLength="173.8994" x="1109.8903" y="451.572">Protected HTTP/JSON API</text></g><!--entity Db--><g class="entity" data-qualified-name="Db" data-source-line="55" id="ent0036"><path d="M208.06,1165.1369 C208.06,1155.1369 299.8417,1155.1369 299.8417,1155.1369 C299.8417,1155.1369 391.6235,1155.1369 391.6235,1165.1369 L391.6235,1223.0275 C391.6235,1233.0275 299.8417,1233.0275 299.8417,1233.0275 C299.8417,1233.0275 208.06,1233.0275 208.06,1223.0275 L208.06,1165.1369" fill="#F1F1F1" style="stroke:#181818;stroke-width:0.5;"/><path d="M208.06,1165.1369 C208.06,1175.1369 299.8417,1175.1369 299.8417,1175.1369 C299.8417,1175.1369 391.6235,1175.1369 391.6235,1165.1369" fill="none" style="stroke:#181818;stroke-width:0.5;"/><text fill="#000000" font-family="sans-serif" font-size="14" lengthAdjust="spacing" textLength="163.5635" x="218.06" y="1192.132">PostgreSQL + pgvector</text><text fill="#000000" font-family="sans-serif" font-size="14" lengthAdjust="spacing" textLength="79.8643" x="218.06" y="1208.4289">INF-DB-001</text><text fill="#000000" font-family="sans-serif" font-size="14" lengthAdjust="spacing" textLength="30.3652" x="218.06" y="1224.7257">R2+</text></g><g class="entity" data-qualified-name="GMN61" data-source-line="86" id="ent0062"><path d="M6,519.7369 L6,560.0025 L487.6748,560.0025 L487.6748,529.7369 L477.6748,519.7369 L6,519.7369" fill="#FEFFDD" style="stroke:#181818;stroke-width:0.5;"/><path d="M477.6748,519.7369 L477.6748,529.7369 L487.6748,529.7369 L477.6748,519.7369" fill="#FEFFDD" style="stroke:#181818;stroke-width:1;"/><text fill="#000000" font-family="sans-serif" font-size="13" lengthAdjust="spacing" textLength="351.3301" x="12" y="536.8038">Project-owned ports are the stable application seams.</text><text fill="#000000" font-family="sans-serif" font-size="13" lengthAdjust="spacing" textLength="460.6748" x="12" y="551.9366">Spring/JPA/provider types remain adapter-side implementation details.</text></g><!--link Identity to Customer--><!--link Customer to Risk--><!--link Risk to Analysis--><!--link ActivityPort to PolicyPort--><!--link PolicyPort to ModelPort--><!--link ModelPort to HistoryPort--><!--link ActivitySynthetic to ActivityJpa--><!--link ActivityJpa to PolicyStatic--><!--link PolicyStatic to PolicyPg--><!--link PolicyStatic to ModelDet--><!--link ModelDet to ModelAi--><!--link ModelAi to HistoryJpa--><!--link Operator to UI--><g class="link" data-entity-1="ent0001" data-entity-2="ent0004" data-link-type="dependency" data-source-line="57" id="lnk37"><path d="M1196.84,135.7969 C1196.84,159.6969 1196.84,183.4369 1196.84,205.2569" fill="none" id="Operator-to-UI" style="stroke:#181818;stroke-width:1;"/><polygon fill="#181818" points="1196.84,210.2569,1200.84,201.2569,1196.84,205.2569,1192.84,201.2569,1196.84,210.2569" style="stroke:#181818;stroke-width:1;stroke-linejoin:miter;stroke-miterlimit:10;"/></g><!--link UI to WebApi--><g class="link" data-entity-1="ent0004" data-entity-2="ent0002" data-link-type="dependency" data-source-line="58" id="lnk38"><path d="M1196.84,279.5269 C1196.84,321.1769 1196.84,384.4069 1196.84,407.5869" fill="none" id="UI-to-WebApi" style="stroke:#181818;stroke-width:1;"/><polygon fill="#181818" points="1196.84,412.5869,1200.84,403.5869,1196.84,407.5869,1192.84,403.5869,1196.84,412.5869" style="stroke:#181818;stroke-width:1;stroke-linejoin:miter;stroke-miterlimit:10;"/><text fill="#000000" font-family="sans-serif" font-size="13" lengthAdjust="spacing" textLength="69.9194" x="1197.84" y="324.3438">HTTP/JSON</text></g><!--link WebApi to Http--><g class="link" data-entity-1="ent0002" data-entity-2="ent0007" data-link-type="dependency" data-source-line="59" id="lnk39"><path d="M1187.91,425.2169 C1145.58,437.7769 967.7935,490.5249 870.7735,519.3049" fill="none" id="WebApi-to-Http" style="stroke:#181818;stroke-width:1;"/><polygon fill="#181818" points="865.98,520.7269,875.7459,522.0022,870.7735,519.3049,873.4708,514.3325,865.98,520.7269" style="stroke:#181818;stroke-width:1;stroke-linejoin:miter;stroke-miterlimit:10;"/><text fill="#000000" font-family="sans-serif" font-size="13" lengthAdjust="spacing" textLength="77.4351" x="1025.31" y="486.6438">provided by</text></g><!--link Auth to Http--><g class="link" data-entity-1="ent0006" data-entity-2="ent0007" data-link-type="dependency" data-source-line="60" id="lnk40"><path d="M743.95,448.0969 C756.96,467.4869 771.9737,489.8852 784.9737,509.2552" fill="none" id="Auth-to-Http" style="stroke:#181818;stroke-width:1;"/><polygon fill="#181818" points="787.76,513.4069,786.0659,503.7048,784.9737,509.2552,779.4232,508.163,787.76,513.4069" style="stroke:#181818;stroke-width:1;stroke-linejoin:miter;stroke-miterlimit:10;"/><text fill="#000000" font-family="sans-serif" font-size="13" lengthAdjust="spacing" textLength="109.2686" x="771.51" y="486.6438">operator context</text></g><!--link Auth to Identity--><g class="link" data-entity-1="ent0006" data-entity-2="ent0008" data-link-type="dependency" data-source-line="61" id="lnk41"><path d="M716.61,448.0569 C701.89,484.7569 676.723,547.4769 661.963,584.2369" fill="none" id="Auth-to-Identity" style="stroke:#181818;stroke-width:1;"/><polygon fill="#181818" points="660.1,588.8769,667.1654,582.0154,661.963,584.2369,659.7415,579.0345,660.1,588.8769" style="stroke:#181818;stroke-width:1;stroke-linejoin:miter;stroke-miterlimit:10;"/></g><!--link Http to Customer--><g class="link" data-entity-1="ent0007" data-entity-2="ent0009" data-link-type="dependency" data-source-line="62" id="lnk42"><path d="M788.78,566.5869 C770.11,596.4869 741.84,641.7569 741.84,641.7569 C741.84,641.7569 720.5571,650.8506 693.5771,662.3906" fill="none" id="Http-to-Customer" style="stroke:#181818;stroke-width:1;"/><polygon fill="#181818" points="688.98,664.3569,698.8279,664.4952,693.5771,662.3906,695.6818,657.1398,688.98,664.3569" style="stroke:#181818;stroke-width:1;stroke-linejoin:miter;stroke-miterlimit:10;"/></g><!--link Http to Risk--><g class="link" data-entity-1="ent0007" data-entity-2="ent0010" data-link-type="dependency" data-source-line="63" id="lnk43"><path d="M804.84,566.5169 C804.84,594.0069 804.84,632.3869 804.84,659.7469" fill="none" id="Http-to-Risk" style="stroke:#181818;stroke-width:1;"/><polygon fill="#181818" points="804.84,664.7469,808.84,655.7469,804.84,659.7469,800.84,655.7469,804.84,664.7469" style="stroke:#181818;stroke-width:1;stroke-linejoin:miter;stroke-miterlimit:10;"/></g><!--link Http to Analysis--><g class="link" data-entity-1="ent0007" data-entity-2="ent0011" data-link-type="dependency" data-source-line="64" id="lnk44"><path d="M834.23,566.5169 C865.65,593.9269 911.3925,633.8296 942.7725,661.2096" fill="none" id="Http-to-Analysis" style="stroke:#181818;stroke-width:1;"/><polygon fill="#181818" points="946.54,664.4969,942.3883,655.5658,942.7725,661.2096,937.1287,661.5938,946.54,664.4969" style="stroke:#181818;stroke-width:1;stroke-linejoin:miter;stroke-miterlimit:10;"/></g><!--link Customer to ActivityPort--><g class="link" data-entity-1="ent0009" data-entity-2="ent0012" data-link-type="dependency" data-source-line="66" id="lnk45"><path d="M640.51,717.6069 C649.98,738.3369 660.6843,761.7381 666.9543,775.4781" fill="none" id="Customer-to-ActivityPort" style="stroke:#181818;stroke-width:1;"/><polygon fill="#181818" points="669.03,780.0269,668.9327,770.1785,666.9543,775.4781,661.6546,773.4997,669.03,780.0269" style="stroke:#181818;stroke-width:1;stroke-linejoin:miter;stroke-miterlimit:10;"/></g><!--link Risk to ActivityPort--><g class="link" data-entity-1="ent0010" data-entity-2="ent0012" data-link-type="dependency" data-source-line="67" id="lnk46"><path d="M769.81,717.6069 C740.33,739.1169 704.2193,765.46 686.2493,778.57" fill="none" id="Risk-to-ActivityPort" style="stroke:#181818;stroke-width:1;"/><polygon fill="#181818" points="682.21,781.5169,691.8382,779.444,686.2493,778.57,687.1232,772.9811,682.21,781.5169" style="stroke:#181818;stroke-width:1;stroke-linejoin:miter;stroke-miterlimit:10;"/></g><!--link Analysis to ActivityPort--><g class="link" data-entity-1="ent0011" data-entity-2="ent0012" data-link-type="dependency" data-source-line="68" id="lnk47"><path d="M896.23,717.3569 C820.48,741.4369 718.2853,773.9129 686.7153,783.9429" fill="none" id="Analysis-to-ActivityPort" style="stroke:#181818;stroke-width:1;"/><polygon fill="#181818" points="681.95,785.4569,691.7387,786.544,686.7153,783.9429,689.3163,778.9195,681.95,785.4569" style="stroke:#181818;stroke-width:1;stroke-linejoin:miter;stroke-miterlimit:10;"/><text fill="#000000" font-family="sans-serif" font-size="13" lengthAdjust="spacing" textLength="114.5752" x="816.25" y="753.4238">customer context</text></g><!--link Analysis to PolicyPort--><g class="link" data-entity-1="ent0011" data-entity-2="ent0013" data-link-type="dependency" data-source-line="69" id="lnk48"><path d="M972.33,717.4869 C969.8,735.8269 966.84,757.3569 966.84,757.3569 C966.84,757.3569 935.1469,772.9505 917.6169,781.5705" fill="none" id="Analysis-to-PolicyPort" style="stroke:#181818;stroke-width:1;"/><polygon fill="#181818" points="913.13,783.7769,922.9715,783.395,917.6169,781.5705,919.4413,776.216,913.13,783.7769" style="stroke:#181818;stroke-width:1;stroke-linejoin:miter;stroke-miterlimit:10;"/></g><!--link Analysis to ModelPort--><g class="link" data-entity-1="ent0011" data-entity-2="ent0014" data-link-type="dependency" data-source-line="70" id="lnk49"><path d="M978.76,717.6069 C981.12,738.3369 983.7524,761.3192 985.3224,775.0592" fill="none" id="Analysis-to-ModelPort" style="stroke:#181818;stroke-width:1;"/><polygon fill="#181818" points="985.89,780.0269,988.8424,770.631,985.3224,775.0592,980.8941,771.5392,985.89,780.0269" style="stroke:#181818;stroke-width:1;stroke-linejoin:miter;stroke-miterlimit:10;"/></g><!--link Analysis to HistoryPort--><g class="link" data-entity-1="ent0011" data-entity-2="ent0015" data-link-type="dependency" data-source-line="71" id="lnk50"><path d="M991.49,717.6069 C1004.19,738.3369 1018.7075,762.0237 1027.1275,775.7637" fill="none" id="Analysis-to-HistoryPort" style="stroke:#181818;stroke-width:1;"/><polygon fill="#181818" points="1029.74,780.0269,1028.448,770.2631,1027.1275,775.7637,1021.6269,774.4432,1029.74,780.0269" style="stroke:#181818;stroke-width:1;stroke-linejoin:miter;stroke-miterlimit:10;"/></g><!--link ActivityPort to ActivitySynthetic--><g class="link" data-entity-1="ent0012" data-entity-2="ent0023" data-link-type="dependency" data-source-line="73" id="lnk51"><path d="M663.46,793.0669 C620.87,805.3669 447.84,855.3569 447.84,855.3569 C447.84,855.3569 425.7734,874.3095 401.9234,894.7895" fill="none" id="ActivityPort-to-ActivitySynthetic" style="stroke:#181818;stroke-width:1;"/><polygon fill="#181818" points="398.13,898.0469,407.5639,895.2183,401.9234,894.7895,402.3522,889.1489,398.13,898.0469" style="stroke:#181818;stroke-width:1;stroke-linejoin:miter;stroke-miterlimit:10;"/></g><!--link ActivityPort to ActivityJpa--><g class="link" data-entity-1="ent0012" data-entity-2="ent0024" data-link-type="dependency" data-source-line="74" id="lnk52"><path d="M664.5,798.7769 C645.6,817.8669 602.167,861.7529 569.767,894.4929" fill="none" id="ActivityPort-to-ActivityJpa" style="stroke:#181818;stroke-width:1;stroke-dasharray:7,7;"/><polygon fill="#181818" points="566.25,898.0469,575.4238,894.4634,569.767,894.4929,569.7375,888.8362,566.25,898.0469" style="stroke:#181818;stroke-width:1;stroke-linejoin:miter;stroke-miterlimit:10;"/></g><!--link PolicyPort to PolicyStatic--><g class="link" data-entity-1="ent0013" data-entity-2="ent0025" data-link-type="dependency" data-source-line="75" id="lnk53"><path d="M894.42,797.3069 C871.72,814.0769 815.84,855.3569 815.84,855.3569 C815.84,855.3569 791.0273,874.5108 764.5073,894.9908" fill="none" id="PolicyPort-to-PolicyStatic" style="stroke:#181818;stroke-width:1;"/><polygon fill="#181818" points="760.55,898.0469,770.1181,895.7119,764.5073,894.9908,765.2284,889.3801,760.55,898.0469" style="stroke:#181818;stroke-width:1;stroke-linejoin:miter;stroke-miterlimit:10;"/></g><!--link PolicyPort to PolicyPg--><g class="link" data-entity-1="ent0013" data-entity-2="ent0026" data-link-type="dependency" data-source-line="76" id="lnk54"><path d="M903.84,798.7769 C903.84,817.8669 903.84,860.3069 903.84,893.0469" fill="none" id="PolicyPort-to-PolicyPg" style="stroke:#181818;stroke-width:1;stroke-dasharray:7,7;"/><polygon fill="#181818" points="903.84,898.0469,907.84,889.0469,903.84,893.0469,899.84,889.0469,903.84,898.0469" style="stroke:#181818;stroke-width:1;stroke-linejoin:miter;stroke-miterlimit:10;"/></g><!--link ModelPort to ModelDet--><g class="link" data-entity-1="ent0014" data-entity-2="ent0027" data-link-type="dependency" data-source-line="77" id="lnk55"><path d="M987.49,798.8569 C988.85,816.4669 991.84,855.3569 991.84,855.3569 C991.84,855.3569 991.84,967.2469 991.84,967.2469 C991.84,967.2469 618.84,1014.2469 618.84,1014.2469 C618.84,1014.2469 617.5208,1014.6779 608.3908,1017.7379" fill="none" id="ModelPort-to-ModelDet" style="stroke:#181818;stroke-width:1;"/><polygon fill="#181818" points="603.65,1019.3269,613.4546,1020.2595,608.3908,1017.7379,610.9123,1012.6742,603.65,1019.3269" style="stroke:#181818;stroke-width:1;stroke-linejoin:miter;stroke-miterlimit:10;"/></g><!--link ModelPort to ModelAi--><g class="link" data-entity-1="ent0014" data-entity-2="ent0028" data-link-type="dependency" data-source-line="78" id="lnk56"><path d="M991.02,798.7169 C997.89,812.4669 1010.84,838.3569 1010.84,838.3569 C1010.84,838.3569 1045.84,846.3569 1045.84,846.3569 C1045.84,846.3569 1045.84,991.2469 1045.84,991.2469 C1045.84,991.2469 803.84,1014.2469 803.84,1014.2469 C803.84,1014.2469 802.3652,1014.7755 793.1852,1018.0755" fill="none" id="ModelPort-to-ModelAi" style="stroke:#181818;stroke-width:1;stroke-dasharray:7,7;"/><polygon fill="#181818" points="788.48,1019.7669,798.3025,1020.4865,793.1852,1018.0755,795.5963,1012.9581,788.48,1019.7669" style="stroke:#181818;stroke-width:1;stroke-linejoin:miter;stroke-miterlimit:10;"/></g><!--link HistoryPort to HistoryJpa--><g class="link" data-entity-1="ent0015" data-entity-2="ent0029" data-link-type="dependency" data-source-line="79" id="lnk57"><path d="M1044.08,797.4469 C1063.73,812.5169 1107.84,846.3569 1107.84,846.3569 C1107.84,846.3569 1107.84,991.2469 1107.84,991.2469 C1107.84,991.2469 1041.7688,1009.0097 982.3588,1024.9697" fill="none" id="HistoryPort-to-HistoryJpa" style="stroke:#181818;stroke-width:1;stroke-dasharray:7,7;"/><polygon fill="#181818" points="977.53,1026.2669,987.2596,1027.7949,982.3588,1024.9697,985.1841,1020.0689,977.53,1026.2669" style="stroke:#181818;stroke-width:1;stroke-linejoin:miter;stroke-miterlimit:10;"/></g><!--link ActivityJpa to Db--><g class="link" data-entity-1="ent0024" data-entity-2="ent0036" data-link-type="dependency" data-source-line="81" id="lnk58"><path d="M462.21,961.2669 C453.09,964.8169 446.84,967.2469 446.84,967.2469 C446.84,967.2469 276.84,990.2469 276.84,990.2469 C276.84,990.2469 229.84,1014.2469 229.84,1014.2469 C229.84,1014.2469 229.84,1107.1369 229.84,1107.1369 C229.84,1107.1369 246.8725,1128.05 265.5725,1151.01" fill="none" id="ActivityJpa-to-Db" style="stroke:#181818;stroke-width:1;"/><polygon fill="#181818" points="268.73,1154.8869,266.1479,1145.3825,265.5725,1151.01,259.945,1150.4346,268.73,1154.8869" style="stroke:#181818;stroke-width:1;stroke-linejoin:miter;stroke-miterlimit:10;"/><text fill="#000000" font-family="sans-serif" font-size="13" lengthAdjust="spacing" textLength="31.8398" x="230.84" y="1053.2538">JDBC</text></g><!--link PolicyPg to Db--><g class="link" data-entity-1="ent0026" data-entity-2="ent0036" data-link-type="dependency" data-source-line="82" id="lnk59"><path d="M829.98,961.8769 C821.51,965.0869 815.84,967.2469 815.84,967.2469 C815.84,967.2469 314.84,1014.2469 314.84,1014.2469 C314.84,1014.2469 307.8772,1097.1843 303.4772,1149.7343" fill="none" id="PolicyPg-to-Db" style="stroke:#181818;stroke-width:1;"/><polygon fill="#181818" points="303.06,1154.7169,307.797,1146.082,303.4772,1149.7343,299.8249,1145.4145,303.06,1154.7169" style="stroke:#181818;stroke-width:1;stroke-linejoin:miter;stroke-miterlimit:10;"/><text fill="#000000" font-family="sans-serif" font-size="13" lengthAdjust="spacing" textLength="102.2227" x="315.84" y="1053.2538">JDBC / pgvector</text></g><!--link HistoryJpa to Db--><g class="link" data-entity-1="ent0029" data-entity-2="ent0036" data-link-type="dependency" data-source-line="83" id="lnk60"><path d="M841.75,1083.6069 C821.18,1096.0469 802.84,1107.1369 802.84,1107.1369 C802.84,1107.1369 542.2386,1151.6648 397.0286,1176.4748" fill="none" id="HistoryJpa-to-Db" style="stroke:#181818;stroke-width:1;"/><polygon fill="#181818" points="392.1,1177.3169,401.6451,1179.744,397.0286,1176.4748,400.2978,1171.8583,392.1,1177.3169" style="stroke:#181818;stroke-width:1;stroke-linejoin:miter;stroke-miterlimit:10;"/><text fill="#000000" font-family="sans-serif" font-size="13" lengthAdjust="spacing" textLength="31.8398" x="751.53" y="1128.2038">JDBC</text></g><!--link Backend to GMN61--><g class="link" data-entity-1="ent0005" data-entity-2="ent0062" data-link-type="association" data-source-line="86" id="lnk63"><path d="M511.4455,426.1512 C511.1523,426.2761 510.8521,426.404 510.5449,426.5349 C509.9305,426.7966 509.2884,427.0701 508.6193,427.3551 C507.2811,427.9251 505.8351,428.5411 504.2878,429.2002 C501.1932,430.5184 497.6933,432.0093 493.8405,433.6505 C478.4291,440.2153 457.3694,449.1863 434.0013,459.1406 C387.265,479.0494 331.295,502.8919 292.81,519.2869" fill="none" id="Backend-GMN61" style="stroke:#181818;stroke-width:1;stroke-dasharray:7,7;"/></g><?plantuml-src TLRDRkCs4BxhAGQ-BfIaJNhfeO1YPzVA9hPgoLi4TG-qn9NPo2H1qTarYW9zY3vXdwH3IQH8Epv977upd9zlXjHCDnG-ilgWADp2V__y2rEnbu9Jha4BAHfH7u7m2eYK3Ik9Pe83uvgghwIaROGOnC5MQ2tsK355ImE9sbV69L5a3wMrb-iZdcK0XDSDzI2IbA-affS13UDK7oK5TEXe5juU5nLjgOJR6q-e27yrmhkVeeYKMYYOJ0yjkaWLJ8cY6xwKL17Sc01fmIuY5nbCCYKqka8hc1T5TlsOBnUGP6c7_urk4ycYQ70S9YY0ic4OvGJ-Yc0C6YRMDin8kziAegeDdpvdyJgDRsv-sF0LHGVX6WgCBoyLaxexOfr6Vti7v58nNiEz41hseZeqHE6NYuRfNOU_HoJ5EfsSFkZbj3mefezeuC0heeuRdiooE5aNypZFLkdYat6cCvGSz2wqOUA7f28ISzFh6ObJc6ijer0ZhV1ZZdishcAsdvUpE9qzB8gqU76A5XNgkZhvkjDrNYoV7rPErw92tHLhNmEzLPf_TZfcDyGdd3J7bhM1Jh98dbxoD1ypCg1Ca1v1h0i9CluDmyY4qXkUhOeucHRf5pzI7n8QoR22vV4p5zyQMjLqj94jdzBfQA77dUjRtp00sepQ6CV3arDsc-_hpXa6eZp_vobcUpKUxW5C3bnruzzthCB57uhLEnt_ubV5bV4CD9IXgzNPfiir14ax1mO96HVdG3zuztyEysFq6sz5POFP8biSJQJlWRQlwR0uwxWZrpkgMUa267fjMiJvos9e-flhLKWDfnPQUyoIT-oWTB3pOs3aKP8JPpGndlJvwVMHM75U94KwjQvu1ElneGrPlz5kX9vQoJvz6KpS-HojG_KPnIpj6SVyeYTT1NeJFKTd3yMOajkHhgZsxYHBqdCRYHsbTo2akNv8CnfAs3iPjNq_L7sOQaXxBxMtFlTDPZrEZaK-Pt1G2szrYSCkv_xo8k7hYy1AVEEMxttsxE-5fkWoC_nTR0WJ1lP3HJJPahQRMAsk5Sr_VO8FOBcnuUdYOpoxjwpyqELkjeqYT_t5Q1CljNNQ_VKtAFmyNgxH83Axvah1FQd46wlm1juU8tCj-Nl2sYq5JhJlUWIuQwL3nlvOSf9k1hdLEE37gULLifi9_RWwbJeYdUwWXwMrvJpqmTxy2kJZk0h4mGWE9wDtyZX40iZLLKXBVroUqj3RCsgETTxez4asYWtQqihpjfFxJHHq19gQRJ5NZxFxgJsw3iNuDB8iYqOx9weHnyUQVOMAh_OrP7f5YJzHESRcG299zAW5V002vWbQtOzrxsdRKh9lhr2l7pVNE0wk1negC4_G5X-eUyAulGpY5hU0xML3zyYxtaf5DM4DsZ4lCkFQ_m00?></g></svg>