<svg xmlns="http://www.w3.org/2000/svg" xmlns:xlink="http://www.w3.org/1999/xlink" contentStyleType="text/css" data-diagram-type="DESCRIPTION" height="782px" preserveAspectRatio="none" style="width:1388px;height:782px;background:#FFFFFF;" version="1.1" viewBox="0 0 1388 782" width="1388px" zoomAndPan="magnify"><?plantuml 1.2026.6?><defs/><g><g class="title" data-source-line="1"><text fill="#000000" font-family="sans-serif" font-size="14" font-weight="700" lengthAdjust="spacing" textLength="428.4971" x="476.4438" y="22.9951">Figure 10 &#8212; Deployment and communication topology</text></g><!--cluster Device--><g class="cluster" data-qualified-name="Device" data-source-line="7" id="ent0001"><polygon fill="none" points="483,53.2969,493,43.2969,686,43.2969,686,128.5969,676,138.5969,483,138.5969,483,53.2969" style="stroke:#181818;stroke-width:1;stroke-linejoin:miter;stroke-miterlimit:10;"/><line style="stroke:#181818;stroke-width:1;" x1="676" x2="686" y1="53.2969" y2="43.2969"/><line style="stroke:#181818;stroke-width:1;" x1="483" x2="676" y1="53.2969" y2="53.2969"/><line style="stroke:#181818;stroke-width:1;" x1="676" x2="676" y1="53.2969" y2="138.5969"/><text fill="#000000" font-family="sans-serif" font-size="14" font-weight="700" lengthAdjust="spacing" textLength="127.0938" x="516.9531" y="69.292">Operator device</text></g><!--cluster Host--><g class="cluster" data-qualified-name="Host" data-source-line="11" id="ent0003"><polygon fill="none" points="16,220.5969,26,210.5969,833,210.5969,833,747.1369,823,757.1369,16,757.1369,16,220.5969" style="stroke:#181818;stroke-width:1;stroke-linejoin:miter;stroke-miterlimit:10;"/><line style="stroke:#181818;stroke-width:1;" x1="823" x2="833" y1="220.5969" y2="210.5969"/><line style="stroke:#181818;stroke-width:1;" x1="16" x2="823" y1="220.5969" y2="220.5969"/><line style="stroke:#181818;stroke-width:1;" x1="823" x2="823" y1="220.5969" y2="757.1369"/><text fill="#000000" font-family="sans-serif" font-size="14" font-weight="700" lengthAdjust="spacing" textLength="229.0996" x="305.9502" y="236.592">Docker Compose / Linux host</text></g><!--cluster Web--><g class="cluster" data-qualified-name="Host.Web" data-source-line="12" id="ent0004"><polygon fill="none" points="254,284.5969,264,274.5969,592,274.5969,592,392.1869,582,402.1869,254,402.1869,254,284.5969" style="stroke:#181818;stroke-width:1;stroke-linejoin:miter;stroke-miterlimit:10;"/><line style="stroke:#181818;stroke-width:1;" x1="582" x2="592" y1="284.5969" y2="274.5969"/><line style="stroke:#181818;stroke-width:1;" x1="254" x2="582" y1="284.5969" y2="284.5969"/><line style="stroke:#181818;stroke-width:1;" x1="582" x2="582" y1="284.5969" y2="402.1869"/><text fill="#000000" font-family="sans-serif" font-size="14" font-weight="700" lengthAdjust="spacing" textLength="183.8252" x="327.0874" y="300.592">web service / container</text></g><!--cluster Api--><g class="cluster" data-qualified-name="Host.Api" data-source-line="16" id="ent0006"><polygon fill="none" points="56,492.1869,66,482.1869,593,482.1869,593,707.1369,583,717.1369,56,717.1369,56,492.1869" style="stroke:#181818;stroke-width:1;stroke-linejoin:miter;stroke-miterlimit:10;"/><line style="stroke:#181818;stroke-width:1;" x1="583" x2="593" y1="492.1869" y2="482.1869"/><line style="stroke:#181818;stroke-width:1;" x1="56" x2="583" y1="492.1869" y2="492.1869"/><line style="stroke:#181818;stroke-width:1;" x1="583" x2="583" y1="492.1869" y2="717.1369"/><text fill="#000000" font-family="sans-serif" font-size="14" font-weight="700" lengthAdjust="spacing" textLength="175.6426" x="232.6787" y="508.182">api service / container</text></g><!--entity Browser--><g class="entity" data-qualified-name="Device.Browser" data-source-line="8" id="ent0002"><rect fill="#F1F1F1" height="39.2969" rx="2.5" ry="2.5" style="stroke:#181818;stroke-width:0.5;" width="122.1143" x="522.94" y="83.2969"/><polygon fill="#F1F1F1" points="628.0543,88.2969,628.0543,102.2969,640.0543,102.2969,640.0543,94.2969,634.0543,88.2969,628.0543,88.2969" style="stroke:#181818;stroke-width:0.5;stroke-linejoin:miter;stroke-miterlimit:10;"/><line style="stroke:#181818;stroke-width:0.5;" x1="634.0543" x2="634.0543" y1="88.2969" y2="94.2969"/><line style="stroke:#181818;stroke-width:0.5;" x1="640.0543" x2="634.0543" y1="94.2969" y2="94.2969"/><text fill="#000000" font-family="sans-serif" font-size="14" lengthAdjust="spacing" textLength="92.1143" x="532.94" y="109.292">Web browser</text></g><!--entity DB--><g class="entity" data-qualified-name="Host.DB" data-source-line="21" id="ent0009"><path d="M617.22,636.3969 C617.22,626.3969 709.0017,626.3969 709.0017,626.3969 C709.0017,626.3969 800.7835,626.3969 800.7835,636.3969 L800.7835,677.9906 C800.7835,687.9906 709.0017,687.9906 709.0017,687.9906 C709.0017,687.9906 617.22,687.9906 617.22,677.9906 L617.22,636.3969" fill="#F1F1F1" style="stroke:#181818;stroke-width:0.5;"/><path d="M617.22,636.3969 C617.22,646.3969 709.0017,646.3969 709.0017,646.3969 C709.0017,646.3969 800.7835,646.3969 800.7835,636.3969" fill="none" style="stroke:#181818;stroke-width:0.5;"/><text fill="#000000" font-family="sans-serif" font-size="14" lengthAdjust="spacing" textLength="152.3252" x="627.22" y="663.392">db service / container</text><text fill="#000000" font-family="sans-serif" font-size="14" lengthAdjust="spacing" textLength="163.5635" x="627.22" y="679.6889">PostgreSQL + pgvector</text></g><!--entity React--><g class="entity" data-qualified-name="Host.Web.React" data-source-line="13" id="ent0005"><rect fill="#F1F1F1" height="55.5938" rx="2.5" ry="2.5" style="stroke:#181818;stroke-width:0.5;" width="270.7549" x="277.62" y="322.5969"/><polygon fill="#F1F1F1" points="531.3749,327.5969,531.3749,341.5969,543.3749,341.5969,543.3749,333.5969,537.3749,327.5969,531.3749,327.5969" style="stroke:#181818;stroke-width:0.5;stroke-linejoin:miter;stroke-miterlimit:10;"/><line style="stroke:#181818;stroke-width:0.5;" x1="537.3749" x2="537.3749" y1="327.5969" y2="333.5969"/><line style="stroke:#181818;stroke-width:0.5;" x1="543.3749" x2="537.3749" y1="333.5969" y2="333.5969"/><text fill="#000000" font-family="sans-serif" font-size="14" lengthAdjust="spacing" textLength="101.8213" x="287.62" y="348.592">React static UI</text><text fill="#000000" font-family="sans-serif" font-size="14" lengthAdjust="spacing" textLength="240.7549" x="287.62" y="364.8889">(+ reverse proxy in remote demo)</text></g><!--entity Spring--><g class="entity" data-qualified-name="Host.Api.Spring" data-source-line="17" id="ent0007"><rect fill="#F1F1F1" height="39.2969" rx="2.5" ry="2.5" style="stroke:#181818;stroke-width:0.5;" width="240.7246" x="79.64" y="637.5469"/><polygon fill="#F1F1F1" points="303.3646,642.5469,303.3646,656.5469,315.3646,656.5469,315.3646,648.5469,309.3646,642.5469,303.3646,642.5469" style="stroke:#181818;stroke-width:0.5;stroke-linejoin:miter;stroke-miterlimit:10;"/><line style="stroke:#181818;stroke-width:0.5;" x1="309.3646" x2="309.3646" y1="642.5469" y2="648.5469"/><line style="stroke:#181818;stroke-width:0.5;" x1="315.3646" x2="309.3646" y1="648.5469" y2="648.5469"/><text fill="#000000" font-family="sans-serif" font-size="14" lengthAdjust="spacing" textLength="210.7246" x="89.64" y="663.542">Spring Boot modular monolith</text></g><!--entity Offline--><g class="entity" data-qualified-name="Host.Api.Offline" data-source-line="18" id="ent0008"><rect fill="#F1F1F1" height="71.8906" rx="2.5" ry="2.5" style="stroke:#181818;stroke-width:0.5;" width="213.7295" x="355.14" y="621.2469"/><polygon fill="#F1F1F1" points="551.8695,626.2469,551.8695,640.2469,563.8695,640.2469,563.8695,632.2469,557.8695,626.2469,551.8695,626.2469" style="stroke:#181818;stroke-width:0.5;stroke-linejoin:miter;stroke-miterlimit:10;"/><line style="stroke:#181818;stroke-width:0.5;" x1="557.8695" x2="557.8695" y1="626.2469" y2="632.2469"/><line style="stroke:#181818;stroke-width:0.5;" x1="563.8695" x2="557.8695" y1="632.2469" y2="632.2469"/><text fill="#000000" font-family="sans-serif" font-size="14" lengthAdjust="spacing" textLength="112.6768" x="365.14" y="647.242">Offline adapters</text><text fill="#000000" font-family="sans-serif" font-size="14" lengthAdjust="spacing" textLength="152.7695" x="365.14" y="663.5389">StaticPolicyAdapter +</text><text fill="#000000" font-family="sans-serif" font-size="14" lengthAdjust="spacing" textLength="183.7295" x="365.14" y="679.8357">DeterministicAnalysisStub</text></g><!--entity Provider--><g class="entity" data-qualified-name="Provider" data-source-line="24" id="ent0010"><path d="M867.1299,644.9252 C869.4128,637.466 875.662,636.9827 880.4073,642.3827 C885.678,635.6866 892.8595,635.6372 897.2099,643.4485 C900.3537,634.6368 906.1085,634.7752 912.1918,640.3975 C917.9984,632.3528 924.2751,632.9644 928.3453,642.0362 C932.0428,635.2713 938.8109,633.2646 943.2731,641.2629 C946.2772,633.8613 953.0484,633.1044 957.6462,639.6167 C962.0368,632.3774 969.8042,631.8234 974.6721,639.0553 C979.5172,632.7337 985.8822,632.8288 989.7163,640.1686 C994.7278,631.77 1000.742,633.243 1005.6014,640.3247 C1010.1781,633.4364 1016.6736,633.6226 1019.9127,641.6115 C1025.6845,632.3821 1031.2169,632.4665 1037.1294,641.4786 C1041.1236,633.823 1048.8031,633.1556 1053.0874,641.1835 C1057.522,634.9577 1064.4421,635.1359 1067.6339,642.5125 C1072.4514,635.9394 1078.2763,635.2276 1082.3618,643.2511 C1091.3161,645.2247 1091.8116,651.9684 1086.6535,658.0379 C1093.1368,664.2581 1093.4759,669.7008 1084.3989,673.678 C1080.2345,680.4268 1073.1275,682.605 1068.3126,674.3766 C1063.2961,681.9455 1057.5772,684.1635 1050.9458,676.1799 C1046.3311,683.4757 1041.1378,682.5368 1036.5194,676.1839 C1033.2985,683.9571 1025.4183,684.3899 1020.4771,678.1537 C1016.2157,684.0384 1011.2424,684.8474 1006.7095,678.4581 C1001.741,688.3661 995.8625,688.172 989.4135,679.8639 C986.372,686.5723 980.0336,687.4434 975.7838,681.1283 C969.8522,688.2548 963.3572,687.4473 959.5553,678.9205 C955.2758,687.2414 947.7588,684.9126 943.8694,678.5051 C938.6077,686.1572 932.1819,683.8623 928.5867,676.777 C923.1405,682.7728 917.0771,683.8939 913.1949,675.1444 C907.1076,683.7729 901.5847,682.1838 895.7309,674.8884 C892.0795,680.9177 885.2988,681.6124 881.1439,675.493 C876.8296,681.577 869.7684,682.8902 866.3378,674.5838 C855.1674,674.3869 852.5653,668.3153 857.2228,658.9124 C854.1985,650.717 856.9243,643.7499 867.1299,644.9252" fill="#F1F1F1" style="stroke:#181818;stroke-width:0.5;"/><text fill="#000000" font-family="sans-serif" font-size="14" lengthAdjust="spacing" textLength="202.9863" x="871.51" y="662.042">Optional external AI provider</text></g><g class="entity" data-qualified-name="GMN19" data-source-line="37" id="ent0020"><path d="M856.62,486.8469 L856.62,542.2453 L1373.3846,542.2453 L1373.3846,496.8469 L1363.3846,486.8469 L856.62,486.8469" fill="#FEFFDD" style="stroke:#181818;stroke-width:0.5;"/><path d="M1363.3846,486.8469 L1363.3846,496.8469 L1373.3846,496.8469 L1363.3846,486.8469" fill="#FEFFDD" style="stroke:#181818;stroke-width:1;"/><text fill="#000000" font-family="sans-serif" font-size="13" lengthAdjust="spacing" textLength="382.7065" x="862.62" y="503.9138">Baseline communication is synchronous request/response.</text><text fill="#000000" font-family="sans-serif" font-size="13" lengthAdjust="spacing" textLength="495.7646" x="862.62" y="519.0466">No WebSocket, broker, FIFO, Redis, or separate identity service is assumed.</text><text fill="#000000" font-family="sans-serif" font-size="13" lengthAdjust="spacing" textLength="394.6973" x="862.62" y="534.1794">The database port remains private to the Compose network.</text></g><!--link Browser to Web--><g class="link" data-entity-1="ent0002" data-entity-2="ent0004" data-link-type="dependency" data-source-line="26" id="lnk11"><path d="M584,122.7969 C584,151.0869 584,206.4219 584,255.3256 C584,261.4386 584,267.4511 584,273.2977 C584,273.6631 584,269.0279 584,269.392" fill="none" id="Browser-to-Web" style="stroke:#181818;stroke-width:1;"/><polygon fill="#181818" points="584,274.392,588,265.392,584,269.392,580,265.392,584,274.392" style="stroke:#181818;stroke-width:1;stroke-linejoin:miter;stroke-miterlimit:10;"/><text fill="#000000" font-family="sans-serif" font-size="13" lengthAdjust="spacing" textLength="95.9829" x="603.9763" y="167.6638">HTTP localhost</text><text fill="#000000" font-family="sans-serif" font-size="13" lengthAdjust="spacing" textLength="133.9355" x="585" y="182.7966">HTTPS remote demo</text></g><!--link Web to Api--><g class="link" data-entity-1="ent0004" data-entity-2="ent0006" data-link-type="dependency" data-source-line="27" id="lnk12"><path d="M568.7114,402.4512 C568.645,402.673 568.579,402.8933 568.5135,403.1122 C567.9893,404.8629 567.4943,406.5163 567.0377,408.0413 C565.2113,414.1413 564,418.1869 564,418.1869 C564,418.1869 494,426.1869 494,426.1869 C494,426.1869 494,458.1869 494,458.1869 C494,458.1869 499.5113,461.5394 507.8211,466.5944 C511.976,469.1219 516.8306,472.075 522.0457,475.2475 C524.6533,476.8338 527.351,478.4748 530.0965,480.145 C530.7828,480.5625 531.4722,480.9819 532.1639,481.4027 C532.5097,481.613 528.5844,479.2252 528.9314,479.4362" fill="none" id="Web-to-Api" style="stroke:#181818;stroke-width:1;"/><polygon fill="#181818" points="533.203,482.0348,527.5929,473.94,528.9314,479.4362,523.4351,480.7747,533.203,482.0348" style="stroke:#181818;stroke-width:1;stroke-linejoin:miter;stroke-miterlimit:10;"/><text fill="#000000" font-family="sans-serif" font-size="13" lengthAdjust="spacing" textLength="109.1416" x="524.2754" y="439.2538">HTTP/JSON /api/*</text><text fill="#000000" font-family="sans-serif" font-size="13" lengthAdjust="spacing" textLength="167.6924" x="495" y="454.3866">Compose private network</text></g><!--link Web to Api--><!--link Api to DB--><g class="link" data-entity-1="ent0006" data-entity-2="ent0009" data-link-type="dependency" data-source-line="28" id="lnk13"><path d="M593.0042,556.4107 C593.0657,556.7249 593.1272,557.039 593.1888,557.3531 C597.125,577.4544 601,597.2469 601,597.2469 C601,597.2469 622.771,609.1317 649.341,623.6317" fill="none" id="Api-to-DB" style="stroke:#181818;stroke-width:1;"/><polygon fill="#181818" points="653.73,626.0269,647.746,618.2044,649.341,623.6317,643.9137,625.2267,653.73,626.0269" style="stroke:#181818;stroke-width:1;stroke-linejoin:miter;stroke-miterlimit:10;"/><text fill="#000000" font-family="sans-serif" font-size="13" lengthAdjust="spacing" textLength="119.4692" x="626.813" y="578.3138">JDBC / PostgreSQL</text><text fill="#000000" font-family="sans-serif" font-size="13" lengthAdjust="spacing" textLength="169.0952" x="602" y="593.4466">TCP 5432 private network</text></g><!--link Api to DB--><!--link Api to Provider--><g class="link" data-entity-1="ent0006" data-entity-2="ent0010" data-link-type="dependency" data-source-line="29" id="lnk14"><path d="M593.0455,517.273 C593.2226,517.3109 593.4023,517.3494 593.5847,517.3885 C593.9495,517.4666 594.3248,517.547 594.7105,517.6296 C595.4819,517.7948 596.2946,517.9688 597.147,518.1514 C603.9659,519.6118 613.3234,521.6161 624.355,523.9791 C646.4181,528.705 675.1775,534.8656 703.7175,540.9794 C760.7975,553.2069 817,565.2469 817,565.2469 C817,565.2469 883.9203,604.2589 930.1203,631.1889" fill="none" id="Api-to-Provider" style="stroke:#181818;stroke-width:1;stroke-dasharray:7,7;"/><polygon fill="#181818" points="934.44,633.7069,928.6789,625.7188,930.1203,631.1889,924.6502,632.6303,934.44,633.7069" style="stroke:#181818;stroke-width:1;stroke-linejoin:miter;stroke-miterlimit:10;"/><text fill="#000000" font-family="sans-serif" font-size="13" lengthAdjust="spacing" textLength="125.0298" x="876.1883" y="578.3138">HTTPS provider API</text><text fill="#000000" font-family="sans-serif" font-size="13" lengthAdjust="spacing" textLength="140.4863" x="868.46" y="593.4466">only when configured</text></g><!--link Api to Offline--><g class="link" data-entity-1="ent0006" data-entity-2="ent0008" data-link-type="dependency" data-source-line="30" id="lnk15"><path d="M584.94,515.5569 C579.82,516.3169 252,565.2469 252,565.2469 C252,565.2469 252,597.2469 252,597.2469 C252,597.2469 338,605.2469 338,605.2469 C338,605.2469 350.0948,610.2174 371.2548,618.9074" fill="none" id="Api-to-Offline" style="stroke:#181818;stroke-width:1;"/><polygon fill="#181818" points="375.88,620.8069,369.0743,613.6877,371.2548,618.9074,366.0352,621.088,375.88,620.8069" style="stroke:#181818;stroke-width:1;stroke-linejoin:miter;stroke-miterlimit:10;"/><text fill="#000000" font-family="sans-serif" font-size="13" lengthAdjust="spacing" textLength="159.0532" x="253" y="585.8138">in-process baseline path</text></g><!--link DB to Provider--><!--link Host to GMN19--><g class="link" data-entity-1="ent0003" data-entity-2="ent0020" data-link-type="association" data-source-line="37" id="lnk21"><path d="M833.0221,355.8732 C837.7759,358.5311 844.4777,362.2784 852.6823,366.8661 C869.0916,376.0416 891.5119,388.5788 916.3813,402.4856 C966.12,430.2994 1025.655,463.5919 1066.49,486.4269" fill="none" id="Host-GMN19" style="stroke:#181818;stroke-width:1;stroke-dasharray:7,7;"/></g><?plantuml-src TLJDRjim3BxxAOYSjZK_szfUUYYGD2ZQecYoESCEomwAnSH2R56JvAH6CM0FiIVSauoqapGhkfCbcXy_yYEfQ6A1S6rMbKVuy1x-_FeDOtG5rINQ2CfgoAWiAsio5GrPYEIee5MTy84liA0OgGHjF6RYa8IriKvvLK9XBCRQ8J2YbilHFqiQ0peuFJyoUcNNOZmxJn9nWCx4eLUHF6ZSc0mxe0Ad9qTuIW2KZsQfiWYThxY0XQTjGDyuZTfpydCVQKpP6ZrSKUae80pWtjZg4N8AiG7SyA69sRflEHxZ6wO1Is2ZuWBQsC8bdiVydr4-8R986NovdTit9-1nWvwvdAV76enbGqaHkPQItZQH6XH7uYptnCgP_n8F-TzBujHvOrSm8efGaguAvVbhgJ0nRq2jmmlKPBcKXe3IoaLEScxJ9lKfux9ws5hXP6x7o8VIM1Fuxz2geWucfB5QDB5tOVOLQ1NLGd757VsgUdCxPPLN7jDFzt02RhNXcQ6sjl58UfKLL6bfkuoIAW0VcLuEmrkHSMFqJehfxf8akqv3htVPTEO2RcQpAHIKgKAwExToJu_5JyHF_4NGrdzmbquUOC3g3zxDxNvAMBgDOX3FyPRyEX5_mOr73BiRZwwukkUIvdPsDONpizEFhmBx_Sj3sZlMz50K3ASyD6IB6hOvMj5isIobFf3kUtR1ezHZN8OXWCZTM9sAUT8MzYqtMgFzhcbhsoBR62_ih3ZNSR1wiyfZx_98MIjwxVQRbis6S9D7UyP_tmKJ8DGsoptFNXLOxHyLXZZm61pPW7r6Ff0qA9L5Z5tPLbx8BbpVNa-wl0dQX2xmflC3m8y1CtCIDffO7oQ9ALG8LObQeiroV1uuHpvAXtdCma5yVfqYE-sRkUj5Fq5-rAIslm00?></g></svg>