<svg xmlns="http://www.w3.org/2000/svg" xmlns:xlink="http://www.w3.org/1999/xlink" contentStyleType="text/css" data-diagram-type="DESCRIPTION" height="408px" preserveAspectRatio="none" style="width:2591px;height:408px;background:#FFFFFF;" version="1.1" viewBox="0 0 2591 408" width="2591px" zoomAndPan="magnify"><?plantuml 1.2026.6?><defs/><g><g class="title" data-source-line="1"><text fill="#000000" font-family="sans-serif" font-size="14" font-weight="700" lengthAdjust="spacing" textLength="459.375" x="1062.5892" y="22.9951">Figure 2b &#8212; Hexagonal architecture &#8212; ports and adapters</text></g><!--cluster Driving adapters--><g class="cluster" data-qualified-name="Driving adapters" data-source-line="10" id="ent0002"><path d="M153.68,158.2969 L287.1536,158.2969 A3.75,3.75 0 0 1 289.6536,160.7969 L296.6536,180.5938 L584.57,180.5938 A2.5,2.5 0 0 1 587.07,183.0938 L587.07,258.7969 A2.5,2.5 0 0 1 584.57,261.2969 L153.68,261.2969 A2.5,2.5 0 0 1 151.18,258.7969 L151.18,160.7969 A2.5,2.5 0 0 1 153.68,158.2969" fill="none" style="stroke:#000000;stroke-width:1.5;"/><line style="stroke:#000000;stroke-width:1.5;" x1="151.18" x2="296.6536" y1="180.5938" y2="180.5938"/><text fill="#000000" font-family="sans-serif" font-size="14" font-weight="700" lengthAdjust="spacing" textLength="132.4736" x="155.18" y="173.292">Driving adapters</text></g><!--cluster Driven adapters--><g class="cluster" data-qualified-name="Driven adapters" data-source-line="23" id="ent0011"><path d="M1841.5,43.2969 L1969.6484,43.2969 A3.75,3.75 0 0 1 1972.1484,45.7969 L1979.1484,65.5938 L2086.49,65.5938 A2.5,2.5 0 0 1 2088.99,68.0938 L2088.99,390.7969 A2.5,2.5 0 0 1 2086.49,393.2969 L1841.5,393.2969 A2.5,2.5 0 0 1 1839,390.7969 L1839,45.7969 A2.5,2.5 0 0 1 1841.5,43.2969" fill="none" style="stroke:#000000;stroke-width:1.5;"/><line style="stroke:#000000;stroke-width:1.5;" x1="1839" x2="1979.1484" y1="65.5938" y2="65.5938"/><text fill="#000000" font-family="sans-serif" font-size="14" font-weight="700" lengthAdjust="spacing" textLength="127.1484" x="1843" y="58.292">Driven adapters</text></g><!--entity UI--><g class="entity" data-qualified-name="Driving adapters.UI" data-source-line="11" id="ent0003"><rect fill="#F1F1F1" height="36.2969" rx="2.5" ry="2.5" style="stroke:#181818;stroke-width:0.5;" width="143.5938" x="167.18" y="193.1469"/><text fill="#000000" font-family="sans-serif" font-size="14" lengthAdjust="spacing" textLength="123.5938" x="177.18" y="216.142">React operator UI</text></g><!--entity Http--><g class="entity" data-qualified-name="Driving adapters.Http" data-source-line="12" id="ent0004"><rect fill="#F1F1F1" height="52.5938" rx="2.5" ry="2.5" style="stroke:#181818;stroke-width:0.5;" width="143.2998" x="427.77" y="192.9969"/><text fill="#000000" font-family="sans-serif" font-size="14" lengthAdjust="spacing" textLength="123.2998" x="437.77" y="215.992">Spring Security +</text><text fill="#000000" font-family="sans-serif" font-size="14" lengthAdjust="spacing" textLength="95.3135" x="437.77" y="232.2889">HTTP adapter</text></g><!--entity ActivityAdapters--><g class="entity" data-qualified-name="Driven adapters.ActivityAdapters" data-source-line="24" id="ent0012"><rect fill="#F1F1F1" height="52.5938" rx="2.5" ry="2.5" style="stroke:#181818;stroke-width:0.5;" width="217.9893" x="1855" y="148.9969"/><text fill="#000000" font-family="sans-serif" font-size="14" lengthAdjust="spacing" textLength="174.4873" x="1865" y="171.992">SyntheticActivityAdapter</text><text fill="#000000" font-family="sans-serif" font-size="14" lengthAdjust="spacing" textLength="197.9893" x="1865" y="188.2889">JpaCustomerActivityAdapter</text></g><!--entity PolicyAdapters--><g class="entity" data-qualified-name="Driven adapters.PolicyAdapters" data-source-line="25" id="ent0013"><rect fill="#F1F1F1" height="52.5938" rx="2.5" ry="2.5" style="stroke:#181818;stroke-width:0.5;" width="179.585" x="1874.21" y="236.9969"/><text fill="#000000" font-family="sans-serif" font-size="14" lengthAdjust="spacing" textLength="136.5889" x="1884.21" y="259.992">StaticPolicyAdapter</text><text fill="#000000" font-family="sans-serif" font-size="14" lengthAdjust="spacing" textLength="159.585" x="1884.21" y="276.2889">PgVectorPolicyAdapter</text></g><!--entity ModelAdapters--><g class="entity" data-qualified-name="Driven adapters.ModelAdapters" data-source-line="26" id="ent0014"><rect fill="#F1F1F1" height="52.5938" rx="2.5" ry="2.5" style="stroke:#181818;stroke-width:0.5;" width="203.7295" x="1862.13" y="324.9969"/><text fill="#000000" font-family="sans-serif" font-size="14" lengthAdjust="spacing" textLength="183.7295" x="1872.13" y="347.992">DeterministicAnalysisStub</text><text fill="#000000" font-family="sans-serif" font-size="14" lengthAdjust="spacing" textLength="172.1152" x="1872.13" y="364.2889">SpringAiAnalysisAdapter</text></g><!--entity HistoryAdapter--><g class="entity" data-qualified-name="Driven adapters.HistoryAdapter" data-source-line="27" id="ent0015"><rect fill="#F1F1F1" height="36.2969" rx="2.5" ry="2.5" style="stroke:#181818;stroke-width:0.5;" width="204.8711" x="1861.56" y="78.1469"/><text fill="#000000" font-family="sans-serif" font-size="14" lengthAdjust="spacing" textLength="184.8711" x="1871.56" y="101.142">JpaAnalysisHistoryAdapter</text></g><!--entity Operator--><g class="entity" data-qualified-name="Operator" data-source-line="8" id="ent0001"><ellipse cx="58.5889" cy="173.4969" fill="#F1F1F1" rx="8" ry="8" style="stroke:#181818;stroke-width:0.5;"/><path d="M58.5889,181.4969 L58.5889,208.4969 M45.5889,189.4969 L71.5889,189.4969 M58.5889,208.4969 L45.5889,223.4969 M58.5889,208.4969 L71.5889,223.4969" fill="none" style="stroke:#181818;stroke-width:0.5;"/><text fill="#000000" font-family="sans-serif" font-size="14" lengthAdjust="spacing" textLength="105.1777" x="6" y="237.992">Customer Care</text><text fill="#000000" font-family="sans-serif" font-size="14" lengthAdjust="spacing" textLength="62.665" x="6" y="254.2889">Operator</text></g><!--entity Inbound--><g class="entity" data-qualified-name="Inbound" data-source-line="15" id="ent0005"><ellipse cx="759.07" cy="219.2969" fill="#F1F1F1" rx="8" ry="8" style="stroke:#181818;stroke-width:0.5;"/><text fill="#000000" font-family="sans-serif" font-size="14" lengthAdjust="spacing" textLength="211.9209" x="634.8097" y="249.292">Inbound application use cases</text><text fill="#000000" font-family="sans-serif" font-size="14" lengthAdjust="spacing" textLength="248.5205" x="634.8097" y="265.5889">customer review &#183; analysis &#183; history</text></g><!--entity ActivityPort--><g class="entity" data-qualified-name="ActivityPort" data-source-line="16" id="ent0006"><ellipse cx="1717" cy="173.2969" fill="#F1F1F1" rx="8" ry="8" style="stroke:#181818;stroke-width:0.5;"/><text fill="#000000" font-family="sans-serif" font-size="14" lengthAdjust="spacing" textLength="148.8594" x="1642.5703" y="203.292">CustomerActivityPort</text></g><!--entity PolicyPort--><g class="entity" data-qualified-name="PolicyPort" data-source-line="17" id="ent0007"><ellipse cx="1717" cy="266.2969" fill="#F1F1F1" rx="8" ry="8" style="stroke:#181818;stroke-width:0.5;"/><text fill="#000000" font-family="sans-serif" font-size="14" lengthAdjust="spacing" textLength="145.9814" x="1644.0093" y="296.292">PolicyKnowledgePort</text></g><!--entity ModelPort--><g class="entity" data-qualified-name="ModelPort" data-source-line="18" id="ent0008"><ellipse cx="1717" cy="359.2969" fill="#F1F1F1" rx="8" ry="8" style="stroke:#181818;stroke-width:0.5;"/><text fill="#000000" font-family="sans-serif" font-size="14" lengthAdjust="spacing" textLength="127.9688" x="1653.0156" y="389.292">AnalysisModelPort</text></g><!--entity HistoryPort--><g class="entity" data-qualified-name="HistoryPort" data-source-line="19" id="ent0009"><ellipse cx="1717" cy="80.2969" fill="#F1F1F1" rx="8" ry="8" style="stroke:#181818;stroke-width:0.5;"/><text fill="#000000" font-family="sans-serif" font-size="14" lengthAdjust="spacing" textLength="135.7412" x="1649.1294" y="110.292">AnalysisHistoryPort</text></g><!--entity Core--><g class="entity" data-qualified-name="Core" data-source-line="21" id="ent0010"><polygon fill="#F1F1F1" points="1588,219.2969,1425.52,149.1069,1100.55,149.1069,938.07,219.2969,1100.55,289.4869,1425.52,289.4869,1588,219.2969" style="stroke:#181818;stroke-width:0.5;stroke-linejoin:miter;stroke-miterlimit:10;"/><text fill="#000000" font-family="sans-serif" font-size="14" lengthAdjust="spacing" textLength="113.3057" x="1100.5534" y="167.102">Application core</text><text fill="#000000" font-family="sans-serif" font-size="14" lengthAdjust="spacing" textLength="4.4502" x="1100.5534" y="183.3989">&#160;</text><text fill="#000000" font-family="sans-serif" font-size="14" lengthAdjust="spacing" textLength="53.416" x="1100.5534" y="199.6957">identity</text><text fill="#000000" font-family="sans-serif" font-size="14" lengthAdjust="spacing" textLength="65.9258" x="1100.5534" y="215.9926">customer</text><text fill="#000000" font-family="sans-serif" font-size="14" lengthAdjust="spacing" textLength="25.0469" x="1100.5534" y="232.2895">risk</text><text fill="#000000" font-family="sans-serif" font-size="14" lengthAdjust="spacing" textLength="56.6836" x="1100.5534" y="248.5864">analysis</text><text fill="#000000" font-family="sans-serif" font-size="14" lengthAdjust="spacing" textLength="4.4502" x="1100.5534" y="264.8832">&#160;</text><text fill="#000000" font-family="sans-serif" font-size="14" lengthAdjust="spacing" textLength="324.9668" x="1100.5534" y="281.1801">project-owned domain + application contracts</text></g><!--entity DB--><g class="entity" data-qualified-name="DB" data-source-line="30" id="ent0016"><path d="M2382.99,162.6469 C2382.99,152.6469 2474.7717,152.6469 2474.7717,152.6469 C2474.7717,152.6469 2566.5535,152.6469 2566.5535,162.6469 L2566.5535,187.9438 C2566.5535,197.9438 2474.7717,197.9438 2474.7717,197.9438 C2474.7717,197.9438 2382.99,197.9438 2382.99,187.9438 L2382.99,162.6469" fill="#F1F1F1" style="stroke:#181818;stroke-width:0.5;"/><path d="M2382.99,162.6469 C2382.99,172.6469 2474.7717,172.6469 2474.7717,172.6469 C2474.7717,172.6469 2566.5535,172.6469 2566.5535,162.6469" fill="none" style="stroke:#181818;stroke-width:0.5;"/><text fill="#000000" font-family="sans-serif" font-size="14" lengthAdjust="spacing" textLength="163.5635" x="2392.99" y="189.642">PostgreSQL + pgvector</text></g><!--entity Provider--><g class="entity" data-qualified-name="Provider" data-source-line="31" id="ent0017"><rect fill="#F1F1F1" height="52.5938" rx="2.5" ry="2.5" style="stroke:#181818;stroke-width:0.5;" width="159.5762" x="2394.99" y="324.9969"/><text fill="#000000" font-family="sans-serif" font-size="14" font-style="italic" lengthAdjust="spacing" textLength="75.3799" x="2437.0881" y="347.992">&#171;external&#187;</text><text fill="#000000" font-family="sans-serif" font-size="14" lengthAdjust="spacing" textLength="139.5762" x="2404.99" y="364.2889">External AI provider</text></g><g class="entity" data-qualified-name="GMN34" data-source-line="54" id="ent0035"><path d="M1027.29,324.5969 L1027.29,379.9953 L1498.7895,379.9953 L1498.7895,334.5969 L1488.7895,324.5969 L1027.29,324.5969" fill="#FEFFDD" style="stroke:#181818;stroke-width:0.5;"/><path d="M1488.7895,324.5969 L1488.7895,334.5969 L1498.7895,334.5969 L1488.7895,324.5969" fill="#FEFFDD" style="stroke:#181818;stroke-width:1;"/><text fill="#000000" font-family="sans-serif" font-size="13" lengthAdjust="spacing" textLength="393.4087" x="1033.29" y="341.6638">Hexagonal-architecture schematic, not a UML diagram type.</text><text fill="#000000" font-family="sans-serif" font-size="13" lengthAdjust="spacing" textLength="448.8491" x="1033.29" y="356.7966">The hexagon is deliberate: application/domain policy remains inside;</text><text fill="#000000" font-family="sans-serif" font-size="13" lengthAdjust="spacing" textLength="450.4995" x="1033.29" y="371.9294">driving and driven infrastructure attaches only through named ports.</text></g><!--link Operator to UI--><g class="link" data-entity-1="ent0001" data-entity-2="ent0003" data-link-type="dependency" data-source-line="33" id="lnk18"><path d="M111.66,211.2969 C128.94,211.2969 143.48,211.2969 161.94,211.2969" fill="none" id="Operator-to-UI" style="stroke:#181818;stroke-width:1;"/><polygon fill="#181818" points="166.94,211.2969,157.94,207.2969,161.94,211.2969,157.94,215.2969,166.94,211.2969" style="stroke:#181818;stroke-width:1;stroke-linejoin:miter;stroke-miterlimit:10;"/></g><!--link UI to Http--><g class="link" data-entity-1="ent0003" data-entity-2="ent0004" data-link-type="dependency" data-source-line="34" id="lnk19"><path d="M310.94,213.4969 C347.25,214.6169 386.3324,215.8213 422.6224,216.9513" fill="none" id="UI-to-Http" style="stroke:#181818;stroke-width:1;"/><polygon fill="#181818" points="427.62,217.1069,418.7489,212.8287,422.6224,216.9513,418.4999,220.8248,427.62,217.1069" style="stroke:#181818;stroke-width:1;stroke-linejoin:miter;stroke-miterlimit:10;"/><text fill="#000000" font-family="sans-serif" font-size="13" lengthAdjust="spacing" textLength="69.9194" x="334.77" y="210.4138">HTTP/JSON</text></g><!--link Http to Inbound--><g class="link" data-entity-1="ent0004" data-entity-2="ent0005" data-link-type="dependency" data-source-line="35" id="lnk20"><path d="M571.51,219.2969 C635.56,219.2969 718.61,219.2969 745.18,219.2969" fill="none" id="Http-to-Inbound" style="stroke:#181818;stroke-width:1;"/><polygon fill="#181818" points="750.18,219.2969,741.18,215.2969,745.18,219.2969,741.18,223.2969,750.18,219.2969" style="stroke:#181818;stroke-width:1;stroke-linejoin:miter;stroke-miterlimit:10;"/></g><!--link Inbound to Core--><g class="link" data-entity-1="ent0005" data-entity-2="ent0010" data-link-type="dependency" data-source-line="36" id="lnk21"><path d="M767.96,219.2969 C790.44,219.2969 853.33,219.2969 931.87,219.2969" fill="none" id="Inbound-to-Core" style="stroke:#181818;stroke-width:1;"/><polygon fill="#181818" points="936.87,219.2969,927.87,215.2969,931.87,219.2969,927.87,223.2969,936.87,219.2969" style="stroke:#181818;stroke-width:1;stroke-linejoin:miter;stroke-miterlimit:10;"/></g><!--link Core to ActivityPort--><g class="link" data-entity-1="ent0010" data-entity-2="ent0006" data-link-type="dependency" data-source-line="38" id="lnk22"><path d="M1526.95,192.5369 C1608.9,184.1969 1679.2158,177.0439 1703.1558,174.6039" fill="none" id="Core-to-ActivityPort" style="stroke:#181818;stroke-width:1;"/><polygon fill="#181818" points="1708.13,174.0969,1698.7708,171.0301,1703.1558,174.6039,1699.582,178.9888,1708.13,174.0969" style="stroke:#181818;stroke-width:1;stroke-linejoin:miter;stroke-miterlimit:10;"/></g><!--link Core to PolicyPort--><g class="link" data-entity-1="ent0010" data-entity-2="ent0007" data-link-type="dependency" data-source-line="39" id="lnk23"><path d="M1525.97,246.5369 C1608.24,255.0869 1679.0169,262.4487 1703.1069,264.9587" fill="none" id="Core-to-PolicyPort" style="stroke:#181818;stroke-width:1;"/><polygon fill="#181818" points="1708.08,265.4769,1699.543,260.5657,1703.1069,264.9587,1698.7139,268.5227,1708.08,265.4769" style="stroke:#181818;stroke-width:1;stroke-linejoin:miter;stroke-miterlimit:10;"/></g><!--link Core to ModelPort--><g class="link" data-entity-1="ent0010" data-entity-2="ent0008" data-link-type="dependency" data-source-line="40" id="lnk24"><path d="M1463.68,273.5269 C1530.35,291.6369 1588,307.2969 1588,307.2969 C1588,307.2969 1676.1975,343.1253 1703.7475,354.3153" fill="none" id="Core-to-ModelPort" style="stroke:#181818;stroke-width:1;"/><polygon fill="#181818" points="1708.38,356.1969,1701.5468,349.1041,1703.7475,354.3153,1698.5363,356.516,1708.38,356.1969" style="stroke:#181818;stroke-width:1;stroke-linejoin:miter;stroke-miterlimit:10;"/></g><!--link Core to HistoryPort--><g class="link" data-entity-1="ent0010" data-entity-2="ent0009" data-link-type="dependency" data-source-line="41" id="lnk25"><path d="M1453.75,160.9569 C1560.04,128.2669 1672.551,93.6671 1703.431,84.1671" fill="none" id="Core-to-HistoryPort" style="stroke:#181818;stroke-width:1;"/><polygon fill="#181818" points="1708.21,82.6969,1698.4317,81.5201,1703.431,84.1671,1700.784,89.1664,1708.21,82.6969" style="stroke:#181818;stroke-width:1;stroke-linejoin:miter;stroke-miterlimit:10;"/></g><!--link ActivityPort to ActivityAdapters--><g class="link" data-entity-1="ent0006" data-entity-2="ent0012" data-link-type="dependency" data-source-line="43" id="lnk26"><path d="M1725.88,173.3569 C1746.15,173.5269 1797.2302,173.946 1849.7702,174.376" fill="none" id="ActivityPort-to-ActivityAdapters" style="stroke:#181818;stroke-width:1;"/><polygon fill="#181818" points="1854.77,174.4169,1845.803,170.3434,1849.7702,174.376,1845.7376,178.3431,1854.77,174.4169" style="stroke:#181818;stroke-width:1;stroke-linejoin:miter;stroke-miterlimit:10;"/></g><!--link PolicyPort to PolicyAdapters--><g class="link" data-entity-1="ent0007" data-entity-2="ent0013" data-link-type="dependency" data-source-line="44" id="lnk27"><path d="M1725.88,266.1969 C1748.65,265.9169 1811.6004,265.1479 1868.9504,264.4479" fill="none" id="PolicyPort-to-PolicyAdapters" style="stroke:#181818;stroke-width:1;"/><polygon fill="#181818" points="1873.95,264.3869,1864.9019,260.497,1868.9504,264.4479,1864.9995,268.4964,1873.95,264.3869" style="stroke:#181818;stroke-width:1;stroke-linejoin:miter;stroke-miterlimit:10;"/></g><!--link ModelPort to ModelAdapters--><g class="link" data-entity-1="ent0008" data-entity-2="ent0014" data-link-type="dependency" data-source-line="45" id="lnk28"><path d="M1725.88,359.0369 C1747.05,358.3469 1802.2926,356.5393 1856.7526,354.7693" fill="none" id="ModelPort-to-ModelAdapters" style="stroke:#181818;stroke-width:1;"/><polygon fill="#181818" points="1861.75,354.6069,1852.6248,350.9013,1856.7526,354.7693,1852.8847,358.8971,1861.75,354.6069" style="stroke:#181818;stroke-width:1;stroke-linejoin:miter;stroke-miterlimit:10;"/></g><!--link HistoryPort to HistoryAdapter--><g class="link" data-entity-1="ent0009" data-entity-2="ent0015" data-link-type="dependency" data-source-line="46" id="lnk29"><path d="M1725.88,80.8069 C1746.97,82.1869 1801.8307,85.7706 1856.1207,89.3206" fill="none" id="HistoryPort-to-HistoryAdapter" style="stroke:#181818;stroke-width:1;"/><polygon fill="#181818" points="1861.11,89.6469,1852.3902,85.0681,1856.1207,89.3206,1851.8682,93.0511,1861.11,89.6469" style="stroke:#181818;stroke-width:1;stroke-linejoin:miter;stroke-miterlimit:10;"/></g><!--link ActivityAdapters to DB--><g class="link" data-entity-1="ent0012" data-entity-2="ent0016" data-link-type="dependency" data-source-line="48" id="lnk30"><path d="M2073.21,175.2969 C2165.26,175.2969 2290.97,175.2969 2377.74,175.2969" fill="none" id="ActivityAdapters-to-DB" style="stroke:#181818;stroke-width:1;"/><polygon fill="#181818" points="2382.74,175.2969,2373.74,171.2969,2377.74,175.2969,2373.74,179.2969,2382.74,175.2969" style="stroke:#181818;stroke-width:1;stroke-linejoin:miter;stroke-miterlimit:10;"/><text fill="#000000" font-family="sans-serif" font-size="13" lengthAdjust="spacing" textLength="154.7876" x="2155.49" y="171.3638">JDBC when JPA selected</text></g><!--link PolicyAdapters to DB--><g class="link" data-entity-1="ent0013" data-entity-2="ent0016" data-link-type="dependency" data-source-line="49" id="lnk31"><path d="M2054.14,249.0769 C2170.64,230.4969 2359.99,200.2969 2359.99,200.2969 C2359.99,200.2969 2364.4865,199.3099 2377.8665,196.3699" fill="none" id="PolicyAdapters-to-DB" style="stroke:#181818;stroke-width:1;"/><polygon fill="#181818" points="2382.75,195.2969,2373.1013,193.3216,2377.8665,196.3699,2374.8181,201.1352,2382.75,195.2969" style="stroke:#181818;stroke-width:1;stroke-linejoin:miter;stroke-miterlimit:10;"/><text fill="#000000" font-family="sans-serif" font-size="13" lengthAdjust="spacing" textLength="213.6431" x="2125.99" y="196.3638">JDBC/pgvector when R4 selected</text></g><!--link HistoryAdapter to DB--><g class="link" data-entity-1="ent0015" data-entity-2="ent0016" data-link-type="dependency" data-source-line="50" id="lnk32"><path d="M2066.72,110.2069 C2183.75,126.2069 2359.99,150.2969 2359.99,150.2969 C2359.99,150.2969 2364.4865,151.2838 2377.8665,154.2238" fill="none" id="HistoryAdapter-to-DB" style="stroke:#181818;stroke-width:1;"/><polygon fill="#181818" points="2382.75,155.2969,2374.8181,149.4586,2377.8665,154.2238,2373.1013,157.2722,2382.75,155.2969" style="stroke:#181818;stroke-width:1;stroke-linejoin:miter;stroke-miterlimit:10;"/><text fill="#000000" font-family="sans-serif" font-size="13" lengthAdjust="spacing" textLength="31.8398" x="2216.99" y="112.9438">JDBC</text></g><!--link ModelAdapters to Provider--><g class="link" data-entity-1="ent0014" data-entity-2="ent0017" data-link-type="dependency" data-source-line="51" id="lnk33"><path d="M2066.13,351.2969 C2162.63,351.2969 2301.04,351.2969 2389.52,351.2969" fill="none" id="ModelAdapters-to-Provider" style="stroke:#181818;stroke-width:1;stroke-dasharray:7,7;"/><polygon fill="#181818" points="2394.52,351.2969,2385.52,347.2969,2389.52,351.2969,2385.52,355.2969,2394.52,351.2969" style="stroke:#181818;stroke-width:1;stroke-linejoin:miter;stroke-miterlimit:10;"/><text fill="#000000" font-family="sans-serif" font-size="13" lengthAdjust="spacing" textLength="253.6841" x="2105.99" y="347.3638">HTTPS only when live adapter selected</text></g><!--link Core to GMN34--><g class="link" data-entity-1="ent0010" data-entity-2="ent0035" data-link-type="association" data-source-line="54" id="lnk36"><path d="M1263.04,289.9269 C1263.04,299.4769 1263.04,307.9669 1263.04,307.9669 C1263.04,307.9669 1263.04,315.4169 1263.04,324.2169" fill="none" id="Core-GMN34" style="stroke:#181818;stroke-width:1;stroke-dasharray:7,7;"/></g><?plantuml-src TLNDRjim3BxhAOXSkwJ0rbww8a2QR4YoTisQPYTV59knjJYI8Sb9ZM707cBliliUPKyoohzoq1qIM1JvaVe-KhB2fWWVHPnhXBTR-Flp5ypnXSTAyXIu3XDXCRHkrsrbIbi3N4R08vvPr8QbkBDW5MWH9nOYeSbTACdCNiYCQtw0L4YqHOOKdHPkuUs5wf0fYTAkRK65k60kuzHtaIf2Wncyk_QCcikzCrvTCyP3gpGCfhcnwe0QfbnZ81ypr9ms1i0DD0l6CXxkUOmmc6bn539k3pA0xmowUc3mX0GCgew4pQ94sYpwNkjCEvGrXhaMje2BGCwVdrSDR1apjpPZFnWJaYmx7bBsXTogtD6OPQa8kMCCSeCGSeCca65p5er7WIVuyvj8vsbXX77VYQ1jNPJWDP8FtZ0n8IMELDIAL2jzVOCVi59KHF59gbEAKOojVsK_zvxKbJoGC6dhswvUSvrN1RVEtfgnfEetylR829KJCP0Y8fgfv8wJG6fXze5i275UcLRVg7M6wYGnWaWTk91mqMCtLD9gKjIK1Km9_gmPKFw_5zQ5j0bQ4JOCJYhFG2upVaxtn9F-p6REO2tL5bOijuYh-2kwZkwPFJbUXveXsGv24h5KPKtDskRRG5OjEX6DrOSiLNiTaKvs9fyVs3UvxewuvLjgNzTEniOQrr_kIOCiFfR7AQDcTypByE65GjqzCra0ANWahUk3rWkulSNQPpnch9bY60x7RX0tY_BBZHVSW1kxo-NwyJCh3MwdcOrcsfojKjxzbylUIBHMh_5RMzVWhQdNnZvI3xgbjqFrahIxBNwNhTtp4lc96_RPUQhIQNP7h2ndTrCu9TJSozK43AOa1aQidxllVjb8LiKzNNLX_RpzCDOh6KQZSQTZfSuQb4oB2ZMbWMlchSDdKbc4hR8qKA1sbLZGlKZ3tejamWGFReBUq2DXWSFcuPvU81wx5yAzE2EAVKuGcXk6RaygKMnT6-6DVprSrdT6Ll92rwvR6Q0VrV-UOABckQ0sYghRGiYTviRglAg6Mykf85CTqYPQvN42aX_eHYhVpH532dOd_0S0?></g></svg>