<svg xmlns="http://www.w3.org/2000/svg" xmlns:xlink="http://www.w3.org/1999/xlink" contentStyleType="text/css" data-diagram-type="DESCRIPTION" height="1480px" preserveAspectRatio="none" style="width:1436px;height:1480px;background:#FFFFFF;" version="1.1" viewBox="0 0 1436 1480" width="1436px" zoomAndPan="magnify"><?plantuml 1.2026.6?><defs/><g><g class="title" data-source-line="1"><text fill="#000000" font-family="sans-serif" font-size="14" font-weight="700" lengthAdjust="spacing" textLength="459.375" x="485.0552" y="22.9951">Figure 2b &#8212; Hexagonal architecture &#8212; ports and adapters</text></g><!--cluster Driving adapters--><g class="cluster" data-qualified-name="Driving adapters" data-source-line="10" id="ent0002"><path d="M709.5,171.7969 L842.9736,171.7969 A3.75,3.75 0 0 1 845.4736,174.2969 L852.4736,194.0938 L936.5,194.0938 A2.5,2.5 0 0 1 939,196.5938 L939,364.2969 A2.5,2.5 0 0 1 936.5,366.7969 L709.5,366.7969 A2.5,2.5 0 0 1 707,364.2969 L707,174.2969 A2.5,2.5 0 0 1 709.5,171.7969" fill="none" style="stroke:#000000;stroke-width:1.5;"/><line style="stroke:#000000;stroke-width:1.5;" x1="707" x2="852.4736" y1="194.0938" y2="194.0938"/><text fill="#000000" font-family="sans-serif" font-size="14" font-weight="700" lengthAdjust="spacing" textLength="132.4736" x="711" y="186.792">Driving adapters</text></g><!--cluster Driven adapters--><g class="cluster" data-qualified-name="Driven adapters" data-source-line="28" id="ent0015"><path d="M356.5,801.7969 L484.6484,801.7969 A3.75,3.75 0 0 1 487.1484,804.2969 L494.1484,824.0938 L601.5,824.0938 A2.5,2.5 0 0 1 604,826.5938 L604,1275.2969 A2.5,2.5 0 0 1 601.5,1277.7969 L356.5,1277.7969 A2.5,2.5 0 0 1 354,1275.2969 L354,804.2969 A2.5,2.5 0 0 1 356.5,801.7969" fill="none" style="stroke:#000000;stroke-width:1.5;"/><line style="stroke:#000000;stroke-width:1.5;" x1="354" x2="494.1484" y1="824.0938" y2="824.0938"/><text fill="#000000" font-family="sans-serif" font-size="14" font-weight="700" lengthAdjust="spacing" textLength="127.1484" x="358" y="816.792">Driven adapters</text></g><!--entity UI--><g class="entity" data-qualified-name="Driving adapters.UI" data-source-line="11" id="ent0003"><rect fill="#F1F1F1" height="36.2969" rx="2.5" ry="2.5" style="stroke:#181818;stroke-width:0.5;" width="143.5938" x="748" y="206.7969"/><text fill="#000000" font-family="sans-serif" font-size="14" lengthAdjust="spacing" textLength="123.5938" x="758" y="229.792">React operator UI</text></g><!--entity Http--><g class="entity" data-qualified-name="Driving adapters.Http" data-source-line="12" id="ent0004"><rect fill="#F1F1F1" height="52.5938" rx="2.5" ry="2.5" style="stroke:#181818;stroke-width:0.5;" width="200.3389" x="723" y="297.7969"/><text fill="#000000" font-family="sans-serif" font-size="14" lengthAdjust="spacing" textLength="95.3135" x="733" y="320.792">HTTP adapter</text><text fill="#000000" font-family="sans-serif" font-size="14" lengthAdjust="spacing" textLength="180.3389" x="733" y="337.0889">+ optional auth boundary</text></g><!--entity ActivityAdapters--><g class="entity" data-qualified-name="Driven adapters.ActivityAdapters" data-source-line="29" id="ent0016"><rect fill="#F1F1F1" height="68.8906" rx="2.5" ry="2.5" style="stroke:#181818;stroke-width:0.5;" width="217.9893" x="370" y="836.7969"/><text fill="#000000" font-family="sans-serif" font-size="14" lengthAdjust="spacing" textLength="174.4873" x="380" y="859.792">SyntheticActivityAdapter</text><text fill="#000000" font-family="sans-serif" font-size="14" lengthAdjust="spacing" textLength="197.9893" x="380" y="876.0889">JpaCustomerActivityAdapter</text><text fill="#000000" font-family="sans-serif" font-size="14" lengthAdjust="spacing" textLength="104.8359" x="380" y="892.3857">&#171;GoF Adapter&#187;</text></g><!--entity PolicyAdapters--><g class="entity" data-qualified-name="Driven adapters.PolicyAdapters" data-source-line="30" id="ent0017"><rect fill="#F1F1F1" height="68.8906" rx="2.5" ry="2.5" style="stroke:#181818;stroke-width:0.5;" width="179.585" x="389" y="960.7969"/><text fill="#000000" font-family="sans-serif" font-size="14" lengthAdjust="spacing" textLength="136.5889" x="399" y="983.792">StaticPolicyAdapter</text><text fill="#000000" font-family="sans-serif" font-size="14" lengthAdjust="spacing" textLength="159.585" x="399" y="1000.0889">PgVectorPolicyAdapter</text><text fill="#000000" font-family="sans-serif" font-size="14" lengthAdjust="spacing" textLength="104.8359" x="399" y="1016.3857">&#171;GoF Adapter&#187;</text></g><!--entity ModelAdapters--><g class="entity" data-qualified-name="Driven adapters.ModelAdapters" data-source-line="31" id="ent0018"><rect fill="#F1F1F1" height="68.8906" rx="2.5" ry="2.5" style="stroke:#181818;stroke-width:0.5;" width="203.7295" x="379" y="1084.7969"/><text fill="#000000" font-family="sans-serif" font-size="14" lengthAdjust="spacing" textLength="183.7295" x="389" y="1107.792">DeterministicAnalysisStub</text><text fill="#000000" font-family="sans-serif" font-size="14" lengthAdjust="spacing" textLength="172.1152" x="389" y="1124.0889">SpringAiAnalysisAdapter</text><text fill="#000000" font-family="sans-serif" font-size="14" lengthAdjust="spacing" textLength="104.8359" x="389" y="1140.3857">&#171;GoF Adapter&#187;</text></g><!--entity HistoryAdapter--><g class="entity" data-qualified-name="Driven adapters.HistoryAdapter" data-source-line="32" id="ent0019"><rect fill="#F1F1F1" height="52.5938" rx="2.5" ry="2.5" style="stroke:#181818;stroke-width:0.5;" width="204.8711" x="383.5" y="1208.7969"/><text fill="#000000" font-family="sans-serif" font-size="14" lengthAdjust="spacing" textLength="184.8711" x="393.5" y="1231.792">JpaAnalysisHistoryAdapter</text><text fill="#000000" font-family="sans-serif" font-size="14" lengthAdjust="spacing" textLength="104.8359" x="393.5" y="1248.0889">&#171;GoF Adapter&#187;</text></g><!--entity Operator--><g class="entity" data-qualified-name="Operator" data-source-line="8" id="ent0001"><ellipse cx="820.0889" cy="51.2969" fill="#F1F1F1" rx="8" ry="8" style="stroke:#181818;stroke-width:0.5;"/><path d="M820.0889,59.2969 L820.0889,86.2969 M807.0889,67.2969 L833.0889,67.2969 M820.0889,86.2969 L807.0889,101.2969 M820.0889,86.2969 L833.0889,101.2969" fill="none" style="stroke:#181818;stroke-width:0.5;"/><text fill="#000000" font-family="sans-serif" font-size="14" lengthAdjust="spacing" textLength="105.1777" x="767.5" y="115.792">Customer Care</text><text fill="#000000" font-family="sans-serif" font-size="14" lengthAdjust="spacing" textLength="62.665" x="767.5" y="132.0889">Operator</text></g><!--entity Inbound--><g class="entity" data-qualified-name="Inbound" data-source-line="16" id="ent0006"><ellipse cx="823" cy="447.7969" fill="#F1F1F1" rx="8" ry="8" style="stroke:#181818;stroke-width:0.5;"/><text fill="#000000" font-family="sans-serif" font-size="14" lengthAdjust="spacing" textLength="211.9209" x="698.7397" y="477.792">Inbound application use cases</text><text fill="#000000" font-family="sans-serif" font-size="14" lengthAdjust="spacing" textLength="248.5205" x="698.7397" y="494.0889">customer review &#183; analysis &#183; history</text></g><!--entity Core--><g class="entity" data-qualified-name="Core" data-source-line="17" id="ent0007"><polygon fill="#F1F1F1" points="1064,585.7969,943.5,531.7969,702.5,531.7969,582,585.7969,702.5,639.7969,943.5,639.7969,1064,585.7969" style="stroke:#181818;stroke-width:0.5;stroke-linejoin:miter;stroke-miterlimit:10;"/><text fill="#000000" font-family="sans-serif" font-size="14" lengthAdjust="spacing" textLength="113.3057" x="702.562" y="549.792">Application core</text><text fill="#000000" font-family="sans-serif" font-size="14" lengthAdjust="spacing" textLength="4.4502" x="702.562" y="566.0889">&#160;</text><text fill="#000000" font-family="sans-serif" font-size="14" lengthAdjust="spacing" textLength="241.124" x="702.562" y="582.3857">identity &#183; customer &#183; risk &#183; analysis</text><text fill="#000000" font-family="sans-serif" font-size="14" lengthAdjust="spacing" textLength="4.4502" x="702.562" y="598.6826">&#160;</text><text fill="#000000" font-family="sans-serif" font-size="14" lengthAdjust="spacing" textLength="173.4004" x="702.562" y="614.9795">project-owned domain +</text><text fill="#000000" font-family="sans-serif" font-size="14" lengthAdjust="spacing" textLength="147.1162" x="702.562" y="631.2764">application contracts</text></g><!--entity ActivityPort--><g class="entity" data-qualified-name="ActivityPort" data-source-line="19" id="ent0008"><ellipse cx="640" cy="714.2969" fill="#F1F1F1" rx="8" ry="8" style="stroke:#181818;stroke-width:0.5;"/><text fill="#000000" font-family="sans-serif" font-size="14" lengthAdjust="spacing" textLength="148.8594" x="565.5703" y="744.292">CustomerActivityPort</text></g><!--entity PolicyPort--><g class="entity" data-qualified-name="PolicyPort" data-source-line="20" id="ent0009"><ellipse cx="700" cy="871.2969" fill="#F1F1F1" rx="8" ry="8" style="stroke:#181818;stroke-width:0.5;"/><text fill="#000000" font-family="sans-serif" font-size="14" lengthAdjust="spacing" textLength="145.9814" x="627.0093" y="901.292">PolicyKnowledgePort</text></g><!--entity ModelPort--><g class="entity" data-qualified-name="ModelPort" data-source-line="21" id="ent0010"><ellipse cx="754" cy="995.2969" fill="#F1F1F1" rx="8" ry="8" style="stroke:#181818;stroke-width:0.5;"/><text fill="#000000" font-family="sans-serif" font-size="14" lengthAdjust="spacing" textLength="127.9688" x="690.0156" y="1025.292">AnalysisModelPort</text></g><!--entity HistoryPort--><g class="entity" data-qualified-name="HistoryPort" data-source-line="22" id="ent0011"><ellipse cx="754" cy="1119.2969" fill="#F1F1F1" rx="8" ry="8" style="stroke:#181818;stroke-width:0.5;"/><text fill="#000000" font-family="sans-serif" font-size="14" lengthAdjust="spacing" textLength="135.7412" x="686.1294" y="1149.292">AnalysisHistoryPort</text></g><!--entity DB--><g class="entity" data-qualified-name="DB" data-source-line="39" id="ent0023"><path d="M113,1339.7969 C113,1329.7969 204.7817,1329.7969 204.7817,1329.7969 C204.7817,1329.7969 296.5635,1329.7969 296.5635,1339.7969 L296.5635,1365.0938 C296.5635,1375.0938 204.7817,1375.0938 204.7817,1375.0938 C204.7817,1375.0938 113,1375.0938 113,1365.0938 L113,1339.7969" fill="#F1F1F1" style="stroke:#181818;stroke-width:0.5;"/><path d="M113,1339.7969 C113,1349.7969 204.7817,1349.7969 204.7817,1349.7969 C204.7817,1349.7969 296.5635,1349.7969 296.5635,1339.7969" fill="none" style="stroke:#181818;stroke-width:0.5;"/><text fill="#000000" font-family="sans-serif" font-size="14" lengthAdjust="spacing" textLength="163.5635" x="123" y="1366.792">PostgreSQL + pgvector</text></g><!--entity Provider--><g class="entity" data-qualified-name="Provider" data-source-line="40" id="ent0024"><rect fill="#F1F1F1" height="52.5938" rx="2.5" ry="2.5" style="stroke:#181818;stroke-width:0.5;" width="159.5762" x="192" y="1413.7969"/><text fill="#000000" font-family="sans-serif" font-size="14" font-style="italic" lengthAdjust="spacing" textLength="75.2295" x="234.1733" y="1436.792">&#171;external&#187;</text><text fill="#000000" font-family="sans-serif" font-size="14" lengthAdjust="spacing" textLength="139.5762" x="202" y="1453.0889">External AI provider</text></g><g class="entity" data-qualified-name="GMN42" data-source-line="64" id="ent0043"><path d="M924.5,678.7969 L924.5,749.3281 A0,0 0 0 0 924.5,749.3281 L1421.4854,749.3281 A0,0 0 0 0 1421.4854,749.3281 L1421.4854,688.7969 L1411.4854,678.7969 L1081.3,678.7969 L955.32,634.6169 L1073.3,678.7969 L924.5,678.7969 A0,0 0 0 0 924.5,678.7969" fill="#FEFFDD" style="stroke:#181818;stroke-width:0.5;"/><path d="M1411.4854,678.7969 L1411.4854,688.7969 L1421.4854,688.7969 L1411.4854,678.7969" fill="#FEFFDD" style="stroke:#181818;stroke-width:0.5;"/><text fill="#000000" font-family="sans-serif" font-size="13" lengthAdjust="spacing" textLength="442.603" x="930.5" y="695.8638">Hexagonal architecture is the architectural style, not a GoF pattern.</text><text fill="#000000" font-family="sans-serif" font-size="13" lengthAdjust="spacing" textLength="475.9854" x="930.5" y="710.9966">Adapter translates infrastructure/framework APIs to project-owned ports.</text><text fill="#000000" font-family="sans-serif" font-size="13" lengthAdjust="spacing" textLength="463.4741" x="930.5" y="726.1294">Strategy selects interchangeable implementations behind stable ports.</text><text fill="#000000" font-family="sans-serif" font-size="13" lengthAdjust="spacing" textLength="427.8701" x="930.5" y="741.2622">Facade/application service exposes coarse-grained orchestration.</text></g><!--link UI to Http--><!--link UI to Http--><g class="link" data-entity-1="ent0003" data-entity-2="ent0004" data-link-type="dependency" data-source-line="44" id="lnk27"><path d="M820.54,243.2269 C821,258.3469 821.5256,275.4293 822.0556,292.5793" fill="none" id="UI-to-Http-1" style="stroke:#181818;stroke-width:1;"/><polygon fill="#181818" points="822.21,297.5769,825.9301,288.4576,822.0556,292.5793,817.9339,288.7047,822.21,297.5769" style="stroke:#181818;stroke-width:1;stroke-linejoin:miter;stroke-miterlimit:10;"/><text fill="#000000" font-family="sans-serif" font-size="13" lengthAdjust="spacing" textLength="69.9194" x="822" y="274.8638">HTTP/JSON</text></g><!--link ActivityPort to PolicyPort--><!--link PolicyPort to ModelPort--><!--link ModelPort to HistoryPort--><!--link ActivityAdapters to PolicyAdapters--><!--link PolicyAdapters to ModelAdapters--><!--link ModelAdapters to HistoryAdapter--><!--link DB to Provider--><!--link Operator to UI--><g class="link" data-entity-1="ent0001" data-entity-2="ent0003" data-link-type="dependency" data-source-line="43" id="lnk26"><path d="M820,135.8669 C820,160.1869 820,183.6969 820,201.5069" fill="none" id="Operator-to-UI" style="stroke:#181818;stroke-width:1;"/><polygon fill="#181818" points="820,206.5069,824,197.5069,820,201.5069,816,197.5069,820,206.5069" style="stroke:#181818;stroke-width:1;stroke-linejoin:miter;stroke-miterlimit:10;"/></g><!--link Http to Inbound--><g class="link" data-entity-1="ent0004" data-entity-2="ent0006" data-link-type="dependency" data-source-line="45" id="lnk28"><path d="M823,351.0669 C823,378.7869 823,416.2569 823,433.7969" fill="none" id="Http-to-Inbound" style="stroke:#181818;stroke-width:1;"/><polygon fill="#181818" points="823,438.7969,827,429.7969,823,433.7969,819,429.7969,823,438.7969" style="stroke:#181818;stroke-width:1;stroke-linejoin:miter;stroke-miterlimit:10;"/></g><!--link Inbound to Core--><g class="link" data-entity-1="ent0006" data-entity-2="ent0007" data-link-type="dependency" data-source-line="46" id="lnk29"><path d="M823,456.8969 C823,471.4769 823,498.2569 823,526.4969" fill="none" id="Inbound-to-Core" style="stroke:#181818;stroke-width:1;"/><polygon fill="#181818" points="823,531.4969,827,522.4969,823,526.4969,819,522.4969,823,531.4969" style="stroke:#181818;stroke-width:1;stroke-linejoin:miter;stroke-miterlimit:10;"/></g><!--link Core to ActivityPort--><g class="link" data-entity-1="ent0007" data-entity-2="ent0008" data-link-type="dependency" data-source-line="48" id="lnk30"><path d="M746.19,639.8969 C708.43,665.9969 671.3629,691.6136 653.3829,704.0436" fill="none" id="Core-to-ActivityPort" style="stroke:#181818;stroke-width:1;"/><polygon fill="#181818" points="649.27,706.8869,658.9478,705.0592,653.3829,704.0436,654.3985,698.4786,649.27,706.8869" style="stroke:#181818;stroke-width:1;stroke-linejoin:miter;stroke-miterlimit:10;"/></g><!--link Core to PolicyPort--><g class="link" data-entity-1="ent0007" data-entity-2="ent0009" data-link-type="dependency" data-source-line="49" id="lnk31"><path d="M799.86,640.1169 C769.25,710.6969 719.4902,825.3701 705.5402,857.5201" fill="none" id="Core-to-PolicyPort" style="stroke:#181818;stroke-width:1;"/><polygon fill="#181818" points="703.55,862.1069,710.8019,855.4428,705.5402,857.5201,703.463,852.2584,703.55,862.1069" style="stroke:#181818;stroke-width:1;stroke-linejoin:miter;stroke-miterlimit:10;"/></g><!--link Core to ModelPort--><g class="link" data-entity-1="ent0007" data-entity-2="ent0010" data-link-type="dependency" data-source-line="50" id="lnk32"><path d="M818.18,639.8269 C809.93,730.5369 794,905.7969 794,905.7969 C794,905.7969 769.6488,959.6604 759.7488,981.5704" fill="none" id="Core-to-ModelPort" style="stroke:#181818;stroke-width:1;"/><polygon fill="#181818" points="757.69,986.1269,765.041,979.5723,759.7488,981.5704,757.7507,976.2782,757.69,986.1269" style="stroke:#181818;stroke-width:1;stroke-linejoin:miter;stroke-miterlimit:10;"/></g><!--link Core to HistoryPort--><g class="link" data-entity-1="ent0007" data-entity-2="ent0011" data-link-type="dependency" data-source-line="51" id="lnk33"><path d="M847.43,640.0769 C863.28,674.6469 881,713.2969 881,713.2969 C881,713.2969 881,713.2969 881,996.2969 C881,996.2969 794.1956,1079.6829 765.9356,1106.8329" fill="none" id="Core-to-HistoryPort" style="stroke:#181818;stroke-width:1;"/><polygon fill="#181818" points="762.33,1110.2969,771.5914,1106.9462,765.9356,1106.8329,766.0489,1101.1771,762.33,1110.2969" style="stroke:#181818;stroke-width:1;stroke-linejoin:miter;stroke-miterlimit:10;"/></g><!--link ActivityPort to ActivityAdapters--><g class="link" data-entity-1="ent0008" data-entity-2="ent0016" data-link-type="dependency" data-source-line="53" id="lnk34"><path d="M630.98,718.0269 C594.91,728.9269 463,768.7969 463,768.7969 C463,768.7969 463,785.7969 463,785.7969 C463,785.7969 467.2001,807.9941 471.6501,831.5041" fill="none" id="ActivityPort-to-ActivityAdapters" style="stroke:#181818;stroke-width:1;"/><polygon fill="#181818" points="472.58,836.4169,474.8364,826.83,471.6501,831.5041,466.976,828.3178,472.58,836.4169" style="stroke:#181818;stroke-width:1;stroke-linejoin:miter;stroke-miterlimit:10;"/><text fill="#000000" font-family="sans-serif" font-size="13" lengthAdjust="spacing" textLength="219.8701" x="464" y="781.8638">interchangeable implementations</text></g><!--link PolicyPort to PolicyAdapters--><g class="link" data-entity-1="ent0009" data-entity-2="ent0017" data-link-type="dependency" data-source-line="54" id="lnk35"><path d="M690.7,875.5069 C666.42,883.8969 603,905.7969 603,905.7969 C603,905.7969 495,924.7969 495,924.7969 C495,924.7969 491.9315,938.1243 487.8415,955.8943" fill="none" id="PolicyPort-to-PolicyAdapters" style="stroke:#181818;stroke-width:1;"/><polygon fill="#181818" points="486.72,960.7669,492.6368,952.8934,487.8415,955.8943,484.8406,951.099,486.72,960.7669" style="stroke:#181818;stroke-width:1;stroke-linejoin:miter;stroke-miterlimit:10;"/><text fill="#000000" font-family="sans-serif" font-size="13" lengthAdjust="spacing" textLength="219.8701" x="496" y="937.8638">interchangeable implementations</text></g><!--link ModelPort to ModelAdapters--><g class="link" data-entity-1="ent0010" data-entity-2="ent0018" data-link-type="dependency" data-source-line="55" id="lnk36"><path d="M744.78,998.4169 C702.12,1008.2369 526,1048.7969 526,1048.7969 C526,1048.7969 516.9382,1062.8003 505.4282,1080.5703" fill="none" id="ModelPort-to-ModelAdapters" style="stroke:#181818;stroke-width:1;"/><polygon fill="#181818" points="502.71,1084.7669,510.9601,1079.3876,505.4282,1080.5703,504.2455,1075.0385,502.71,1084.7669" style="stroke:#181818;stroke-width:1;stroke-linejoin:miter;stroke-miterlimit:10;"/><text fill="#000000" font-family="sans-serif" font-size="13" lengthAdjust="spacing" textLength="219.8701" x="527" y="1061.8638">interchangeable implementations</text></g><!--link HistoryPort to HistoryAdapter--><g class="link" data-entity-1="ent0011" data-entity-2="ent0019" data-link-type="dependency" data-source-line="56" id="lnk37"><path d="M744.77,1124.2169 C713.89,1137.3569 616.9712,1178.59 550.6412,1206.8" fill="none" id="HistoryPort-to-HistoryAdapter" style="stroke:#181818;stroke-width:1;"/><polygon fill="#181818" points="546.04,1208.7569,555.8876,1208.9154,550.6412,1206.8,552.7566,1201.5536,546.04,1208.7569" style="stroke:#181818;stroke-width:1;stroke-linejoin:miter;stroke-miterlimit:10;"/></g><!--link ActivityAdapters to DB--><g class="link" data-entity-1="ent0016" data-entity-2="ent0023" data-link-type="dependency" data-source-line="58" id="lnk38"><path d="M369.89,900.4369 C230.2,936.4669 6,994.2969 6,994.2969 C6,994.2969 6,994.2969 6,1236.2969 C6,1236.2969 105.5907,1293.8554 163.2407,1327.1654" fill="none" id="ActivityAdapters-to-DB" style="stroke:#181818;stroke-width:1;"/><polygon fill="#181818" points="167.57,1329.6669,161.7784,1321.7008,163.2407,1327.1654,157.7761,1328.6277,167.57,1329.6669" style="stroke:#181818;stroke-width:1;stroke-linejoin:miter;stroke-miterlimit:10;"/><text fill="#000000" font-family="sans-serif" font-size="13" lengthAdjust="spacing" textLength="154.7876" x="7" y="1123.8638">JDBC when JPA selected</text></g><!--link PolicyAdapters to DB--><g class="link" data-entity-1="ent0017" data-entity-2="ent0023" data-link-type="dependency" data-source-line="59" id="lnk39"><path d="M425.68,1029.9069 C344.44,1081.1169 199,1172.7969 199,1172.7969 C199,1172.7969 199,1189.7969 199,1189.7969 C199,1189.7969 202.3641,1280.4403 204.0041,1324.5203" fill="none" id="PolicyAdapters-to-DB" style="stroke:#181818;stroke-width:1;"/><polygon fill="#181818" points="204.19,1329.5169,207.8526,1320.3744,204.0041,1324.5203,199.8582,1320.6718,204.19,1329.5169" style="stroke:#181818;stroke-width:1;stroke-linejoin:miter;stroke-miterlimit:10;"/><text fill="#000000" font-family="sans-serif" font-size="13" lengthAdjust="spacing" textLength="192.207" x="200" y="1185.8638">JDBC/pgvector when selected</text></g><!--link HistoryAdapter to DB--><g class="link" data-entity-1="ent0019" data-entity-2="ent0023" data-link-type="dependency" data-source-line="60" id="lnk40"><path d="M521.34,1262.0169 C542.38,1277.3269 565,1293.7969 565,1293.7969 C565,1293.7969 565,1310.7969 565,1310.7969 C565,1310.7969 408.8687,1328.3579 302.2087,1340.3579" fill="none" id="HistoryAdapter-to-DB" style="stroke:#181818;stroke-width:1;"/><polygon fill="#181818" points="297.24,1340.9169,306.6308,1343.8856,302.2087,1340.3579,305.7364,1335.9357,297.24,1340.9169" style="stroke:#181818;stroke-width:1;stroke-linejoin:miter;stroke-miterlimit:10;"/><text fill="#000000" font-family="sans-serif" font-size="13" lengthAdjust="spacing" textLength="31.8398" x="566" y="1306.8638">JDBC</text></g><!--link ModelAdapters to Provider--><g class="link" data-entity-1="ent0018" data-entity-2="ent0024" data-link-type="dependency" data-source-line="61" id="lnk41"><path d="M441.92,1153.8269 C421.21,1171.5969 400,1189.7969 400,1189.7969 C400,1189.7969 369,1208.7969 369,1208.7969 C369,1208.7969 334,1293.7969 334,1293.7969 C334,1293.7969 311,1374.7969 311,1374.7969 C311,1374.7969 301.0765,1391.2078 290.2265,1409.1578" fill="none" id="ModelAdapters-to-Provider" style="stroke:#181818;stroke-width:1;stroke-dasharray:7,7;"/><polygon fill="#181818" points="287.64,1413.4369,295.7189,1407.8038,290.2265,1409.1578,288.8725,1403.6654,287.64,1413.4369" style="stroke:#181818;stroke-width:1;stroke-linejoin:miter;stroke-miterlimit:10;"/><text fill="#000000" font-family="sans-serif" font-size="13" lengthAdjust="spacing" textLength="222.0537" x="335" y="1306.8638">HTTPS when live adapter selected</text></g><?plantuml-src ZLRDRXit4BxpAGQwkhA1z18OXe2rLSTosaQjubwg7aQxurr6Av8WAScBe40Vek_IUnybJvBX_eahsKukY-Nmcs-6yqTwwKk2MvblBS6R5Npvvr-ueoVCjS8IqAQ5z9Jwi1ksZBRU0QeCC4FZoJhXjG6lOQMzrnl8f6Mur4gujLG6BMwWb8fyPOYrooeiehrKRunMfFp2L-n8K4QLbp54wOmS6NZpDX9QLEiW_F6j49XwRM5qitNi0LcuGKjBzS6GHTuO0Jhe5a8OJDUO4uocLkwaolk3ZE2pW8C_CFgTc1XqgmaFivhfOJP4tNtyEEyubkgCyU7q8NPRNt1KjYf3MzMgTzuRLdwOmVZFGcOPgRyolLVZIRFpjn1ICSiZfkpUJDMwWCQKCiL02bj7aA8ZjrHfTrXBEqbx-Fy_pWgMbPCk_1UIjrkpBPCechJ2A8aeKnrYjLIIlV7ILq6vv-P_Azqw9WzOO_KdpjEOVQSCChr1gU1igN30gxpb-BdQXHksCZXTbwk4QsN7PkTSLpKo5iGASytKrNkbzoLbEVNuHdwCJbflV-7IANjilteEUjT4h0T7Qo5YhqwI5xbm-3r17OptVwTb4DiS52gfb-jqKIbVa9TfvsNILUEzmUD0ztjNL-_qBRJBoMGG_AJhxQ4TpwbDcoFsDFFy3mhjToH-Zdq0EUAU4iisKd40-1njIXP-krggXR7SfedifA_Qg6Fxl0aEnb6kNsKQOWHp7KVdXKA8h0y5pvT411-iNogEpY6U5XbwNF4u2DtXV6vfyTlFS0OctzKfgOynlHPH37vwOjKmd98PS1VlkEiRsBnTmDKLjPZ9H4olJy_O0eNeHYgCMSnJCOorTfJ19OInU76_-F2hg0LXfvj3tMGBicOmX6-z77H_BuqQh9STsgaNlTAn4NKVtqkefq1Qy7r3kEBBHsvCIHiEL3t2tA2RJzBx7VfHenzd-pkqe-F4n-iByhGS6SGPkuJxwVKDx0kU6VVp11oLN0wKYUDgZE4NNT4qUhtEqEXGHmnFT7v-g8ws01ODMydpgnjV1sgXjAVksQ0VcrA0bnuVVAtna8jbZ73XpV03Fn0y88GMDkX3yPw7RctjyIsaN8cU74VyqQBpTbjJNl1YGtjjrv3CPowyOOONM_tM2LGBvl2KLwtlxbkfWnKLaWlS-Ngtvxd553EwYAz9HtOd-HgY9wFvNkTvXTRHEBTyfR8BcgsG2-OPV2w8IKFKlW80?></g></svg>