<svg xmlns="http://www.w3.org/2000/svg" xmlns:xlink="http://www.w3.org/1999/xlink" contentStyleType="text/css" data-diagram-type="DESCRIPTION" height="473px" preserveAspectRatio="none" style="width:2870px;height:473px;background:#FFFFFF;" version="1.1" viewBox="0 0 2870 473" width="2870px" zoomAndPan="magnify"><?plantuml 1.2026.6?><defs/><g><g class="title" data-source-line="1"><text fill="#000000" font-family="sans-serif" font-size="14" font-weight="700" lengthAdjust="spacing" textLength="459.375" x="1202.0892" y="22.9951">Figure 2b &#8212; Hexagonal architecture &#8212; ports and adapters</text></g><!--cluster Driving adapters--><g class="cluster" data-qualified-name="Driving adapters" data-source-line="10" id="ent0002"><path d="M153.68,189.2969 L287.1536,189.2969 A3.75,3.75 0 0 1 289.6536,191.7969 L296.6536,211.5938 L584.57,211.5938 A2.5,2.5 0 0 1 587.07,214.0938 L587.07,289.7969 A2.5,2.5 0 0 1 584.57,292.2969 L153.68,292.2969 A2.5,2.5 0 0 1 151.18,289.7969 L151.18,191.7969 A2.5,2.5 0 0 1 153.68,189.2969" fill="none" style="stroke:#000000;stroke-width:1.5;"/><line style="stroke:#000000;stroke-width:1.5;" x1="151.18" x2="296.6536" y1="211.5938" y2="211.5938"/><text fill="#000000" font-family="sans-serif" font-size="14" font-weight="700" lengthAdjust="spacing" textLength="132.4736" x="155.18" y="204.292">Driving adapters</text></g><!--cluster Driven adapters--><g class="cluster" data-qualified-name="Driven adapters" data-source-line="23" id="ent0011"><path d="M2120.5,43.2969 L2248.6484,43.2969 A3.75,3.75 0 0 1 2251.1484,45.7969 L2258.1484,65.5938 L2365.49,65.5938 A2.5,2.5 0 0 1 2367.99,68.0938 L2367.99,455.7969 A2.5,2.5 0 0 1 2365.49,458.2969 L2120.5,458.2969 A2.5,2.5 0 0 1 2118,455.7969 L2118,45.7969 A2.5,2.5 0 0 1 2120.5,43.2969" fill="none" style="stroke:#000000;stroke-width:1.5;"/><line style="stroke:#000000;stroke-width:1.5;" x1="2118" x2="2258.1484" y1="65.5938" y2="65.5938"/><text fill="#000000" font-family="sans-serif" font-size="14" font-weight="700" lengthAdjust="spacing" textLength="127.1484" x="2122" y="58.292">Driven adapters</text></g><!--entity UI--><g class="entity" data-qualified-name="Driving adapters.UI" data-source-line="11" id="ent0003"><rect fill="#F1F1F1" height="36.2969" rx="2.5" ry="2.5" style="stroke:#181818;stroke-width:0.5;" width="143.5938" x="167.18" y="224.1469"/><text fill="#000000" font-family="sans-serif" font-size="14" lengthAdjust="spacing" textLength="123.5938" x="177.18" y="247.142">React operator UI</text></g><!--entity Http--><g class="entity" data-qualified-name="Driving adapters.Http" data-source-line="12" id="ent0004"><rect fill="#F1F1F1" height="52.5938" rx="2.5" ry="2.5" style="stroke:#181818;stroke-width:0.5;" width="143.2998" x="427.77" y="223.9969"/><text fill="#000000" font-family="sans-serif" font-size="14" lengthAdjust="spacing" textLength="123.2998" x="437.77" y="246.992">Spring Security +</text><text fill="#000000" font-family="sans-serif" font-size="14" lengthAdjust="spacing" textLength="95.3135" x="437.77" y="263.2889">HTTP adapter</text></g><!--entity ActivityAdapters--><g class="entity" data-qualified-name="Driven adapters.ActivityAdapters" data-source-line="24" id="ent0012"><rect fill="#F1F1F1" height="68.8906" rx="2.5" ry="2.5" style="stroke:#181818;stroke-width:0.5;" width="217.9893" x="2134" y="165.8469"/><text fill="#000000" font-family="sans-serif" font-size="14" lengthAdjust="spacing" textLength="174.4873" x="2144" y="188.842">SyntheticActivityAdapter</text><text fill="#000000" font-family="sans-serif" font-size="14" lengthAdjust="spacing" textLength="197.9893" x="2144" y="205.1389">JpaCustomerActivityAdapter</text><text fill="#000000" font-family="sans-serif" font-size="14" lengthAdjust="spacing" textLength="104.8359" x="2144" y="221.4357">&#171;GoF Adapter&#187;</text></g><!--entity PolicyAdapters--><g class="entity" data-qualified-name="Driven adapters.PolicyAdapters" data-source-line="25" id="ent0013"><rect fill="#F1F1F1" height="68.8906" rx="2.5" ry="2.5" style="stroke:#181818;stroke-width:0.5;" width="179.585" x="2153.21" y="269.8469"/><text fill="#000000" font-family="sans-serif" font-size="14" lengthAdjust="spacing" textLength="136.5889" x="2163.21" y="292.842">StaticPolicyAdapter</text><text fill="#000000" font-family="sans-serif" font-size="14" lengthAdjust="spacing" textLength="159.585" x="2163.21" y="309.1389">PgVectorPolicyAdapter</text><text fill="#000000" font-family="sans-serif" font-size="14" lengthAdjust="spacing" textLength="104.8359" x="2163.21" y="325.4357">&#171;GoF Adapter&#187;</text></g><!--entity ModelAdapters--><g class="entity" data-qualified-name="Driven adapters.ModelAdapters" data-source-line="26" id="ent0014"><rect fill="#F1F1F1" height="68.8906" rx="2.5" ry="2.5" style="stroke:#181818;stroke-width:0.5;" width="203.7295" x="2141.13" y="373.8469"/><text fill="#000000" font-family="sans-serif" font-size="14" lengthAdjust="spacing" textLength="183.7295" x="2151.13" y="396.842">DeterministicAnalysisStub</text><text fill="#000000" font-family="sans-serif" font-size="14" lengthAdjust="spacing" textLength="172.1152" x="2151.13" y="413.1389">SpringAiAnalysisAdapter</text><text fill="#000000" font-family="sans-serif" font-size="14" lengthAdjust="spacing" textLength="104.8359" x="2151.13" y="429.4357">&#171;GoF Adapter&#187;</text></g><!--entity HistoryAdapter--><g class="entity" data-qualified-name="Driven adapters.HistoryAdapter" data-source-line="27" id="ent0015"><rect fill="#F1F1F1" height="52.5938" rx="2.5" ry="2.5" style="stroke:#181818;stroke-width:0.5;" width="204.8711" x="2140.56" y="77.9969"/><text fill="#000000" font-family="sans-serif" font-size="14" lengthAdjust="spacing" textLength="184.8711" x="2150.56" y="100.992">JpaAnalysisHistoryAdapter</text><text fill="#000000" font-family="sans-serif" font-size="14" lengthAdjust="spacing" textLength="104.8359" x="2150.56" y="117.2889">&#171;GoF Adapter&#187;</text></g><!--entity Operator--><g class="entity" data-qualified-name="Operator" data-source-line="8" id="ent0001"><ellipse cx="58.5889" cy="204.4969" fill="#F1F1F1" rx="8" ry="8" style="stroke:#181818;stroke-width:0.5;"/><path d="M58.5889,212.4969 L58.5889,239.4969 M45.5889,220.4969 L71.5889,220.4969 M58.5889,239.4969 L45.5889,254.4969 M58.5889,239.4969 L71.5889,254.4969" fill="none" style="stroke:#181818;stroke-width:0.5;"/><text fill="#000000" font-family="sans-serif" font-size="14" lengthAdjust="spacing" textLength="105.1777" x="6" y="268.992">Customer Care</text><text fill="#000000" font-family="sans-serif" font-size="14" lengthAdjust="spacing" textLength="62.665" x="6" y="285.2889">Operator</text></g><!--entity Inbound--><g class="entity" data-qualified-name="Inbound" data-source-line="15" id="ent0005"><ellipse cx="759.07" cy="250.2969" fill="#F1F1F1" rx="8" ry="8" style="stroke:#181818;stroke-width:0.5;"/><text fill="#000000" font-family="sans-serif" font-size="14" lengthAdjust="spacing" textLength="211.9209" x="634.8097" y="280.292">Inbound application use cases</text><text fill="#000000" font-family="sans-serif" font-size="14" lengthAdjust="spacing" textLength="248.5205" x="634.8097" y="296.5889">customer review &#183; analysis &#183; history</text></g><!--entity ActivityPort--><g class="entity" data-qualified-name="ActivityPort" data-source-line="16" id="ent0006"><ellipse cx="1717" cy="202.2969" fill="#F1F1F1" rx="8" ry="8" style="stroke:#181818;stroke-width:0.5;"/><text fill="#000000" font-family="sans-serif" font-size="14" lengthAdjust="spacing" textLength="148.8594" x="1642.5703" y="232.292">CustomerActivityPort</text></g><!--entity PolicyPort--><g class="entity" data-qualified-name="PolicyPort" data-source-line="17" id="ent0007"><ellipse cx="1717" cy="298.2969" fill="#F1F1F1" rx="8" ry="8" style="stroke:#181818;stroke-width:0.5;"/><text fill="#000000" font-family="sans-serif" font-size="14" lengthAdjust="spacing" textLength="145.9814" x="1644.0093" y="328.292">PolicyKnowledgePort</text></g><!--entity ModelPort--><g class="entity" data-qualified-name="ModelPort" data-source-line="18" id="ent0008"><ellipse cx="1717" cy="396.2969" fill="#F1F1F1" rx="8" ry="8" style="stroke:#181818;stroke-width:0.5;"/><text fill="#000000" font-family="sans-serif" font-size="14" lengthAdjust="spacing" textLength="127.9688" x="1653.0156" y="426.292">AnalysisModelPort</text></g><!--entity HistoryPort--><g class="entity" data-qualified-name="HistoryPort" data-source-line="19" id="ent0009"><ellipse cx="1717" cy="106.2969" fill="#F1F1F1" rx="8" ry="8" style="stroke:#181818;stroke-width:0.5;"/><text fill="#000000" font-family="sans-serif" font-size="14" lengthAdjust="spacing" textLength="135.7412" x="1649.1294" y="136.292">AnalysisHistoryPort</text></g><!--entity Core--><g class="entity" data-qualified-name="Core" data-source-line="21" id="ent0010"><polygon fill="#F1F1F1" points="1588,250.2969,1425.52,180.1069,1100.55,180.1069,938.07,250.2969,1100.55,320.4869,1425.52,320.4869,1588,250.2969" style="stroke:#181818;stroke-width:0.5;stroke-linejoin:miter;stroke-miterlimit:10;"/><text fill="#000000" font-family="sans-serif" font-size="14" lengthAdjust="spacing" textLength="113.3057" x="1100.5534" y="198.102">Application core</text><text fill="#000000" font-family="sans-serif" font-size="14" lengthAdjust="spacing" textLength="4.4502" x="1100.5534" y="214.3989">&#160;</text><text fill="#000000" font-family="sans-serif" font-size="14" lengthAdjust="spacing" textLength="53.416" x="1100.5534" y="230.6957">identity</text><text fill="#000000" font-family="sans-serif" font-size="14" lengthAdjust="spacing" textLength="65.9258" x="1100.5534" y="246.9926">customer</text><text fill="#000000" font-family="sans-serif" font-size="14" lengthAdjust="spacing" textLength="25.0469" x="1100.5534" y="263.2895">risk</text><text fill="#000000" font-family="sans-serif" font-size="14" lengthAdjust="spacing" textLength="56.6836" x="1100.5534" y="279.5864">analysis</text><text fill="#000000" font-family="sans-serif" font-size="14" lengthAdjust="spacing" textLength="4.4502" x="1100.5534" y="295.8832">&#160;</text><text fill="#000000" font-family="sans-serif" font-size="14" lengthAdjust="spacing" textLength="324.9668" x="1100.5534" y="312.1801">project-owned domain + application contracts</text></g><!--entity DB--><g class="entity" data-qualified-name="DB" data-source-line="30" id="ent0016"><path d="M2661.99,187.6469 C2661.99,177.6469 2753.7717,177.6469 2753.7717,177.6469 C2753.7717,177.6469 2845.5535,177.6469 2845.5535,187.6469 L2845.5535,212.9438 C2845.5535,222.9438 2753.7717,222.9438 2753.7717,222.9438 C2753.7717,222.9438 2661.99,222.9438 2661.99,212.9438 L2661.99,187.6469" fill="#F1F1F1" style="stroke:#181818;stroke-width:0.5;"/><path d="M2661.99,187.6469 C2661.99,197.6469 2753.7717,197.6469 2753.7717,197.6469 C2753.7717,197.6469 2845.5535,197.6469 2845.5535,187.6469" fill="none" style="stroke:#181818;stroke-width:0.5;"/><text fill="#000000" font-family="sans-serif" font-size="14" lengthAdjust="spacing" textLength="163.5635" x="2671.99" y="214.642">PostgreSQL + pgvector</text></g><!--entity Provider--><g class="entity" data-qualified-name="Provider" data-source-line="31" id="ent0017"><rect fill="#F1F1F1" height="52.5938" rx="2.5" ry="2.5" style="stroke:#181818;stroke-width:0.5;" width="159.5762" x="2673.99" y="381.9969"/><text fill="#000000" font-family="sans-serif" font-size="14" font-style="italic" lengthAdjust="spacing" textLength="75.3799" x="2716.0881" y="404.992">&#171;external&#187;</text><text fill="#000000" font-family="sans-serif" font-size="14" lengthAdjust="spacing" textLength="139.5762" x="2683.99" y="421.2889">External AI provider</text></g><g class="entity" data-qualified-name="GMN34" data-source-line="54" id="ent0035"><path d="M973.99,355.8969 L973.99,456.6938 L1552.0921,456.6938 L1552.0921,365.8969 L1542.0921,355.8969 L973.99,355.8969" fill="#FEFFDD" style="stroke:#181818;stroke-width:0.5;"/><path d="M1542.0921,355.8969 L1542.0921,365.8969 L1552.0921,365.8969 L1542.0921,355.8969" fill="#FEFFDD" style="stroke:#181818;stroke-width:1;"/><text fill="#000000" font-family="sans-serif" font-size="13" lengthAdjust="spacing" textLength="442.603" x="979.99" y="372.9638">Hexagonal architecture is the architectural style, not a GoF pattern.</text><text fill="#000000" font-family="sans-serif" font-size="13" lengthAdjust="spacing" textLength="156.5522" x="979.99" y="388.0966">GoF roles used inside it:</text><text fill="#000000" font-family="sans-serif" font-size="13" lengthAdjust="spacing" textLength="557.1021" x="979.99" y="403.2294">- Adapter: infrastructure implementations translate external/framework APIs to ports.</text><text fill="#000000" font-family="sans-serif" font-size="13" lengthAdjust="spacing" textLength="523.0786" x="979.99" y="418.3622">- Strategy: alternate implementations are selected behind stable port contracts.</text><text fill="#000000" font-family="sans-serif" font-size="13" lengthAdjust="spacing" textLength="524.564" x="979.99" y="433.495">- Facade/application service: coarse-grained use cases orchestrate several ports</text><text fill="#000000" font-family="sans-serif" font-size="13" lengthAdjust="spacing" textLength="411.1567" x="988.2546" y="448.6278">without exposing that choreography to the HTTP adapter or UI.</text></g><!--link Operator to UI--><g class="link" data-entity-1="ent0001" data-entity-2="ent0003" data-link-type="dependency" data-source-line="33" id="lnk18"><path d="M111.66,242.2969 C128.94,242.2969 143.48,242.2969 161.94,242.2969" fill="none" id="Operator-to-UI" style="stroke:#181818;stroke-width:1;"/><polygon fill="#181818" points="166.94,242.2969,157.94,238.2969,161.94,242.2969,157.94,246.2969,166.94,242.2969" style="stroke:#181818;stroke-width:1;stroke-linejoin:miter;stroke-miterlimit:10;"/></g><!--link UI to Http--><g class="link" data-entity-1="ent0003" data-entity-2="ent0004" data-link-type="dependency" data-source-line="34" id="lnk19"><path d="M310.94,244.4969 C347.25,245.6169 386.3324,246.8213 422.6224,247.9513" fill="none" id="UI-to-Http" style="stroke:#181818;stroke-width:1;"/><polygon fill="#181818" points="427.62,248.1069,418.7489,243.8287,422.6224,247.9513,418.4999,251.8248,427.62,248.1069" style="stroke:#181818;stroke-width:1;stroke-linejoin:miter;stroke-miterlimit:10;"/><text fill="#000000" font-family="sans-serif" font-size="13" lengthAdjust="spacing" textLength="69.9194" x="334.77" y="241.4138">HTTP/JSON</text></g><!--link Http to Inbound--><g class="link" data-entity-1="ent0004" data-entity-2="ent0005" data-link-type="dependency" data-source-line="35" id="lnk20"><path d="M571.51,250.2969 C635.56,250.2969 718.61,250.2969 745.18,250.2969" fill="none" id="Http-to-Inbound" style="stroke:#181818;stroke-width:1;"/><polygon fill="#181818" points="750.18,250.2969,741.18,246.2969,745.18,250.2969,741.18,254.2969,750.18,250.2969" style="stroke:#181818;stroke-width:1;stroke-linejoin:miter;stroke-miterlimit:10;"/></g><!--link Inbound to Core--><g class="link" data-entity-1="ent0005" data-entity-2="ent0010" data-link-type="dependency" data-source-line="36" id="lnk21"><path d="M767.96,250.2969 C790.44,250.2969 853.33,250.2969 931.87,250.2969" fill="none" id="Inbound-to-Core" style="stroke:#181818;stroke-width:1;"/><polygon fill="#181818" points="936.87,250.2969,927.87,246.2969,931.87,250.2969,927.87,254.2969,936.87,250.2969" style="stroke:#181818;stroke-width:1;stroke-linejoin:miter;stroke-miterlimit:10;"/></g><!--link Core to ActivityPort--><g class="link" data-entity-1="ent0010" data-entity-2="ent0006" data-link-type="dependency" data-source-line="38" id="lnk22"><path d="M1524.99,222.5869 C1607.58,213.8069 1678.8179,206.244 1703.0579,203.674" fill="none" id="Core-to-ActivityPort" style="stroke:#181818;stroke-width:1;"/><polygon fill="#181818" points="1708.03,203.1469,1698.6584,200.1181,1703.0579,203.674,1699.5019,208.0735,1708.03,203.1469" style="stroke:#181818;stroke-width:1;stroke-linejoin:miter;stroke-miterlimit:10;"/></g><!--link Core to PolicyPort--><g class="link" data-entity-1="ent0010" data-entity-2="ent0007" data-link-type="dependency" data-source-line="39" id="lnk23"><path d="M1524.99,278.0069 C1607.58,286.7869 1678.8179,294.3497 1703.0579,296.9197" fill="none" id="Core-to-PolicyPort" style="stroke:#181818;stroke-width:1;"/><polygon fill="#181818" points="1708.03,297.4469,1699.5019,292.5203,1703.0579,296.9197,1698.6584,300.4757,1708.03,297.4469" style="stroke:#181818;stroke-width:1;stroke-linejoin:miter;stroke-miterlimit:10;"/></g><!--link Core to ModelPort--><g class="link" data-entity-1="ent0010" data-entity-2="ent0008" data-link-type="dependency" data-source-line="40" id="lnk24"><path d="M1463.68,304.5269 C1530.35,322.6369 1588,338.2969 1588,338.2969 C1588,338.2969 1676.2761,378.2923 1703.8261,390.7823" fill="none" id="Core-to-ModelPort" style="stroke:#181818;stroke-width:1;"/><polygon fill="#181818" points="1708.38,392.8469,1701.8347,385.4876,1703.8261,390.7823,1698.5314,392.7738,1708.38,392.8469" style="stroke:#181818;stroke-width:1;stroke-linejoin:miter;stroke-miterlimit:10;"/></g><!--link Core to HistoryPort--><g class="link" data-entity-1="ent0010" data-entity-2="ent0009" data-link-type="dependency" data-source-line="41" id="lnk25"><path d="M1451.13,190.6869 C1557.99,156.6469 1672.0359,120.3044 1703.3359,110.3344" fill="none" id="Core-to-HistoryPort" style="stroke:#181818;stroke-width:1;"/><polygon fill="#181818" points="1708.1,108.8169,1698.3105,107.7371,1703.3359,110.3344,1700.7386,115.3597,1708.1,108.8169" style="stroke:#181818;stroke-width:1;stroke-linejoin:miter;stroke-miterlimit:10;"/></g><!--link ActivityPort to ActivityAdapters--><g class="link" data-entity-1="ent0006" data-entity-2="ent0012" data-link-type="dependency" data-source-line="43" id="lnk26"><path d="M1725.82,202.2669 C1770.44,202.0969 1990.87,201.2561 2128.64,200.7261" fill="none" id="ActivityPort-to-ActivityAdapters" style="stroke:#181818;stroke-width:1;"/><polygon fill="#181818" points="2133.64,200.7069,2124.6247,196.7415,2128.64,200.7261,2124.6555,204.7415,2133.64,200.7069" style="stroke:#181818;stroke-width:1;stroke-linejoin:miter;stroke-miterlimit:10;"/><text fill="#000000" font-family="sans-serif" font-size="13" lengthAdjust="spacing" textLength="278.2241" x="1823" y="196.9038">interchangeable strategy implementations</text></g><!--link PolicyPort to PolicyAdapters--><g class="link" data-entity-1="ent0007" data-entity-2="ent0013" data-link-type="dependency" data-source-line="44" id="lnk27"><path d="M1725.82,298.3869 C1772.57,298.9169 2012.8303,301.6694 2147.7703,303.2194" fill="none" id="PolicyPort-to-PolicyAdapters" style="stroke:#181818;stroke-width:1;"/><polygon fill="#181818" points="2152.77,303.2769,2143.8165,299.1738,2147.7703,303.2194,2143.7247,307.1732,2152.77,303.2769" style="stroke:#181818;stroke-width:1;stroke-linejoin:miter;stroke-miterlimit:10;"/><text fill="#000000" font-family="sans-serif" font-size="13" lengthAdjust="spacing" textLength="278.2241" x="1823" y="295.5838">interchangeable strategy implementations</text></g><!--link ModelPort to ModelAdapters--><g class="link" data-entity-1="ent0008" data-entity-2="ent0014" data-link-type="dependency" data-source-line="45" id="lnk28"><path d="M1725.82,396.4769 C1771.21,397.5169 1998.6413,402.7223 2135.6413,405.8623" fill="none" id="ModelPort-to-ModelAdapters" style="stroke:#181818;stroke-width:1;"/><polygon fill="#181818" points="2140.64,405.9769,2131.734,401.7717,2135.6413,405.8623,2131.5507,409.7696,2140.64,405.9769" style="stroke:#181818;stroke-width:1;stroke-linejoin:miter;stroke-miterlimit:10;"/><text fill="#000000" font-family="sans-serif" font-size="13" lengthAdjust="spacing" textLength="278.2241" x="1823" y="394.8038">interchangeable strategy implementations</text></g><!--link HistoryPort to HistoryAdapter--><g class="link" data-entity-1="ent0009" data-entity-2="ent0015" data-link-type="dependency" data-source-line="46" id="lnk29"><path d="M1725.82,106.2669 C1771.14,106.0969 1997.99,105.2258 2135.06,104.7058" fill="none" id="HistoryPort-to-HistoryAdapter" style="stroke:#181818;stroke-width:1;"/><polygon fill="#181818" points="2140.06,104.6869,2131.0449,100.721,2135.06,104.7058,2131.0752,108.721,2140.06,104.6869" style="stroke:#181818;stroke-width:1;stroke-linejoin:miter;stroke-miterlimit:10;"/></g><!--link ActivityAdapters to DB--><g class="link" data-entity-1="ent0012" data-entity-2="ent0016" data-link-type="dependency" data-source-line="48" id="lnk30"><path d="M2352.21,200.2969 C2444.26,200.2969 2569.97,200.2969 2656.74,200.2969" fill="none" id="ActivityAdapters-to-DB" style="stroke:#181818;stroke-width:1;"/><polygon fill="#181818" points="2661.74,200.2969,2652.74,196.2969,2656.74,200.2969,2652.74,204.2969,2661.74,200.2969" style="stroke:#181818;stroke-width:1;stroke-linejoin:miter;stroke-miterlimit:10;"/><text fill="#000000" font-family="sans-serif" font-size="13" lengthAdjust="spacing" textLength="154.7876" x="2434.49" y="196.3638">JDBC when JPA selected</text></g><!--link PolicyAdapters to DB--><g class="link" data-entity-1="ent0013" data-entity-2="ent0016" data-link-type="dependency" data-source-line="49" id="lnk31"><path d="M2333.14,286.4669 C2449.64,263.1669 2638.99,225.2969 2638.99,225.2969 C2638.99,225.2969 2643.4865,224.3099 2656.8665,221.3699" fill="none" id="PolicyAdapters-to-DB" style="stroke:#181818;stroke-width:1;"/><polygon fill="#181818" points="2661.75,220.2969,2652.1013,218.3216,2656.8665,221.3699,2653.8181,226.1352,2661.75,220.2969" style="stroke:#181818;stroke-width:1;stroke-linejoin:miter;stroke-miterlimit:10;"/><text fill="#000000" font-family="sans-serif" font-size="13" lengthAdjust="spacing" textLength="213.6431" x="2404.99" y="221.3638">JDBC/pgvector when R4 selected</text></g><!--link HistoryAdapter to DB--><g class="link" data-entity-1="ent0015" data-entity-2="ent0016" data-link-type="dependency" data-source-line="50" id="lnk32"><path d="M2345.72,122.5769 C2462.75,143.6169 2638.99,175.2969 2638.99,175.2969 C2638.99,175.2969 2643.4865,176.2838 2656.8665,179.2238" fill="none" id="HistoryAdapter-to-DB" style="stroke:#181818;stroke-width:1;"/><polygon fill="#181818" points="2661.75,180.2969,2653.8181,174.4586,2656.8665,179.2238,2652.1013,182.2722,2661.75,180.2969" style="stroke:#181818;stroke-width:1;stroke-linejoin:miter;stroke-miterlimit:10;"/><text fill="#000000" font-family="sans-serif" font-size="13" lengthAdjust="spacing" textLength="31.8398" x="2495.99" y="127.4138">JDBC</text></g><!--link ModelAdapters to Provider--><g class="link" data-entity-1="ent0014" data-entity-2="ent0017" data-link-type="dependency" data-source-line="51" id="lnk33"><path d="M2345.13,408.2969 C2441.63,408.2969 2580.04,408.2969 2668.52,408.2969" fill="none" id="ModelAdapters-to-Provider" style="stroke:#181818;stroke-width:1;stroke-dasharray:7,7;"/><polygon fill="#181818" points="2673.52,408.2969,2664.52,404.2969,2668.52,408.2969,2664.52,412.2969,2673.52,408.2969" style="stroke:#181818;stroke-width:1;stroke-linejoin:miter;stroke-miterlimit:10;"/><text fill="#000000" font-family="sans-serif" font-size="13" lengthAdjust="spacing" textLength="253.6841" x="2384.99" y="404.3638">HTTPS only when live adapter selected</text></g><!--link Core to GMN34--><g class="link" data-entity-1="ent0010" data-entity-2="ent0035" data-link-type="association" data-source-line="54" id="lnk36"><path d="M1263.04,320.7769 C1263.04,335.7269 1263.04,354.2969 1263.04,354.2969 C1263.04,354.2969 1263.04,354.7569 1263.04,355.5869" fill="none" id="Core-GMN34" style="stroke:#181818;stroke-width:1;stroke-dasharray:7,7;"/></g><?plantuml-src dLLBRXiv4Dtp50LjCvA1JB8n306oDHxBauyc7MUb3TLTxkQeHH8a9QKH3327cBjadwFa9AbY_nKdYsmQpUBZO_7LBwXG8jog_E0Gdc_Xwt__mnr-bBdHiWJfqa85J0FlyfOrBdYGEWEPIHlGUL7YOu1WmAcy290fHt1bjF0xfQrqSW-bqXWgYtIwh7Wns4lDtXgDEYIX8aVuiDHvEOHeaw572x-_71YTr3isldWfX4o3SJ2vEVXWzkZWHZhSwBSMdQID2KWFxK88AzETp14cIwUEIkVTGoRmIK3l3qpU8H63QKx2moeoFQp6gCGwPaamFJWLAdYsqNVltwzRsdZcBWGh_XL2QR8yofHkN-cjER2CrfOgbQmO73n2AZtwZKxRjpWyAZp1byyakYmhhpp_5ugsNHN96wOXUQl4WY9n9AVM5BM87Hg61zQ6dAZ-qkPKOfPZXw_jv-X5uybh2apPORlLKz2xsk4EF5WBKTJvHkY16AdX86wqoaXcShdNPAETyhkDRWLXb7Nc7qgTgJbfp20pUwaqF1kfcneT74NKHmTkYFui6L3_E1UIIeS2WqfR1HSrSgFlhJoNkzkxklhJt4ApdCz78LYqzJE-9v2pQIrxHxFEFo2d-9dvAVOHv8nxYMJRAqtIqpiQyP9ms6vqdSGBrLf_UaSCzDDNa1Xd4VyfqnZ35PB98BTK0foIFkGEaxzVKHnjVemAn5FBQp6uye-FT9HxrM85b0L7ofSQjcuMS7M53MO-5wBj132TphcO7rRnZqiKBe5Bz-8-UVj6H0FljFNLLYpRwkpXRroEoggp3egdi_L5qfb6fJ1a6b6tUfEFiRpIWjeaoYtrJ4zf7J2lGErjYNjI9IQy5xq30tz-XQZpkd_3hz0CNZfyUHj-yTrR6RIyfYlkbzStS2geGk_N2_1OKZPW9ivUD89Vj3bJdtlteZysldTyJ8nVDvlD-qIgqoC1eykgPYsfQxHDe-SNsWI4hGdK5S0yrja2FnghrD6fjGnjXF0y3N-ZqHT00XUEbO5pU4Oyl7IcHCy38oFvFNa7AbpIthIjC0xBevCKYqDppJWOG47IlgH0GLiT5uJVuycu7IpMAyypFOxxMUHDcgXUWYmZFdpFINEtKm6sM2Wg5nzYKZ1Jtu9hobkPoWmlXatQepkg52y9Aft7QUweaHDPDnh1a4vOfnYXZyXgHJU94k2aGc4EWTvaZUUv70f9znOK0KDSjgZuMQptS4X37EypWUGln-uR?></g></svg>